M48
; DRILL file {KiCad 9.0.3} date 2025-07-28T21:25:04+0200
; FORMAT={-:-/ absolute / metric / decimal}
; #@! TF.CreationDate,2025-07-28T21:25:04+02:00
; #@! TF.GenerationSoftware,Kicad,Pcbnew,9.0.3
; #@! TF.FileFunction,Plated,1,2,PTH
FMAT,2
METRIC
; #@! TA.AperFunction,Plated,PTH,ViaDrill
T1C0.300
; #@! TA.AperFunction,Plated,PTH,ComponentDrill
T2C0.800
; #@! TA.AperFunction,Plated,PTH,ComponentDrill
T3C1.000
; #@! TA.AperFunction,Plated,PTH,ComponentDrill
T4C1.600
%
G90
G05
T1
X111.76Y-41.91
X172.72Y-39.37
T2
X116.88Y-55.88
X116.88Y-76.2
X118.15Y-96.52
X119.38Y-55.88
X119.38Y-76.2
X120.65Y-96.52
X187.96Y-76.2
X188.0Y-55.88
X189.27Y-96.52
X190.46Y-76.2
X190.5Y-55.88
X191.77Y-96.52
T3
X116.84Y-45.72
X116.84Y-50.8
X116.84Y-66.04
X116.84Y-71.12
X116.84Y-86.36
X116.84Y-91.44
X119.38Y-45.72
X119.38Y-50.8
X119.38Y-66.04
X119.38Y-71.12
X119.38Y-86.36
X119.38Y-91.44
X121.92Y-45.72
X121.92Y-50.8
X121.92Y-66.04
X121.92Y-71.12
X121.92Y-86.36
X121.92Y-91.44
X124.46Y-45.72
X124.46Y-50.8
X124.46Y-66.04
X124.46Y-71.12
X124.46Y-86.36
X124.46Y-91.44
X127.0Y-45.72
X127.0Y-50.8
X127.0Y-66.04
X127.0Y-71.12
X127.0Y-86.36
X127.0Y-91.44
X129.54Y-45.72
X129.54Y-50.8
X129.54Y-66.04
X129.54Y-71.12
X129.54Y-86.36
X129.54Y-91.44
X132.08Y-45.72
X132.08Y-50.8
X132.08Y-66.04
X132.08Y-71.12
X132.08Y-86.36
X132.08Y-91.44
X134.62Y-45.72
X134.62Y-50.8
X134.62Y-66.04
X134.62Y-71.12
X134.62Y-86.36
X134.62Y-91.44
X137.16Y-45.72
X137.16Y-50.8
X137.16Y-66.04
X137.16Y-71.12
X137.16Y-86.36
X137.16Y-91.44
X139.7Y-45.72
X139.7Y-50.8
X139.7Y-66.04
X139.7Y-71.12
X139.7Y-86.36
X139.7Y-91.44
X142.24Y-45.72
X142.24Y-50.8
X142.24Y-66.04
X142.24Y-71.12
X142.24Y-86.36
X142.24Y-91.44
X144.78Y-45.72
X144.78Y-50.8
X144.78Y-66.04
X144.78Y-71.12
X144.78Y-86.36
X144.78Y-91.44
X147.32Y-45.72
X147.32Y-50.8
X147.32Y-66.04
X147.32Y-71.12
X147.32Y-86.36
X147.32Y-91.44
X149.86Y-45.72
X149.86Y-50.8
X149.86Y-66.04
X149.86Y-71.12
X149.86Y-86.36
X149.86Y-91.44
X152.4Y-45.72
X152.4Y-50.8
X152.4Y-66.04
X152.4Y-71.12
X152.4Y-86.36
X152.4Y-91.44
X154.94Y-45.72
X154.94Y-50.8
X154.94Y-66.04
X154.94Y-71.12
X154.94Y-86.36
X154.94Y-91.44
X157.48Y-45.72
X157.48Y-50.8
X157.48Y-66.04
X157.48Y-71.12
X157.48Y-86.36
X157.48Y-91.44
X160.02Y-45.72
X160.02Y-50.8
X160.02Y-66.04
X160.02Y-71.12
X160.02Y-86.36
X160.02Y-91.44
X162.56Y-45.72
X162.56Y-50.8
X162.56Y-66.04
X162.56Y-71.12
X162.56Y-86.36
X162.56Y-91.44
X165.1Y-45.72
X165.1Y-50.8
X165.1Y-66.04
X165.1Y-71.12
X165.1Y-86.36
X165.1Y-91.44
X167.64Y-45.72
X167.64Y-50.8
X167.64Y-66.04
X167.64Y-71.12
X167.64Y-86.36
X167.64Y-91.44
X170.18Y-45.72
X170.18Y-50.8
X170.18Y-66.04
X170.18Y-71.12
X170.18Y-86.36
X170.18Y-91.44
X172.72Y-45.72
X172.72Y-50.8
X172.72Y-66.04
X172.72Y-71.12
X172.72Y-86.36
X172.72Y-91.44
X175.26Y-45.72
X175.26Y-50.8
X175.26Y-66.04
X175.26Y-71.12
X175.26Y-86.36
X175.26Y-91.44
X177.8Y-45.72
X177.8Y-50.8
X177.8Y-66.04
X177.8Y-71.12
X177.8Y-86.36
X177.8Y-91.44
X180.34Y-45.72
X180.34Y-50.8
X180.34Y-66.04
X180.34Y-71.12
X180.34Y-86.36
X180.34Y-91.44
X182.88Y-45.72
X182.88Y-50.8
X182.88Y-66.04
X182.88Y-71.12
X182.88Y-86.36
X182.88Y-91.44
X185.42Y-45.72
X185.42Y-50.8
X185.42Y-66.04
X185.42Y-71.12
X185.42Y-86.36
X185.42Y-91.44
X187.96Y-45.72
X187.96Y-50.8
X187.96Y-66.04
X187.96Y-71.12
X187.96Y-86.36
X187.96Y-91.44
X190.5Y-45.72
X190.5Y-50.8
X190.5Y-66.04
X190.5Y-71.12
X190.5Y-86.36
X190.5Y-91.44
X193.04Y-45.72
X193.04Y-50.8
X193.04Y-66.04
X193.04Y-71.12
X193.04Y-86.36
X193.04Y-91.44
T4
X101.382Y-55.27
X101.382Y-59.461
X101.389Y-63.65
X101.389Y-67.851
X101.389Y-72.05
X101.389Y-76.251
X101.389Y-80.449
X101.389Y-84.651
X101.389Y-88.849
X101.389Y-93.05
X101.389Y-97.249
X101.389Y-101.45
X106.883Y-55.27
X106.883Y-59.461
X106.891Y-63.65
X106.891Y-67.851
X106.891Y-72.05
X106.891Y-76.251
X106.891Y-80.449
X106.891Y-84.651
X106.891Y-88.849
X106.891Y-93.05
X106.891Y-97.249
X106.891Y-101.45
M30
