%TF.GenerationSoftware,KiCad,Pcbnew,9.0.3*%
%TF.CreationDate,2025-07-28T21:25:01+02:00*%
%TF.ProjectId,Riser_M19_EXT,52697365-725f-44d3-9139-5f4558542e6b,rev?*%
%TF.SameCoordinates,Original*%
%TF.FileFunction,Copper,L2,Bot*%
%TF.FilePolarity,Positive*%
%FSLAX46Y46*%
G04 Gerber Fmt 4.6, Leading zero omitted, Abs format (unit mm)*
G04 Created by KiCad (PCBNEW 9.0.3) date 2025-07-28 21:25:01*
%MOMM*%
%LPD*%
G01*
G04 APERTURE LIST*
G04 Aperture macros list*
%AMRoundRect*
0 Rectangle with rounded corners*
0 $1 Rounding radius*
0 $2 $3 $4 $5 $6 $7 $8 $9 X,Y pos of 4 corners*
0 Add a 4 corners polygon primitive as box body*
4,1,4,$2,$3,$4,$5,$6,$7,$8,$9,$2,$3,0*
0 Add four circle primitives for the rounded corners*
1,1,$1+$1,$2,$3*
1,1,$1+$1,$4,$5*
1,1,$1+$1,$6,$7*
1,1,$1+$1,$8,$9*
0 Add four rect primitives between the rounded corners*
20,1,$1+$1,$2,$3,$4,$5,0*
20,1,$1+$1,$4,$5,$6,$7,0*
20,1,$1+$1,$6,$7,$8,$9,0*
20,1,$1+$1,$8,$9,$2,$3,0*%
G04 Aperture macros list end*
%TA.AperFunction,ComponentPad*%
%ADD10C,2.600960*%
%TD*%
%TA.AperFunction,ComponentPad*%
%ADD11R,1.700000X1.700000*%
%TD*%
%TA.AperFunction,ComponentPad*%
%ADD12O,1.700000X1.700000*%
%TD*%
%TA.AperFunction,ComponentPad*%
%ADD13RoundRect,0.250000X-0.550000X-0.550000X0.550000X-0.550000X0.550000X0.550000X-0.550000X0.550000X0*%
%TD*%
%TA.AperFunction,ComponentPad*%
%ADD14C,1.600000*%
%TD*%
%TA.AperFunction,ConnectorPad*%
%ADD15R,1.778000X7.112000*%
%TD*%
%TA.AperFunction,ComponentPad*%
%ADD16RoundRect,0.250000X0.550000X0.550000X-0.550000X0.550000X-0.550000X-0.550000X0.550000X-0.550000X0*%
%TD*%
%TA.AperFunction,ViaPad*%
%ADD17C,0.600000*%
%TD*%
%TA.AperFunction,Conductor*%
%ADD18C,0.200000*%
%TD*%
%TA.AperFunction,Conductor*%
%ADD19C,0.600000*%
%TD*%
%TA.AperFunction,Conductor*%
%ADD20C,0.400000*%
%TD*%
%TA.AperFunction,Conductor*%
%ADD21C,1.000000*%
%TD*%
G04 APERTURE END LIST*
D10*
%TO.P,PicoPSU,1*%
%TO.N,N/C*%
X101389180Y-101450140D03*
%TO.P,PicoPSU,2*%
X101389180Y-97248980D03*
%TO.P,PicoPSU,3*%
%TO.N,GND*%
X101389180Y-93050360D03*
%TO.P,PicoPSU,4*%
%TO.N,VCC*%
X101389180Y-88849200D03*
%TO.P,PicoPSU,5*%
%TO.N,GND*%
X101389180Y-84650580D03*
%TO.P,PicoPSU,6*%
%TO.N,VCC*%
X101389180Y-80449420D03*
%TO.P,PicoPSU,7*%
%TO.N,GND*%
X101389180Y-76250800D03*
%TO.P,PicoPSU,8*%
%TO.N,N/C*%
X101389180Y-72049640D03*
%TO.P,PicoPSU,9*%
X101389180Y-67851020D03*
%TO.P,PicoPSU,10*%
%TO.N,+12V*%
X101389180Y-63649860D03*
%TO.P,PicoPSU,11*%
%TO.N,N/C*%
X106890820Y-101450140D03*
%TO.P,PicoPSU,12*%
%TO.N,/-12V*%
X106890820Y-97248980D03*
%TO.P,PicoPSU,13*%
%TO.N,GND*%
X106890820Y-93050360D03*
%TO.P,PicoPSU,14*%
%TO.N,N/C*%
X106890820Y-88849200D03*
%TO.P,PicoPSU,15*%
%TO.N,GND*%
X106890820Y-84650580D03*
%TO.P,PicoPSU,16*%
X106890820Y-80449420D03*
%TO.P,PicoPSU,17*%
X106890820Y-76250800D03*
%TO.P,PicoPSU,18*%
%TO.N,/-5V*%
X106890820Y-72049640D03*
%TO.P,PicoPSU,19*%
%TO.N,VCC*%
X106890820Y-67851020D03*
%TO.P,PicoPSU,20*%
X106890820Y-63649860D03*
%TD*%
D11*
%TO.P,REF\u002A\u002A,1*%
%TO.N,/IO_CH_CK*%
X193040000Y-50800000D03*
D12*
%TO.P,REF\u002A\u002A,2*%
%TO.N,/D7*%
X190500000Y-50800000D03*
%TO.P,REF\u002A\u002A,3*%
%TO.N,/D6*%
X187960000Y-50800000D03*
%TO.P,REF\u002A\u002A,4*%
%TO.N,/D5*%
X185420000Y-50800000D03*
%TO.P,REF\u002A\u002A,5*%
%TO.N,/D4*%
X182880000Y-50800000D03*
%TO.P,REF\u002A\u002A,6*%
%TO.N,/D3*%
X180340000Y-50800000D03*
%TO.P,REF\u002A\u002A,7*%
%TO.N,/D2*%
X177800000Y-50800000D03*
%TO.P,REF\u002A\u002A,8*%
%TO.N,/D1*%
X175260000Y-50800000D03*
%TO.P,REF\u002A\u002A,9*%
%TO.N,/D0*%
X172720000Y-50800000D03*
%TO.P,REF\u002A\u002A,10*%
%TO.N,/IO_READY*%
X170180000Y-50800000D03*
%TO.P,REF\u002A\u002A,11*%
%TO.N,/AEN*%
X167640000Y-50800000D03*
%TO.P,REF\u002A\u002A,12*%
%TO.N,/A19*%
X165100000Y-50800000D03*
%TO.P,REF\u002A\u002A,13*%
%TO.N,/A18*%
X162560000Y-50800000D03*
%TO.P,REF\u002A\u002A,14*%
%TO.N,/A17*%
X160020000Y-50800000D03*
%TO.P,REF\u002A\u002A,15*%
%TO.N,/A16*%
X157480000Y-50800000D03*
%TO.P,REF\u002A\u002A,16*%
%TO.N,/A15*%
X154940000Y-50800000D03*
%TO.P,REF\u002A\u002A,17*%
%TO.N,/A14*%
X152400000Y-50800000D03*
%TO.P,REF\u002A\u002A,18*%
%TO.N,/A13*%
X149860000Y-50800000D03*
%TO.P,REF\u002A\u002A,19*%
%TO.N,/A12*%
X147320000Y-50800000D03*
%TO.P,REF\u002A\u002A,20*%
%TO.N,/A11*%
X144780000Y-50800000D03*
%TO.P,REF\u002A\u002A,21*%
%TO.N,/A10*%
X142240000Y-50800000D03*
%TO.P,REF\u002A\u002A,22*%
%TO.N,/A9*%
X139700000Y-50800000D03*
%TO.P,REF\u002A\u002A,23*%
%TO.N,/A8*%
X137160000Y-50800000D03*
%TO.P,REF\u002A\u002A,24*%
%TO.N,/A7*%
X134620000Y-50800000D03*
%TO.P,REF\u002A\u002A,25*%
%TO.N,/A6*%
X132080000Y-50800000D03*
%TO.P,REF\u002A\u002A,26*%
%TO.N,/A5*%
X129540000Y-50800000D03*
%TO.P,REF\u002A\u002A,27*%
%TO.N,/A4*%
X127000000Y-50800000D03*
%TO.P,REF\u002A\u002A,28*%
%TO.N,/A3*%
X124460000Y-50800000D03*
%TO.P,REF\u002A\u002A,29*%
%TO.N,/A2*%
X121920000Y-50800000D03*
%TO.P,REF\u002A\u002A,30*%
%TO.N,/A1*%
X119380000Y-50800000D03*
%TO.P,REF\u002A\u002A,31*%
%TO.N,/A0*%
X116840000Y-50800000D03*
%TD*%
D10*
%TO.P,,24*%
%TO.N,N/C*%
X101381560Y-55270400D03*
%TD*%
D13*
%TO.P,100\u00B5F,1*%
%TO.N,VCC*%
X187960000Y-76200000D03*
D14*
%TO.P,100\u00B5F,2*%
%TO.N,GND*%
X190460000Y-76200000D03*
%TD*%
D11*
%TO.P,REF\u002A\u002A,1*%
%TO.N,/IO_CH_CK*%
X193040000Y-71120000D03*
D12*
%TO.P,REF\u002A\u002A,2*%
%TO.N,/D7*%
X190500000Y-71120000D03*
%TO.P,REF\u002A\u002A,3*%
%TO.N,/D6*%
X187960000Y-71120000D03*
%TO.P,REF\u002A\u002A,4*%
%TO.N,/D5*%
X185420000Y-71120000D03*
%TO.P,REF\u002A\u002A,5*%
%TO.N,/D4*%
X182880000Y-71120000D03*
%TO.P,REF\u002A\u002A,6*%
%TO.N,/D3*%
X180340000Y-71120000D03*
%TO.P,REF\u002A\u002A,7*%
%TO.N,/D2*%
X177800000Y-71120000D03*
%TO.P,REF\u002A\u002A,8*%
%TO.N,/D1*%
X175260000Y-71120000D03*
%TO.P,REF\u002A\u002A,9*%
%TO.N,/D0*%
X172720000Y-71120000D03*
%TO.P,REF\u002A\u002A,10*%
%TO.N,/IO_READY*%
X170180000Y-71120000D03*
%TO.P,REF\u002A\u002A,11*%
%TO.N,/AEN*%
X167640000Y-71120000D03*
%TO.P,REF\u002A\u002A,12*%
%TO.N,/A19*%
X165100000Y-71120000D03*
%TO.P,REF\u002A\u002A,13*%
%TO.N,/A18*%
X162560000Y-71120000D03*
%TO.P,REF\u002A\u002A,14*%
%TO.N,/A17*%
X160020000Y-71120000D03*
%TO.P,REF\u002A\u002A,15*%
%TO.N,/A16*%
X157480000Y-71120000D03*
%TO.P,REF\u002A\u002A,16*%
%TO.N,/A15*%
X154940000Y-71120000D03*
%TO.P,REF\u002A\u002A,17*%
%TO.N,/A14*%
X152400000Y-71120000D03*
%TO.P,REF\u002A\u002A,18*%
%TO.N,/A13*%
X149860000Y-71120000D03*
%TO.P,REF\u002A\u002A,19*%
%TO.N,/A12*%
X147320000Y-71120000D03*
%TO.P,REF\u002A\u002A,20*%
%TO.N,/A11*%
X144780000Y-71120000D03*
%TO.P,REF\u002A\u002A,21*%
%TO.N,/A10*%
X142240000Y-71120000D03*
%TO.P,REF\u002A\u002A,22*%
%TO.N,/A9*%
X139700000Y-71120000D03*
%TO.P,REF\u002A\u002A,23*%
%TO.N,/A8*%
X137160000Y-71120000D03*
%TO.P,REF\u002A\u002A,24*%
%TO.N,/A7*%
X134620000Y-71120000D03*
%TO.P,REF\u002A\u002A,25*%
%TO.N,/A6*%
X132080000Y-71120000D03*
%TO.P,REF\u002A\u002A,26*%
%TO.N,/A5*%
X129540000Y-71120000D03*
%TO.P,REF\u002A\u002A,27*%
%TO.N,/A4*%
X127000000Y-71120000D03*
%TO.P,REF\u002A\u002A,28*%
%TO.N,/A3*%
X124460000Y-71120000D03*
%TO.P,REF\u002A\u002A,29*%
%TO.N,/A2*%
X121920000Y-71120000D03*
%TO.P,REF\u002A\u002A,30*%
%TO.N,/A1*%
X119380000Y-71120000D03*
%TO.P,REF\u002A\u002A,31*%
%TO.N,/A0*%
X116840000Y-71120000D03*
%TD*%
D15*
%TO.P,BUS1,1,GND*%
%TO.N,GND*%
X193040000Y-135382000D03*
X193040000Y-135382000D03*
%TO.P,BUS1,2,RESET*%
%TO.N,/RSTDRV*%
X190500000Y-135382000D03*
%TO.P,BUS1,3,VCC*%
%TO.N,VCC*%
X187960000Y-135382000D03*
%TO.P,BUS1,4,IRQ2*%
%TO.N,/IRQ2*%
X185420000Y-135382000D03*
%TO.P,BUS1,5,-5V*%
%TO.N,/-5V*%
X182880000Y-135382000D03*
%TO.P,BUS1,6,DRQ2*%
%TO.N,/DRQ2*%
X180340000Y-135382000D03*
%TO.P,BUS1,7,-12V*%
%TO.N,/-12V*%
X177800000Y-135382000D03*
%TO.P,BUS1,8,UNUSED*%
%TO.N,/UNUSED*%
X175260000Y-135382000D03*
%TO.P,BUS1,9,+12V*%
%TO.N,+12V*%
X172720000Y-135382000D03*
%TO.P,BUS1,10,GND*%
%TO.N,GND*%
X170180000Y-135382000D03*
%TO.P,BUS1,11,MEMW*%
%TO.N,/~{MEMW}*%
X167640000Y-135382000D03*
%TO.P,BUS1,12,MEMR*%
%TO.N,/~{MEMR}*%
X165100000Y-135382000D03*
%TO.P,BUS1,13,IOW*%
%TO.N,/~{IOW}*%
X162560000Y-135382000D03*
%TO.P,BUS1,14,IOR*%
%TO.N,/~{IOR}*%
X160020000Y-135382000D03*
%TO.P,BUS1,15,DACK3*%
%TO.N,/DACK3*%
X157480000Y-135382000D03*
%TO.P,BUS1,16,DRQ3*%
%TO.N,/DRQ3*%
X154940000Y-135382000D03*
%TO.P,BUS1,17,DACK1*%
%TO.N,/DACK1*%
X152400000Y-135382000D03*
%TO.P,BUS1,18,DRQ1*%
%TO.N,/DRQ1*%
X149860000Y-135382000D03*
%TO.P,BUS1,19,DACK0*%
%TO.N,/DACK10*%
X147320000Y-135382000D03*
%TO.P,BUS1,20,CLK*%
%TO.N,/CLK*%
X144780000Y-135382000D03*
%TO.P,BUS1,21,IRQ7*%
%TO.N,/IRQ7*%
X142240000Y-135382000D03*
%TO.P,BUS1,22,IRQ6*%
%TO.N,/IRQ6*%
X139700000Y-135382000D03*
%TO.P,BUS1,23,IRQ5*%
%TO.N,/IRQ5*%
X137160000Y-135382000D03*
%TO.P,BUS1,24,IRQ4*%
%TO.N,/IRQ4*%
X134620000Y-135382000D03*
%TO.P,BUS1,25,IRQ3*%
%TO.N,/IRQ3*%
X132080000Y-135382000D03*
%TO.P,BUS1,26,DACK2*%
%TO.N,/DACK2*%
X129540000Y-135382000D03*
%TO.P,BUS1,27,TC*%
%TO.N,/TC*%
X127000000Y-135382000D03*
%TO.P,BUS1,28,ALE*%
%TO.N,/ALE*%
X124460000Y-135382000D03*
%TO.P,BUS1,29,VCC*%
%TO.N,VCC*%
X121920000Y-135382000D03*
%TO.P,BUS1,30,OSC*%
%TO.N,/OCS*%
X119380000Y-135382000D03*
%TO.P,BUS1,31,GND*%
%TO.N,GND*%
X116840000Y-135382000D03*
%TD*%
D16*
%TO.P,100\u00B5F,1*%
%TO.N,VCC*%
X119380000Y-76200000D03*
D14*
%TO.P,100\u00B5F,2*%
%TO.N,GND*%
X116880000Y-76200000D03*
%TD*%
D11*
%TO.P,REF\u002A\u002A,1*%
%TO.N,GND*%
X193040000Y-66040000D03*
D12*
%TO.P,REF\u002A\u002A,2*%
%TO.N,/RSTDRV*%
X190500000Y-66040000D03*
%TO.P,REF\u002A\u002A,3*%
%TO.N,VCC*%
X187960000Y-66040000D03*
%TO.P,REF\u002A\u002A,4*%
%TO.N,/IRQ2*%
X185420000Y-66040000D03*
%TO.P,REF\u002A\u002A,5*%
%TO.N,/-5V*%
X182880000Y-66040000D03*
%TO.P,REF\u002A\u002A,6*%
%TO.N,/DRQ2*%
X180340000Y-66040000D03*
%TO.P,REF\u002A\u002A,7*%
%TO.N,/-12V*%
X177800000Y-66040000D03*
%TO.P,REF\u002A\u002A,8*%
%TO.N,/UNUSED*%
X175260000Y-66040000D03*
%TO.P,REF\u002A\u002A,9*%
%TO.N,+12V*%
X172720000Y-66040000D03*
%TO.P,REF\u002A\u002A,10*%
%TO.N,GND*%
X170180000Y-66040000D03*
%TO.P,REF\u002A\u002A,11*%
%TO.N,/~{MEMW}*%
X167640000Y-66040000D03*
%TO.P,REF\u002A\u002A,12*%
%TO.N,/~{MEMR}*%
X165100000Y-66040000D03*
%TO.P,REF\u002A\u002A,13*%
%TO.N,/~{IOW}*%
X162560000Y-66040000D03*
%TO.P,REF\u002A\u002A,14*%
%TO.N,/~{IOR}*%
X160020000Y-66040000D03*
%TO.P,REF\u002A\u002A,15*%
%TO.N,/DACK3*%
X157480000Y-66040000D03*
%TO.P,REF\u002A\u002A,16*%
%TO.N,/DRQ3*%
X154940000Y-66040000D03*
%TO.P,REF\u002A\u002A,17*%
%TO.N,/DACK1*%
X152400000Y-66040000D03*
%TO.P,REF\u002A\u002A,18*%
%TO.N,/DRQ1*%
X149860000Y-66040000D03*
%TO.P,REF\u002A\u002A,19*%
%TO.N,/DACK10*%
X147320000Y-66040000D03*
%TO.P,REF\u002A\u002A,20*%
%TO.N,/CLK*%
X144780000Y-66040000D03*
%TO.P,REF\u002A\u002A,21*%
%TO.N,/IRQ7*%
X142240000Y-66040000D03*
%TO.P,REF\u002A\u002A,22*%
%TO.N,/IRQ6*%
X139700000Y-66040000D03*
%TO.P,REF\u002A\u002A,23*%
%TO.N,/IRQ5*%
X137160000Y-66040000D03*
%TO.P,REF\u002A\u002A,24*%
%TO.N,/IRQ4*%
X134620000Y-66040000D03*
%TO.P,REF\u002A\u002A,25*%
%TO.N,/IRQ3*%
X132080000Y-66040000D03*
%TO.P,REF\u002A\u002A,26*%
%TO.N,/DACK2*%
X129540000Y-66040000D03*
%TO.P,REF\u002A\u002A,27*%
%TO.N,/TC*%
X127000000Y-66040000D03*
%TO.P,REF\u002A\u002A,28*%
%TO.N,/ALE*%
X124460000Y-66040000D03*
%TO.P,REF\u002A\u002A,29*%
%TO.N,VCC*%
X121920000Y-66040000D03*
%TO.P,REF\u002A\u002A,30*%
%TO.N,/OCS*%
X119380000Y-66040000D03*
%TO.P,REF\u002A\u002A,31*%
%TO.N,GND*%
X116840000Y-66040000D03*
%TD*%
D16*
%TO.P,100\u00B5F,1*%
%TO.N,VCC*%
X120650000Y-96520000D03*
D14*
%TO.P,100\u00B5F,2*%
%TO.N,GND*%
X118150000Y-96520000D03*
%TD*%
D13*
%TO.P,100\u00B5F,1*%
%TO.N,VCC*%
X189270000Y-96520000D03*
D14*
%TO.P,100\u00B5F,2*%
%TO.N,GND*%
X191770000Y-96520000D03*
%TD*%
D11*
%TO.P,REF\u002A\u002A,1*%
%TO.N,GND*%
X193040000Y-45720000D03*
D12*
%TO.P,REF\u002A\u002A,2*%
%TO.N,/RSTDRV*%
X190500000Y-45720000D03*
%TO.P,REF\u002A\u002A,3*%
%TO.N,VCC*%
X187960000Y-45720000D03*
%TO.P,REF\u002A\u002A,4*%
%TO.N,/IRQ2*%
X185420000Y-45720000D03*
%TO.P,REF\u002A\u002A,5*%
%TO.N,/-5V*%
X182880000Y-45720000D03*
%TO.P,REF\u002A\u002A,6*%
%TO.N,/DRQ2*%
X180340000Y-45720000D03*
%TO.P,REF\u002A\u002A,7*%
%TO.N,/-12V*%
X177800000Y-45720000D03*
%TO.P,REF\u002A\u002A,8*%
%TO.N,/UNUSED*%
X175260000Y-45720000D03*
%TO.P,REF\u002A\u002A,9*%
%TO.N,+12V*%
X172720000Y-45720000D03*
%TO.P,REF\u002A\u002A,10*%
%TO.N,GND*%
X170180000Y-45720000D03*
%TO.P,REF\u002A\u002A,11*%
%TO.N,/~{MEMW}*%
X167640000Y-45720000D03*
%TO.P,REF\u002A\u002A,12*%
%TO.N,/~{MEMR}*%
X165100000Y-45720000D03*
%TO.P,REF\u002A\u002A,13*%
%TO.N,/~{IOW}*%
X162560000Y-45720000D03*
%TO.P,REF\u002A\u002A,14*%
%TO.N,/~{IOR}*%
X160020000Y-45720000D03*
%TO.P,REF\u002A\u002A,15*%
%TO.N,/DACK3*%
X157480000Y-45720000D03*
%TO.P,REF\u002A\u002A,16*%
%TO.N,/DRQ3*%
X154940000Y-45720000D03*
%TO.P,REF\u002A\u002A,17*%
%TO.N,/DACK1*%
X152400000Y-45720000D03*
%TO.P,REF\u002A\u002A,18*%
%TO.N,/DRQ1*%
X149860000Y-45720000D03*
%TO.P,REF\u002A\u002A,19*%
%TO.N,/DACK10*%
X147320000Y-45720000D03*
%TO.P,REF\u002A\u002A,20*%
%TO.N,/CLK*%
X144780000Y-45720000D03*
%TO.P,REF\u002A\u002A,21*%
%TO.N,/IRQ7*%
X142240000Y-45720000D03*
%TO.P,REF\u002A\u002A,22*%
%TO.N,/IRQ6*%
X139700000Y-45720000D03*
%TO.P,REF\u002A\u002A,23*%
%TO.N,/IRQ5*%
X137160000Y-45720000D03*
%TO.P,REF\u002A\u002A,24*%
%TO.N,/IRQ4*%
X134620000Y-45720000D03*
%TO.P,REF\u002A\u002A,25*%
%TO.N,/IRQ3*%
X132080000Y-45720000D03*
%TO.P,REF\u002A\u002A,26*%
%TO.N,/DACK2*%
X129540000Y-45720000D03*
%TO.P,REF\u002A\u002A,27*%
%TO.N,/TC*%
X127000000Y-45720000D03*
%TO.P,REF\u002A\u002A,28*%
%TO.N,/ALE*%
X124460000Y-45720000D03*
%TO.P,REF\u002A\u002A,29*%
%TO.N,VCC*%
X121920000Y-45720000D03*
%TO.P,REF\u002A\u002A,30*%
%TO.N,/OCS*%
X119380000Y-45720000D03*
%TO.P,REF\u002A\u002A,31*%
%TO.N,GND*%
X116840000Y-45720000D03*
%TD*%
D13*
%TO.P,100\u00B5F,1*%
%TO.N,VCC*%
X188000000Y-55880000D03*
D14*
%TO.P,100\u00B5F,2*%
%TO.N,GND*%
X190500000Y-55880000D03*
%TD*%
D10*
%TO.P,,22*%
%TO.N,+12V*%
X101381560Y-59461400D03*
%TD*%
%TO.P,,21*%
%TO.N,VCC*%
X106883200Y-59461400D03*
%TD*%
D11*
%TO.P,REF\u002A\u002A,1*%
%TO.N,/IO_CH_CK*%
X193040000Y-91440000D03*
D12*
%TO.P,REF\u002A\u002A,2*%
%TO.N,/D7*%
X190500000Y-91440000D03*
%TO.P,REF\u002A\u002A,3*%
%TO.N,/D6*%
X187960000Y-91440000D03*
%TO.P,REF\u002A\u002A,4*%
%TO.N,/D5*%
X185420000Y-91440000D03*
%TO.P,REF\u002A\u002A,5*%
%TO.N,/D4*%
X182880000Y-91440000D03*
%TO.P,REF\u002A\u002A,6*%
%TO.N,/D3*%
X180340000Y-91440000D03*
%TO.P,REF\u002A\u002A,7*%
%TO.N,/D2*%
X177800000Y-91440000D03*
%TO.P,REF\u002A\u002A,8*%
%TO.N,/D1*%
X175260000Y-91440000D03*
%TO.P,REF\u002A\u002A,9*%
%TO.N,/D0*%
X172720000Y-91440000D03*
%TO.P,REF\u002A\u002A,10*%
%TO.N,/IO_READY*%
X170180000Y-91440000D03*
%TO.P,REF\u002A\u002A,11*%
%TO.N,/AEN*%
X167640000Y-91440000D03*
%TO.P,REF\u002A\u002A,12*%
%TO.N,/A19*%
X165100000Y-91440000D03*
%TO.P,REF\u002A\u002A,13*%
%TO.N,/A18*%
X162560000Y-91440000D03*
%TO.P,REF\u002A\u002A,14*%
%TO.N,/A17*%
X160020000Y-91440000D03*
%TO.P,REF\u002A\u002A,15*%
%TO.N,/A16*%
X157480000Y-91440000D03*
%TO.P,REF\u002A\u002A,16*%
%TO.N,/A15*%
X154940000Y-91440000D03*
%TO.P,REF\u002A\u002A,17*%
%TO.N,/A14*%
X152400000Y-91440000D03*
%TO.P,REF\u002A\u002A,18*%
%TO.N,/A13*%
X149860000Y-91440000D03*
%TO.P,REF\u002A\u002A,19*%
%TO.N,/A12*%
X147320000Y-91440000D03*
%TO.P,REF\u002A\u002A,20*%
%TO.N,/A11*%
X144780000Y-91440000D03*
%TO.P,REF\u002A\u002A,21*%
%TO.N,/A10*%
X142240000Y-91440000D03*
%TO.P,REF\u002A\u002A,22*%
%TO.N,/A9*%
X139700000Y-91440000D03*
%TO.P,REF\u002A\u002A,23*%
%TO.N,/A8*%
X137160000Y-91440000D03*
%TO.P,REF\u002A\u002A,24*%
%TO.N,/A7*%
X134620000Y-91440000D03*
%TO.P,REF\u002A\u002A,25*%
%TO.N,/A6*%
X132080000Y-91440000D03*
%TO.P,REF\u002A\u002A,26*%
%TO.N,/A5*%
X129540000Y-91440000D03*
%TO.P,REF\u002A\u002A,27*%
%TO.N,/A4*%
X127000000Y-91440000D03*
%TO.P,REF\u002A\u002A,28*%
%TO.N,/A3*%
X124460000Y-91440000D03*
%TO.P,REF\u002A\u002A,29*%
%TO.N,/A2*%
X121920000Y-91440000D03*
%TO.P,REF\u002A\u002A,30*%
%TO.N,/A1*%
X119380000Y-91440000D03*
%TO.P,REF\u002A\u002A,31*%
%TO.N,/A0*%
X116840000Y-91440000D03*
%TD*%
D10*
%TO.P,,23*%
%TO.N,GND*%
X106883200Y-55270400D03*
%TD*%
D16*
%TO.P,100\u00B5F,1*%
%TO.N,VCC*%
X119380000Y-55880000D03*
D14*
%TO.P,100\u00B5F,2*%
%TO.N,GND*%
X116880000Y-55880000D03*
%TD*%
D11*
%TO.P,REF\u002A\u002A,1*%
%TO.N,GND*%
X193040000Y-86360000D03*
D12*
%TO.P,REF\u002A\u002A,2*%
%TO.N,/RSTDRV*%
X190500000Y-86360000D03*
%TO.P,REF\u002A\u002A,3*%
%TO.N,VCC*%
X187960000Y-86360000D03*
%TO.P,REF\u002A\u002A,4*%
%TO.N,/IRQ2*%
X185420000Y-86360000D03*
%TO.P,REF\u002A\u002A,5*%
%TO.N,/-5V*%
X182880000Y-86360000D03*
%TO.P,REF\u002A\u002A,6*%
%TO.N,/DRQ2*%
X180340000Y-86360000D03*
%TO.P,REF\u002A\u002A,7*%
%TO.N,/-12V*%
X177800000Y-86360000D03*
%TO.P,REF\u002A\u002A,8*%
%TO.N,/UNUSED*%
X175260000Y-86360000D03*
%TO.P,REF\u002A\u002A,9*%
%TO.N,+12V*%
X172720000Y-86360000D03*
%TO.P,REF\u002A\u002A,10*%
%TO.N,GND*%
X170180000Y-86360000D03*
%TO.P,REF\u002A\u002A,11*%
%TO.N,/~{MEMW}*%
X167640000Y-86360000D03*
%TO.P,REF\u002A\u002A,12*%
%TO.N,/~{MEMR}*%
X165100000Y-86360000D03*
%TO.P,REF\u002A\u002A,13*%
%TO.N,/~{IOW}*%
X162560000Y-86360000D03*
%TO.P,REF\u002A\u002A,14*%
%TO.N,/~{IOR}*%
X160020000Y-86360000D03*
%TO.P,REF\u002A\u002A,15*%
%TO.N,/DACK3*%
X157480000Y-86360000D03*
%TO.P,REF\u002A\u002A,16*%
%TO.N,/DRQ3*%
X154940000Y-86360000D03*
%TO.P,REF\u002A\u002A,17*%
%TO.N,/DACK1*%
X152400000Y-86360000D03*
%TO.P,REF\u002A\u002A,18*%
%TO.N,/DRQ1*%
X149860000Y-86360000D03*
%TO.P,REF\u002A\u002A,19*%
%TO.N,/DACK10*%
X147320000Y-86360000D03*
%TO.P,REF\u002A\u002A,20*%
%TO.N,/CLK*%
X144780000Y-86360000D03*
%TO.P,REF\u002A\u002A,21*%
%TO.N,/IRQ7*%
X142240000Y-86360000D03*
%TO.P,REF\u002A\u002A,22*%
%TO.N,/IRQ6*%
X139700000Y-86360000D03*
%TO.P,REF\u002A\u002A,23*%
%TO.N,/IRQ5*%
X137160000Y-86360000D03*
%TO.P,REF\u002A\u002A,24*%
%TO.N,/IRQ4*%
X134620000Y-86360000D03*
%TO.P,REF\u002A\u002A,25*%
%TO.N,/IRQ3*%
X132080000Y-86360000D03*
%TO.P,REF\u002A\u002A,26*%
%TO.N,/DACK2*%
X129540000Y-86360000D03*
%TO.P,REF\u002A\u002A,27*%
%TO.N,/TC*%
X127000000Y-86360000D03*
%TO.P,REF\u002A\u002A,28*%
%TO.N,/ALE*%
X124460000Y-86360000D03*
%TO.P,REF\u002A\u002A,29*%
%TO.N,VCC*%
X121920000Y-86360000D03*
%TO.P,REF\u002A\u002A,30*%
%TO.N,/OCS*%
X119380000Y-86360000D03*
%TO.P,REF\u002A\u002A,31*%
%TO.N,GND*%
X116840000Y-86360000D03*
%TD*%
D17*
%TO.N,+12V*%
X172720000Y-39370000D03*
%TO.N,/-12V*%
X111760000Y-41910000D03*
%TD*%
D18*
%TO.N,/~{IOR}*%
X160020000Y-66040000D02*
X160020000Y-53340000D01*
X160020000Y-53340000D02*
X158750000Y-52070000D01*
X160020000Y-86360000D02*
X160020000Y-73660000D01*
X160020000Y-135382000D02*
X160020000Y-95250000D01*
X160020000Y-46990000D02*
X160020000Y-45720000D01*
X158750000Y-52070000D02*
X158750000Y-48260000D01*
X158750000Y-68580000D02*
X160020000Y-67310000D01*
X160020000Y-95250000D02*
X158750000Y-93980000D01*
X158750000Y-93980000D02*
X158750000Y-88900000D01*
X158750000Y-48260000D02*
X160020000Y-46990000D01*
X160020000Y-87630000D02*
X160020000Y-86360000D01*
X158750000Y-88900000D02*
X160020000Y-87630000D01*
X160020000Y-73660000D02*
X158750000Y-72390000D01*
X158750000Y-72390000D02*
X158750000Y-68580000D01*
X160020000Y-67310000D02*
X160020000Y-66040000D01*
D19*
%TO.N,GND*%
X114300000Y-76200000D02*
X114300000Y-66040000D01*
D20*
X170180000Y-53340000D02*
X168910000Y-52070000D01*
D19*
X114300000Y-45720000D02*
X116840000Y-45720000D01*
X193040000Y-107950000D02*
X196850000Y-104140000D01*
D20*
X168910000Y-88900000D02*
X170180000Y-87630000D01*
D19*
X196850000Y-96520000D02*
X191770000Y-96520000D01*
X196850000Y-86360000D02*
X193040000Y-86360000D01*
X114300000Y-92710000D02*
X116840000Y-95250000D01*
X116840000Y-95250000D02*
X116840000Y-96520000D01*
D21*
X193040000Y-135382000D02*
X193040000Y-107950000D01*
D19*
X114300000Y-86360000D02*
X116840000Y-86360000D01*
D20*
X170180000Y-73660000D02*
X168910000Y-72390000D01*
X170180000Y-87630000D02*
X170180000Y-86360000D01*
D19*
X196850000Y-46990000D02*
X195580000Y-45720000D01*
D20*
X168910000Y-48260000D02*
X170180000Y-46990000D01*
D19*
X114300000Y-76200000D02*
X116880000Y-76200000D01*
X114300000Y-86360000D02*
X114300000Y-76200000D01*
X114300000Y-55880000D02*
X114300000Y-45720000D01*
X196850000Y-86360000D02*
X196850000Y-76200000D01*
X196850000Y-66040000D02*
X196850000Y-55880000D01*
D20*
X168910000Y-72390000D02*
X168910000Y-68580000D01*
X170180000Y-67310000D02*
X170180000Y-66040000D01*
D19*
X114300000Y-66040000D02*
X116840000Y-66040000D01*
D20*
X170180000Y-95250000D02*
X168910000Y-93980000D01*
D19*
X196850000Y-104140000D02*
X196850000Y-96520000D01*
X196850000Y-66040000D02*
X193040000Y-66040000D01*
D20*
X170180000Y-86360000D02*
X170180000Y-73660000D01*
D21*
X116840000Y-96520000D02*
X116840000Y-135382000D01*
D19*
X114300000Y-86360000D02*
X114300000Y-92710000D01*
X195580000Y-45720000D02*
X193040000Y-45720000D01*
D20*
X170180000Y-46990000D02*
X170180000Y-45720000D01*
D19*
X196850000Y-76200000D02*
X190460000Y-76200000D01*
D20*
X168910000Y-52070000D02*
X168910000Y-48260000D01*
X168910000Y-93980000D02*
X168910000Y-88900000D01*
D19*
X196850000Y-96520000D02*
X196850000Y-86360000D01*
X196850000Y-76200000D02*
X196850000Y-66040000D01*
X196850000Y-55880000D02*
X190500000Y-55880000D01*
X196850000Y-55880000D02*
X196850000Y-46990000D01*
X114300000Y-66040000D02*
X114300000Y-55880000D01*
D20*
X168910000Y-68580000D02*
X170180000Y-67310000D01*
D19*
X116840000Y-96520000D02*
X118150000Y-96520000D01*
X114300000Y-55880000D02*
X116880000Y-55880000D01*
D21*
X170180000Y-135382000D02*
X170180000Y-95250000D01*
D20*
X170180000Y-66040000D02*
X170180000Y-53340000D01*
D18*
%TO.N,/~{MEMR}*%
X165100000Y-46990000D02*
X165100000Y-45720000D01*
X163830000Y-68580000D02*
X165100000Y-67310000D01*
X163830000Y-93980000D02*
X163830000Y-88900000D01*
X165100000Y-67310000D02*
X165100000Y-66040000D01*
X163830000Y-88900000D02*
X165100000Y-87630000D01*
X165100000Y-87630000D02*
X165100000Y-86360000D01*
X163830000Y-52070000D02*
X163830000Y-48260000D01*
X165100000Y-73660000D02*
X163830000Y-72390000D01*
X163830000Y-72390000D02*
X163830000Y-68580000D01*
X165100000Y-95250000D02*
X163830000Y-93980000D01*
X165100000Y-66040000D02*
X165100000Y-53340000D01*
X165100000Y-135382000D02*
X165100000Y-95250000D01*
X165100000Y-86360000D02*
X165100000Y-73660000D01*
X165100000Y-53340000D02*
X163830000Y-52070000D01*
X163830000Y-48260000D02*
X165100000Y-46990000D01*
D19*
%TO.N,VCC*%
X104140000Y-81280000D02*
X104140000Y-88900000D01*
D20*
X186690000Y-48260000D02*
X187960000Y-46990000D01*
X186690000Y-93980000D02*
X186690000Y-88900000D01*
D19*
X109194600Y-57150000D02*
X109220000Y-57150000D01*
X106680000Y-105410000D02*
X110490000Y-105410000D01*
D20*
X119380000Y-73660000D02*
X119380000Y-83820000D01*
D19*
X112395000Y-103505000D02*
X112395000Y-69215000D01*
D20*
X187960000Y-46990000D02*
X187960000Y-45720000D01*
X120650000Y-68580000D02*
X121920000Y-67310000D01*
D19*
X104140000Y-88900000D02*
X104140000Y-104140000D01*
D20*
X186690000Y-72390000D02*
X186690000Y-68580000D01*
D19*
X101389180Y-80449420D02*
X103309420Y-80449420D01*
D20*
X120650000Y-48260000D02*
X120650000Y-52070000D01*
D19*
X120650000Y-43180000D02*
X121920000Y-44450000D01*
D20*
X121920000Y-67310000D02*
X121920000Y-66040000D01*
X121920000Y-87630000D02*
X121920000Y-86360000D01*
X187960000Y-86360000D02*
X187960000Y-73660000D01*
D19*
X112395000Y-69215000D02*
X111031020Y-67851020D01*
D20*
X187960000Y-66040000D02*
X187960000Y-53340000D01*
D19*
X106890820Y-59469020D02*
X106883200Y-59461400D01*
D20*
X119380000Y-83820000D02*
X121920000Y-86360000D01*
D19*
X109220000Y-45720000D02*
X111760000Y-43180000D01*
D20*
X120650000Y-88900000D02*
X121920000Y-87630000D01*
D19*
X110490000Y-105410000D02*
X112395000Y-103505000D01*
D20*
X120650000Y-93980000D02*
X120650000Y-88900000D01*
X121920000Y-96520000D02*
X120650000Y-96520000D01*
X187960000Y-53340000D02*
X186690000Y-52070000D01*
X121920000Y-135382000D02*
X121920000Y-104140000D01*
D19*
X121920000Y-44450000D02*
X121920000Y-45720000D01*
D20*
X121920000Y-104140000D02*
X121920000Y-96520000D01*
D19*
X106883200Y-59461400D02*
X109194600Y-57150000D01*
D20*
X186690000Y-68580000D02*
X187960000Y-67310000D01*
D19*
X103309420Y-80449420D02*
X104140000Y-81280000D01*
D20*
X186690000Y-52070000D02*
X186690000Y-48260000D01*
X119380000Y-53340000D02*
X119380000Y-63500000D01*
X121920000Y-46990000D02*
X120650000Y-48260000D01*
D19*
X101339760Y-80400000D02*
X101389180Y-80449420D01*
D20*
X186690000Y-88900000D02*
X187960000Y-87630000D01*
X121920000Y-45720000D02*
X121920000Y-46990000D01*
X187960000Y-87630000D02*
X187960000Y-86360000D01*
X120650000Y-72390000D02*
X119380000Y-73660000D01*
D19*
X104089200Y-88849200D02*
X104140000Y-88900000D01*
D20*
X187960000Y-135382000D02*
X187960000Y-104140000D01*
D19*
X111760000Y-43180000D02*
X120650000Y-43180000D01*
X104140000Y-104140000D02*
X105410000Y-105410000D01*
D20*
X187960000Y-67310000D02*
X187960000Y-66040000D01*
X119380000Y-63500000D02*
X121920000Y-66040000D01*
X120650000Y-52070000D02*
X119380000Y-53340000D01*
D19*
X101389180Y-88849200D02*
X104089200Y-88849200D01*
D20*
X120650000Y-72390000D02*
X120650000Y-68580000D01*
D19*
X106890820Y-63649860D02*
X106890820Y-59469020D01*
D20*
X187960000Y-96520000D02*
X187960000Y-95250000D01*
D19*
X111031020Y-67851020D02*
X106890820Y-67851020D01*
D20*
X121920000Y-96520000D02*
X121920000Y-95250000D01*
X187960000Y-96520000D02*
X189270000Y-96520000D01*
X187960000Y-95250000D02*
X186690000Y-93980000D01*
X121920000Y-95250000D02*
X120650000Y-93980000D01*
D19*
X109220000Y-57150000D02*
X109220000Y-45720000D01*
X105410000Y-105410000D02*
X106680000Y-105410000D01*
D20*
X187960000Y-104140000D02*
X187960000Y-96520000D01*
X187960000Y-73660000D02*
X186690000Y-72390000D01*
D19*
X106890820Y-63649860D02*
X106890820Y-67851020D01*
D18*
%TO.N,/~{MEMW}*%
X167640000Y-73660000D02*
X166370000Y-72390000D01*
X167640000Y-86360000D02*
X167640000Y-73660000D01*
X167640000Y-87630000D02*
X167640000Y-86360000D01*
X167640000Y-66040000D02*
X167640000Y-53340000D01*
X167640000Y-53340000D02*
X166370000Y-52070000D01*
X166370000Y-88900000D02*
X167640000Y-87630000D01*
X167640000Y-46990000D02*
X167640000Y-45720000D01*
X167640000Y-67310000D02*
X167640000Y-66040000D01*
X166370000Y-68580000D02*
X167640000Y-67310000D01*
X166370000Y-72390000D02*
X166370000Y-68580000D01*
X166370000Y-52070000D02*
X166370000Y-48260000D01*
X167640000Y-135382000D02*
X167640000Y-95250000D01*
X167640000Y-95250000D02*
X166370000Y-93980000D01*
X166370000Y-48260000D02*
X167640000Y-46990000D01*
X166370000Y-93980000D02*
X166370000Y-88900000D01*
%TO.N,/RSTDRV*%
X190500000Y-95250000D02*
X189230000Y-93980000D01*
X189230000Y-93980000D02*
X189230000Y-88900000D01*
X190500000Y-64770000D02*
X190500000Y-66040000D01*
X189230000Y-48260000D02*
X189230000Y-63500000D01*
X189230000Y-88900000D02*
X190500000Y-87630000D01*
X190500000Y-135382000D02*
X190500000Y-95250000D01*
X190500000Y-67310000D02*
X189230000Y-68580000D01*
X189230000Y-63500000D02*
X190500000Y-64770000D01*
X190500000Y-45720000D02*
X190500000Y-46990000D01*
X190500000Y-87630000D02*
X190500000Y-86360000D01*
X189230000Y-68580000D02*
X189230000Y-83820000D01*
X190500000Y-85090000D02*
X190500000Y-86360000D01*
X190500000Y-66040000D02*
X190500000Y-67310000D01*
X189230000Y-83820000D02*
X190500000Y-85090000D01*
X190500000Y-46990000D02*
X189230000Y-48260000D01*
%TO.N,/~{IOW}*%
X161290000Y-88900000D02*
X162560000Y-87630000D01*
X162560000Y-66040000D02*
X162560000Y-53340000D01*
X162560000Y-53340000D02*
X161290000Y-52070000D01*
X161290000Y-48260000D02*
X162560000Y-46990000D01*
X162560000Y-46990000D02*
X162560000Y-45720000D01*
X161290000Y-93980000D02*
X161290000Y-88900000D01*
X162560000Y-86360000D02*
X162560000Y-73660000D01*
X162560000Y-67310000D02*
X162560000Y-66040000D01*
X162560000Y-87630000D02*
X162560000Y-86360000D01*
X161290000Y-68580000D02*
X162560000Y-67310000D01*
X161290000Y-72390000D02*
X161290000Y-68580000D01*
X161290000Y-52070000D02*
X161290000Y-48260000D01*
X162560000Y-135382000D02*
X162560000Y-95250000D01*
X162560000Y-95250000D02*
X161290000Y-93980000D01*
X162560000Y-73660000D02*
X161290000Y-72390000D01*
D19*
%TO.N,+12V*%
X101389180Y-63649860D02*
X100479860Y-63649860D01*
D20*
X172720000Y-67310000D02*
X172720000Y-66040000D01*
D19*
X101381560Y-59461400D02*
X101381560Y-63642240D01*
D20*
X172720000Y-66040000D02*
X172720000Y-53340000D01*
X171450000Y-68580000D02*
X172720000Y-67310000D01*
X172720000Y-53340000D02*
X171450000Y-52070000D01*
X172720000Y-95250000D02*
X171450000Y-93980000D01*
X172720000Y-86360000D02*
X172720000Y-73660000D01*
X171450000Y-88900000D02*
X172720000Y-87630000D01*
X172720000Y-135382000D02*
X172720000Y-95250000D01*
D19*
X99060000Y-41910000D02*
X101600000Y-39370000D01*
D20*
X172720000Y-87630000D02*
X172720000Y-86360000D01*
X172720000Y-73660000D02*
X171450000Y-72390000D01*
X171450000Y-48260000D02*
X172720000Y-46990000D01*
D19*
X99060000Y-57150000D02*
X99060000Y-41910000D01*
D18*
X101381560Y-63642240D02*
X101389180Y-63649860D01*
D19*
X101600000Y-39370000D02*
X172720000Y-39370000D01*
D20*
X171450000Y-72390000D02*
X171450000Y-68580000D01*
X172720000Y-46990000D02*
X172720000Y-45720000D01*
D19*
X99060000Y-57150000D02*
X99070160Y-57150000D01*
X99070160Y-57150000D02*
X101381560Y-59461400D01*
D20*
X171450000Y-52070000D02*
X171450000Y-48260000D01*
X171450000Y-93980000D02*
X171450000Y-88900000D01*
D18*
%TO.N,/IRQ2*%
X185420000Y-73660000D02*
X184150000Y-72390000D01*
X184150000Y-68580000D02*
X185420000Y-67310000D01*
X185420000Y-46990000D02*
X185420000Y-45720000D01*
X185420000Y-87630000D02*
X185420000Y-86360000D01*
X185420000Y-67310000D02*
X185420000Y-66040000D01*
X184150000Y-72390000D02*
X184150000Y-68580000D01*
X184150000Y-93980000D02*
X184150000Y-88900000D01*
X185420000Y-66040000D02*
X185420000Y-53340000D01*
X185420000Y-135382000D02*
X185420000Y-95250000D01*
X185420000Y-86360000D02*
X185420000Y-73660000D01*
X184150000Y-52070000D02*
X184150000Y-48260000D01*
X184150000Y-48260000D02*
X185420000Y-46990000D01*
X185420000Y-95250000D02*
X184150000Y-93980000D01*
X184150000Y-88900000D02*
X185420000Y-87630000D01*
X185420000Y-53340000D02*
X184150000Y-52070000D01*
%TO.N,/DACK10*%
X146050000Y-48260000D02*
X147320000Y-46990000D01*
X147320000Y-67310000D02*
X147320000Y-66040000D01*
X146050000Y-68580000D02*
X147320000Y-67310000D01*
X146050000Y-72390000D02*
X146050000Y-68580000D01*
X146050000Y-52070000D02*
X146050000Y-48260000D01*
X147320000Y-135382000D02*
X147320000Y-95250000D01*
X147320000Y-95250000D02*
X146050000Y-93980000D01*
X147320000Y-86360000D02*
X147320000Y-73660000D01*
X147320000Y-53340000D02*
X146050000Y-52070000D01*
X147320000Y-87630000D02*
X147320000Y-86360000D01*
X147320000Y-46990000D02*
X147320000Y-45720000D01*
X147320000Y-73660000D02*
X146050000Y-72390000D01*
X146050000Y-93980000D02*
X146050000Y-88900000D01*
X146050000Y-88900000D02*
X147320000Y-87630000D01*
X147320000Y-66040000D02*
X147320000Y-53340000D01*
%TO.N,/IRQ3*%
X130810000Y-72390000D02*
X130810000Y-68580000D01*
X130810000Y-93980000D02*
X130810000Y-88900000D01*
X132080000Y-95250000D02*
X130810000Y-93980000D01*
X132080000Y-86360000D02*
X132080000Y-73660000D01*
X132080000Y-46990000D02*
X132080000Y-45720000D01*
X132080000Y-135382000D02*
X132080000Y-95250000D01*
X130810000Y-48260000D02*
X132080000Y-46990000D01*
X130810000Y-88900000D02*
X132080000Y-87630000D01*
X132080000Y-53340000D02*
X130810000Y-52070000D01*
X130810000Y-52070000D02*
X130810000Y-48260000D01*
X132080000Y-67310000D02*
X132080000Y-66040000D01*
X132080000Y-73660000D02*
X130810000Y-72390000D01*
X132080000Y-87630000D02*
X132080000Y-86360000D01*
X132080000Y-66040000D02*
X132080000Y-53340000D01*
X130810000Y-68580000D02*
X132080000Y-67310000D01*
%TO.N,/CLK*%
X144780000Y-95250000D02*
X143510000Y-93980000D01*
X144780000Y-46990000D02*
X144780000Y-45720000D01*
X143510000Y-88900000D02*
X144780000Y-87630000D01*
X144780000Y-67310000D02*
X144780000Y-66040000D01*
X144780000Y-53340000D02*
X143510000Y-52070000D01*
X144780000Y-86360000D02*
X144780000Y-73660000D01*
X144780000Y-87630000D02*
X144780000Y-86360000D01*
X143510000Y-72390000D02*
X143510000Y-68580000D01*
X143510000Y-93980000D02*
X143510000Y-88900000D01*
X143510000Y-48260000D02*
X144780000Y-46990000D01*
X144780000Y-73660000D02*
X143510000Y-72390000D01*
X144780000Y-135382000D02*
X144780000Y-95250000D01*
X143510000Y-68580000D02*
X144780000Y-67310000D01*
X144780000Y-66040000D02*
X144780000Y-53340000D01*
X143510000Y-52070000D02*
X143510000Y-48260000D01*
%TO.N,/DRQ2*%
X180340000Y-86360000D02*
X180340000Y-73660000D01*
X180340000Y-95250000D02*
X179070000Y-93980000D01*
X179070000Y-52070000D02*
X179070000Y-48260000D01*
X179070000Y-48260000D02*
X180340000Y-46990000D01*
X179070000Y-68580000D02*
X180340000Y-67310000D01*
X179070000Y-88900000D02*
X180340000Y-87630000D01*
X180340000Y-135382000D02*
X180340000Y-95250000D01*
X180340000Y-46990000D02*
X180340000Y-45720000D01*
X179070000Y-93980000D02*
X179070000Y-88900000D01*
X180340000Y-66040000D02*
X180340000Y-53340000D01*
X180340000Y-53340000D02*
X179070000Y-52070000D01*
X179070000Y-72390000D02*
X179070000Y-68580000D01*
X180340000Y-67310000D02*
X180340000Y-66040000D01*
X180340000Y-73660000D02*
X179070000Y-72390000D01*
X180340000Y-87630000D02*
X180340000Y-86360000D01*
D20*
%TO.N,/-12V*%
X177800000Y-67310000D02*
X177800000Y-66040000D01*
X176530000Y-52070000D02*
X176530000Y-48260000D01*
D19*
X176530000Y-41910000D02*
X111760000Y-41910000D01*
D20*
X176530000Y-93980000D02*
X176530000Y-88900000D01*
X176530000Y-72390000D02*
X176530000Y-68580000D01*
D19*
X177800000Y-43180000D02*
X176530000Y-41910000D01*
D20*
X176530000Y-48260000D02*
X177800000Y-46990000D01*
X177800000Y-87630000D02*
X177800000Y-86360000D01*
X177800000Y-53340000D02*
X176530000Y-52070000D01*
X177800000Y-135382000D02*
X177800000Y-95250000D01*
X177800000Y-95250000D02*
X176530000Y-93980000D01*
D19*
X177800000Y-45720000D02*
X177800000Y-44450000D01*
D20*
X176530000Y-68580000D02*
X177800000Y-67310000D01*
X177800000Y-73660000D02*
X176530000Y-72390000D01*
X177800000Y-86360000D02*
X177800000Y-73660000D01*
X176530000Y-88900000D02*
X177800000Y-87630000D01*
D19*
X177800000Y-44450000D02*
X177800000Y-43180000D01*
D20*
X177800000Y-66040000D02*
X177800000Y-53340000D01*
X177800000Y-46990000D02*
X177800000Y-45720000D01*
D18*
%TO.N,/OCS*%
X119380000Y-64770000D02*
X119380000Y-66040000D01*
X119380000Y-135382000D02*
X119380000Y-95250000D01*
X118110000Y-93980000D02*
X118110000Y-88900000D01*
X119380000Y-95250000D02*
X118110000Y-93980000D01*
X118110000Y-88900000D02*
X119380000Y-87630000D01*
X118110000Y-48260000D02*
X118110000Y-63500000D01*
X118110000Y-63500000D02*
X119380000Y-64770000D01*
X119380000Y-46990000D02*
X118110000Y-48260000D01*
X118110000Y-83820000D02*
X119380000Y-85090000D01*
X118110000Y-68580000D02*
X118110000Y-83820000D01*
X119380000Y-85090000D02*
X119380000Y-86360000D01*
X119380000Y-66040000D02*
X119380000Y-67310000D01*
X119380000Y-87630000D02*
X119380000Y-86360000D01*
X119380000Y-45720000D02*
X119380000Y-46990000D01*
X119380000Y-67310000D02*
X118110000Y-68580000D01*
%TO.N,/TC*%
X127000000Y-46990000D02*
X127000000Y-45720000D01*
X127000000Y-87630000D02*
X127000000Y-86360000D01*
X125730000Y-88900000D02*
X127000000Y-87630000D01*
X127000000Y-66040000D02*
X127000000Y-53340000D01*
X125730000Y-72390000D02*
X125730000Y-68580000D01*
X127000000Y-73660000D02*
X125730000Y-72390000D01*
X127000000Y-86360000D02*
X127000000Y-73660000D01*
X127000000Y-135382000D02*
X127000000Y-95250000D01*
X127000000Y-53340000D02*
X125730000Y-52070000D01*
X125730000Y-52070000D02*
X125730000Y-48260000D01*
X127000000Y-95250000D02*
X125730000Y-93980000D01*
X125730000Y-93980000D02*
X125730000Y-88900000D01*
X125730000Y-48260000D02*
X127000000Y-46990000D01*
X127000000Y-67310000D02*
X127000000Y-66040000D01*
X125730000Y-68580000D02*
X127000000Y-67310000D01*
%TO.N,/IRQ6*%
X139700000Y-73660000D02*
X138430000Y-72390000D01*
X139700000Y-87630000D02*
X139700000Y-86360000D01*
X139700000Y-135382000D02*
X139700000Y-95250000D01*
X139700000Y-66040000D02*
X139700000Y-53340000D01*
X138430000Y-48260000D02*
X139700000Y-46990000D01*
X138430000Y-68580000D02*
X139700000Y-67310000D01*
X138430000Y-52070000D02*
X138430000Y-48260000D01*
X139700000Y-95250000D02*
X138430000Y-93980000D01*
X139700000Y-86360000D02*
X139700000Y-73660000D01*
X138430000Y-72390000D02*
X138430000Y-68580000D01*
X139700000Y-53340000D02*
X138430000Y-52070000D01*
X138430000Y-88900000D02*
X139700000Y-87630000D01*
X138430000Y-93980000D02*
X138430000Y-88900000D01*
X139700000Y-46990000D02*
X139700000Y-45720000D01*
X139700000Y-67310000D02*
X139700000Y-66040000D01*
%TO.N,/IRQ7*%
X140970000Y-52070000D02*
X140970000Y-48260000D01*
X140970000Y-93980000D02*
X140970000Y-88900000D01*
X140970000Y-48260000D02*
X142240000Y-46990000D01*
X142240000Y-135382000D02*
X142240000Y-95250000D01*
X142240000Y-66040000D02*
X142240000Y-53340000D01*
X142240000Y-86360000D02*
X142240000Y-73660000D01*
X142240000Y-53340000D02*
X140970000Y-52070000D01*
X140970000Y-88900000D02*
X142240000Y-87630000D01*
X140970000Y-68580000D02*
X142240000Y-67310000D01*
X142240000Y-95250000D02*
X140970000Y-93980000D01*
X140970000Y-72390000D02*
X140970000Y-68580000D01*
X142240000Y-87630000D02*
X142240000Y-86360000D01*
X142240000Y-46990000D02*
X142240000Y-45720000D01*
X142240000Y-67310000D02*
X142240000Y-66040000D01*
X142240000Y-73660000D02*
X140970000Y-72390000D01*
%TO.N,/IRQ5*%
X137160000Y-135382000D02*
X137160000Y-95250000D01*
X137160000Y-53340000D02*
X135890000Y-52070000D01*
X137160000Y-87630000D02*
X137160000Y-86360000D01*
X135890000Y-48260000D02*
X137160000Y-46990000D01*
X137160000Y-95250000D02*
X135890000Y-93980000D01*
X135890000Y-52070000D02*
X135890000Y-48260000D01*
X137160000Y-86360000D02*
X137160000Y-73660000D01*
X137160000Y-67310000D02*
X137160000Y-66040000D01*
X135890000Y-72390000D02*
X135890000Y-68580000D01*
X137160000Y-66040000D02*
X137160000Y-53340000D01*
X137160000Y-73660000D02*
X135890000Y-72390000D01*
X135890000Y-68580000D02*
X137160000Y-67310000D01*
X135890000Y-93980000D02*
X135890000Y-88900000D01*
X135890000Y-88900000D02*
X137160000Y-87630000D01*
X137160000Y-46990000D02*
X137160000Y-45720000D01*
%TO.N,/DRQ3*%
X154940000Y-95250000D02*
X153670000Y-93980000D01*
X153670000Y-93980000D02*
X153670000Y-88900000D01*
X154940000Y-86360000D02*
X154940000Y-73660000D01*
X153670000Y-68580000D02*
X154940000Y-67310000D01*
X154940000Y-87630000D02*
X154940000Y-86360000D01*
X153670000Y-72390000D02*
X153670000Y-68580000D01*
X154940000Y-53340000D02*
X153670000Y-52070000D01*
X154940000Y-135382000D02*
X154940000Y-95250000D01*
X154940000Y-73660000D02*
X153670000Y-72390000D01*
X154940000Y-66040000D02*
X154940000Y-53340000D01*
X154940000Y-46990000D02*
X154940000Y-45720000D01*
X153670000Y-48260000D02*
X154940000Y-46990000D01*
X154940000Y-67310000D02*
X154940000Y-66040000D01*
X153670000Y-52070000D02*
X153670000Y-48260000D01*
X153670000Y-88900000D02*
X154940000Y-87630000D01*
D19*
%TO.N,/-5V*%
X106680000Y-40640000D02*
X181610000Y-40640000D01*
X181610000Y-40640000D02*
X182880000Y-41910000D01*
D20*
X181610000Y-88900000D02*
X182880000Y-87630000D01*
X181610000Y-72390000D02*
X181610000Y-68580000D01*
X182880000Y-86360000D02*
X182880000Y-73660000D01*
D19*
X104140000Y-44450000D02*
X104140000Y-43180000D01*
D20*
X182880000Y-66040000D02*
X182880000Y-53340000D01*
X182880000Y-135382000D02*
X182880000Y-95250000D01*
X182880000Y-95250000D02*
X181610000Y-93980000D01*
X106890820Y-72049640D02*
X106596180Y-71755000D01*
X181610000Y-52070000D02*
X181610000Y-48260000D01*
X182880000Y-73660000D02*
X181610000Y-72390000D01*
X181610000Y-48260000D02*
X182880000Y-46990000D01*
D19*
X105410000Y-71755000D02*
X104140000Y-70485000D01*
D20*
X182880000Y-87630000D02*
X182880000Y-86360000D01*
X181610000Y-68580000D02*
X182880000Y-67310000D01*
X182880000Y-53340000D02*
X181610000Y-52070000D01*
D19*
X104140000Y-70485000D02*
X104140000Y-44450000D01*
X106596180Y-71755000D02*
X105410000Y-71755000D01*
X104140000Y-43180000D02*
X106680000Y-40640000D01*
D20*
X182880000Y-67310000D02*
X182880000Y-66040000D01*
X182880000Y-46990000D02*
X182880000Y-45720000D01*
X181610000Y-93980000D02*
X181610000Y-88900000D01*
D19*
X182880000Y-41910000D02*
X182880000Y-45720000D01*
D18*
%TO.N,/DACK1*%
X151130000Y-93980000D02*
X151130000Y-88900000D01*
X152400000Y-95250000D02*
X151130000Y-93980000D01*
X151130000Y-52070000D02*
X151130000Y-48260000D01*
X151130000Y-88900000D02*
X152400000Y-87630000D01*
X152400000Y-86360000D02*
X152400000Y-73660000D01*
X152400000Y-46990000D02*
X152400000Y-45720000D01*
X152400000Y-87630000D02*
X152400000Y-86360000D01*
X151130000Y-68580000D02*
X152400000Y-67310000D01*
X152400000Y-135382000D02*
X152400000Y-95250000D01*
X151130000Y-72390000D02*
X151130000Y-68580000D01*
X152400000Y-67310000D02*
X152400000Y-66040000D01*
X151130000Y-48260000D02*
X152400000Y-46990000D01*
X152400000Y-53340000D02*
X151130000Y-52070000D01*
X152400000Y-66040000D02*
X152400000Y-53340000D01*
X152400000Y-73660000D02*
X151130000Y-72390000D01*
%TO.N,/IRQ4*%
X133350000Y-68580000D02*
X134620000Y-67310000D01*
X134620000Y-135382000D02*
X134620000Y-95250000D01*
X133350000Y-88900000D02*
X134620000Y-87630000D01*
X133350000Y-48260000D02*
X134620000Y-46990000D01*
X134620000Y-73660000D02*
X133350000Y-72390000D01*
X134620000Y-53340000D02*
X133350000Y-52070000D01*
X134620000Y-87630000D02*
X134620000Y-86360000D01*
X134620000Y-86360000D02*
X134620000Y-73660000D01*
X133350000Y-93980000D02*
X133350000Y-88900000D01*
X133350000Y-72390000D02*
X133350000Y-68580000D01*
X134620000Y-67310000D02*
X134620000Y-66040000D01*
X134620000Y-46990000D02*
X134620000Y-45720000D01*
X134620000Y-66040000D02*
X134620000Y-53340000D01*
X134620000Y-95250000D02*
X133350000Y-93980000D01*
X133350000Y-52070000D02*
X133350000Y-48260000D01*
%TO.N,/DRQ1*%
X149860000Y-67310000D02*
X149860000Y-66040000D01*
X149860000Y-66040000D02*
X149860000Y-53340000D01*
X148590000Y-48260000D02*
X149860000Y-46990000D01*
X148590000Y-88900000D02*
X149860000Y-87630000D01*
X149860000Y-46990000D02*
X149860000Y-45720000D01*
X149860000Y-53340000D02*
X148590000Y-52070000D01*
X149860000Y-135382000D02*
X149860000Y-95250000D01*
X149860000Y-73660000D02*
X148590000Y-72390000D01*
X149860000Y-86360000D02*
X149860000Y-73660000D01*
X149860000Y-87630000D02*
X149860000Y-86360000D01*
X149860000Y-95250000D02*
X148590000Y-93980000D01*
X148590000Y-52070000D02*
X148590000Y-48260000D01*
X148590000Y-68580000D02*
X149860000Y-67310000D01*
X148590000Y-72390000D02*
X148590000Y-68580000D01*
X148590000Y-93980000D02*
X148590000Y-88900000D01*
%TO.N,/DACK3*%
X157480000Y-67310000D02*
X157480000Y-66040000D01*
X157480000Y-66040000D02*
X157480000Y-53340000D01*
X157480000Y-73660000D02*
X156210000Y-72390000D01*
X156210000Y-68580000D02*
X157480000Y-67310000D01*
X156210000Y-72390000D02*
X156210000Y-68580000D01*
X157480000Y-53340000D02*
X156210000Y-52070000D01*
X156210000Y-93980000D02*
X156210000Y-88900000D01*
X157480000Y-87630000D02*
X157480000Y-86360000D01*
X156210000Y-88900000D02*
X157480000Y-87630000D01*
X157480000Y-95250000D02*
X156210000Y-93980000D01*
X156210000Y-52070000D02*
X156210000Y-48260000D01*
X157480000Y-86360000D02*
X157480000Y-73660000D01*
X156210000Y-48260000D02*
X157480000Y-46990000D01*
X157480000Y-135382000D02*
X157480000Y-95250000D01*
X157480000Y-46990000D02*
X157480000Y-45720000D01*
%TO.N,/DACK2*%
X129540000Y-66040000D02*
X129540000Y-53340000D01*
X129540000Y-86360000D02*
X129540000Y-73660000D01*
X129540000Y-95250000D02*
X128270000Y-93980000D01*
X128270000Y-88900000D02*
X129540000Y-87630000D01*
X128270000Y-48260000D02*
X129540000Y-46990000D01*
X129540000Y-135382000D02*
X129540000Y-95250000D01*
X129540000Y-53340000D02*
X128270000Y-52070000D01*
X128270000Y-93980000D02*
X128270000Y-88900000D01*
X129540000Y-87630000D02*
X129540000Y-86360000D01*
X128270000Y-52070000D02*
X128270000Y-48260000D01*
X129540000Y-67310000D02*
X129540000Y-66040000D01*
X128270000Y-68580000D02*
X129540000Y-67310000D01*
X128270000Y-72390000D02*
X128270000Y-68580000D01*
X129540000Y-73660000D02*
X128270000Y-72390000D01*
X129540000Y-46990000D02*
X129540000Y-45720000D01*
%TO.N,/ALE*%
X124460000Y-95250000D02*
X123190000Y-93980000D01*
X123190000Y-52070000D02*
X123190000Y-48260000D01*
X123190000Y-88900000D02*
X124460000Y-87630000D01*
X124460000Y-66040000D02*
X124460000Y-53340000D01*
X123190000Y-72390000D02*
X123190000Y-68580000D01*
X124460000Y-135382000D02*
X124460000Y-95250000D01*
X124460000Y-86360000D02*
X124460000Y-73660000D01*
X123190000Y-93980000D02*
X123190000Y-88900000D01*
X123190000Y-68580000D02*
X124460000Y-67310000D01*
X124460000Y-46990000D02*
X124460000Y-45720000D01*
X124460000Y-67310000D02*
X124460000Y-66040000D01*
X124460000Y-87630000D02*
X124460000Y-86360000D01*
X124460000Y-73660000D02*
X123190000Y-72390000D01*
X124460000Y-53340000D02*
X123190000Y-52070000D01*
X123190000Y-48260000D02*
X124460000Y-46990000D01*
%TO.N,/UNUSED*%
X173990000Y-93980000D02*
X173990000Y-88900000D01*
X175260000Y-135382000D02*
X175260000Y-95250000D01*
X173990000Y-88900000D02*
X175260000Y-87630000D01*
X173990000Y-52070000D02*
X173990000Y-48260000D01*
X173990000Y-72390000D02*
X173990000Y-68580000D01*
X175260000Y-67310000D02*
X175260000Y-66040000D01*
X175260000Y-46990000D02*
X175260000Y-45720000D01*
X175260000Y-86360000D02*
X175260000Y-73660000D01*
X175260000Y-95250000D02*
X173990000Y-93980000D01*
X175260000Y-53340000D02*
X173990000Y-52070000D01*
X173990000Y-68580000D02*
X175260000Y-67310000D01*
X175260000Y-66040000D02*
X175260000Y-53340000D01*
X175260000Y-87630000D02*
X175260000Y-86360000D01*
X175260000Y-73660000D02*
X173990000Y-72390000D01*
X173990000Y-48260000D02*
X175260000Y-46990000D01*
%TD*%
%TA.AperFunction,Conductor*%
%TO.N,GND*%
G36*
X97995203Y-37884715D02*
G01*
X98021386Y-37916427D01*
X98109751Y-38069479D01*
X98109753Y-38069482D01*
X98109754Y-38069483D01*
X98277370Y-38287926D01*
X98277376Y-38287933D01*
X98472066Y-38482623D01*
X98472072Y-38482628D01*
X98690521Y-38650249D01*
X98843778Y-38738732D01*
X98928971Y-38787919D01*
X98928976Y-38787921D01*
X98928979Y-38787923D01*
X99183368Y-38893295D01*
X99449334Y-38964560D01*
X99722326Y-39000500D01*
X99722333Y-39000500D01*
X99997667Y-39000500D01*
X99997674Y-39000500D01*
X100270666Y-38964560D01*
X100536632Y-38893295D01*
X100657187Y-38843358D01*
X100726655Y-38835890D01*
X100789134Y-38867165D01*
X100824787Y-38927254D01*
X100822294Y-38997079D01*
X100792320Y-39045601D01*
X99667422Y-40170500D01*
X98549711Y-41288211D01*
X98493960Y-41343962D01*
X98438209Y-41399712D01*
X98350609Y-41530814D01*
X98350602Y-41530827D01*
X98290264Y-41676498D01*
X98290261Y-41676510D01*
X98259500Y-41831153D01*
X98259500Y-57228846D01*
X98290261Y-57383489D01*
X98290264Y-57383501D01*
X98350602Y-57529172D01*
X98350609Y-57529185D01*
X98438210Y-57660288D01*
X98438213Y-57660292D01*
X98549708Y-57771787D01*
X98570176Y-57785463D01*
X98588966Y-57800884D01*
X99621207Y-58833125D01*
X99654692Y-58894448D01*
X99653301Y-58952899D01*
X99611397Y-59109289D01*
X99611395Y-59109300D01*
X99580580Y-59343350D01*
X99580580Y-59579449D01*
X99604548Y-59761493D01*
X99611396Y-59813508D01*
X99643229Y-59932309D01*
X99672498Y-60041546D01*
X99762839Y-60259650D01*
X99762846Y-60259665D01*
X99880886Y-60464117D01*
X100024604Y-60651414D01*
X100024610Y-60651421D01*
X100191538Y-60818349D01*
X100191545Y-60818355D01*
X100378840Y-60962072D01*
X100519059Y-61043026D01*
X100567275Y-61093593D01*
X100581060Y-61150414D01*
X100581060Y-61965244D01*
X100561375Y-62032283D01*
X100519060Y-62072631D01*
X100386462Y-62149186D01*
X100199165Y-62292904D01*
X100199158Y-62292910D01*
X100032230Y-62459838D01*
X100032224Y-62459845D01*
X99888506Y-62647142D01*
X99770466Y-62851594D01*
X99770459Y-62851609D01*
X99680118Y-63069713D01*
X99642571Y-63209843D01*
X99632840Y-63246162D01*
X99619016Y-63297753D01*
X99588200Y-63531810D01*
X99588200Y-63767909D01*
X99612168Y-63949953D01*
X99619016Y-64001968D01*
X99621720Y-64012058D01*
X99680118Y-64230006D01*
X99770459Y-64448110D01*
X99770466Y-64448125D01*
X99888506Y-64652577D01*
X100032224Y-64839874D01*
X100032230Y-64839881D01*
X100199158Y-65006809D01*
X100199165Y-65006815D01*
X100386462Y-65150533D01*
X100590914Y-65268573D01*
X100590929Y-65268580D01*
X100703721Y-65315299D01*
X100809032Y-65358921D01*
X101037072Y-65420024D01*
X101271138Y-65450840D01*
X101271145Y-65450840D01*
X101507215Y-65450840D01*
X101507222Y-65450840D01*
X101741288Y-65420024D01*
X101969328Y-65358921D01*
X102187442Y-65268575D01*
X102391898Y-65150533D01*
X102579196Y-65006814D01*
X102746134Y-64839876D01*
X102889853Y-64652578D01*
X103007895Y-64448122D01*
X103098241Y-64230008D01*
X103098241Y-64230005D01*
X103099794Y-64226258D01*
X103100765Y-64226660D01*
X103138270Y-64173324D01*
X103202979Y-64146971D01*
X103271664Y-64159786D01*
X103322517Y-64207700D01*
X103339500Y-64270337D01*
X103339500Y-67230542D01*
X103319815Y-67297581D01*
X103267011Y-67343336D01*
X103197853Y-67353280D01*
X103134297Y-67324255D01*
X103100671Y-67274258D01*
X103099794Y-67274622D01*
X103090618Y-67252470D01*
X103044707Y-67141629D01*
X103007900Y-67052769D01*
X103007893Y-67052754D01*
X102889853Y-66848302D01*
X102746135Y-66661005D01*
X102746129Y-66660998D01*
X102579201Y-66494070D01*
X102579194Y-66494064D01*
X102391897Y-66350346D01*
X102187445Y-66232306D01*
X102187430Y-66232299D01*
X101969326Y-66141958D01*
X101863492Y-66113600D01*
X101741288Y-66080856D01*
X101689273Y-66074008D01*
X101507229Y-66050040D01*
X101507222Y-66050040D01*
X101271138Y-66050040D01*
X101271130Y-66050040D01*
X101063079Y-66077432D01*
X101037072Y-66080856D01*
X100975970Y-66097228D01*
X100809033Y-66141958D01*
X100590929Y-66232299D01*
X100590914Y-66232306D01*
X100386462Y-66350346D01*
X100199165Y-66494064D01*
X100199158Y-66494070D01*
X100032230Y-66660998D01*
X100032224Y-66661005D01*
X99888506Y-66848302D01*
X99770466Y-67052754D01*
X99770459Y-67052769D01*
X99680118Y-67270873D01*
X99619016Y-67498913D01*
X99588200Y-67732970D01*
X99588200Y-67969069D01*
X99605370Y-68099478D01*
X99619016Y-68203128D01*
X99621202Y-68211285D01*
X99680118Y-68431166D01*
X99770459Y-68649270D01*
X99770466Y-68649285D01*
X99888506Y-68853737D01*
X100032224Y-69041034D01*
X100032230Y-69041041D01*
X100199158Y-69207969D01*
X100199165Y-69207975D01*
X100386462Y-69351693D01*
X100590914Y-69469733D01*
X100590929Y-69469740D01*
X100688751Y-69510259D01*
X100809032Y-69560081D01*
X101037072Y-69621184D01*
X101271138Y-69652000D01*
X101271145Y-69652000D01*
X101507215Y-69652000D01*
X101507222Y-69652000D01*
X101741288Y-69621184D01*
X101969328Y-69560081D01*
X102187442Y-69469735D01*
X102391898Y-69351693D01*
X102579196Y-69207974D01*
X102746134Y-69041036D01*
X102889853Y-68853738D01*
X103007895Y-68649282D01*
X103098241Y-68431168D01*
X103098241Y-68431165D01*
X103099794Y-68427418D01*
X103100765Y-68427820D01*
X103138270Y-68374484D01*
X103202979Y-68348131D01*
X103271664Y-68360946D01*
X103322517Y-68408860D01*
X103339500Y-68471497D01*
X103339500Y-70563846D01*
X103370261Y-70718489D01*
X103370264Y-70718501D01*
X103430602Y-70864172D01*
X103430609Y-70864185D01*
X103518210Y-70995288D01*
X103518213Y-70995292D01*
X104788211Y-72265289D01*
X104850466Y-72327544D01*
X104899712Y-72376790D01*
X105013890Y-72453081D01*
X105030821Y-72464394D01*
X105094258Y-72490670D01*
X105148659Y-72534509D01*
X105166578Y-72573133D01*
X105181759Y-72629788D01*
X105235160Y-72758709D01*
X105272102Y-72847895D01*
X105272106Y-72847905D01*
X105390146Y-73052357D01*
X105533864Y-73239654D01*
X105533870Y-73239661D01*
X105700798Y-73406589D01*
X105700805Y-73406595D01*
X105888102Y-73550313D01*
X106092554Y-73668353D01*
X106092569Y-73668360D01*
X106205361Y-73715079D01*
X106310672Y-73758701D01*
X106538712Y-73819804D01*
X106772778Y-73850620D01*
X106772785Y-73850620D01*
X107008855Y-73850620D01*
X107008862Y-73850620D01*
X107242928Y-73819804D01*
X107470968Y-73758701D01*
X107689082Y-73668355D01*
X107893538Y-73550313D01*
X108080836Y-73406594D01*
X108247774Y-73239656D01*
X108391493Y-73052358D01*
X108509535Y-72847902D01*
X108599881Y-72629788D01*
X108660984Y-72401748D01*
X108691800Y-72167682D01*
X108691800Y-71931598D01*
X108660984Y-71697532D01*
X108599881Y-71469492D01*
X108509535Y-71251378D01*
X108391493Y-71046922D01*
X108247774Y-70859624D01*
X108247769Y-70859618D01*
X108080841Y-70692690D01*
X108080834Y-70692684D01*
X107893537Y-70548966D01*
X107689085Y-70430926D01*
X107689070Y-70430919D01*
X107470966Y-70340578D01*
X107365132Y-70312220D01*
X107242928Y-70279476D01*
X107190913Y-70272628D01*
X107008869Y-70248660D01*
X107008862Y-70248660D01*
X106772778Y-70248660D01*
X106772770Y-70248660D01*
X106564719Y-70276052D01*
X106538712Y-70279476D01*
X106477610Y-70295848D01*
X106310673Y-70340578D01*
X106092569Y-70430919D01*
X106092554Y-70430926D01*
X105888102Y-70548966D01*
X105700805Y-70692683D01*
X105677963Y-70715526D01*
X105616639Y-70749010D01*
X105546947Y-70744024D01*
X105502602Y-70715524D01*
X104976819Y-70189741D01*
X104943334Y-70128418D01*
X104940500Y-70102060D01*
X104940500Y-68471497D01*
X104960185Y-68404458D01*
X105012989Y-68358703D01*
X105082147Y-68348759D01*
X105145703Y-68377784D01*
X105179326Y-68427782D01*
X105180206Y-68427418D01*
X105272099Y-68649270D01*
X105272106Y-68649285D01*
X105390146Y-68853737D01*
X105533864Y-69041034D01*
X105533870Y-69041041D01*
X105700798Y-69207969D01*
X105700805Y-69207975D01*
X105888102Y-69351693D01*
X106092554Y-69469733D01*
X106092569Y-69469740D01*
X106190391Y-69510259D01*
X106310672Y-69560081D01*
X106538712Y-69621184D01*
X106772778Y-69652000D01*
X106772785Y-69652000D01*
X107008855Y-69652000D01*
X107008862Y-69652000D01*
X107242928Y-69621184D01*
X107470968Y-69560081D01*
X107689082Y-69469735D01*
X107893538Y-69351693D01*
X108080836Y-69207974D01*
X108247774Y-69041036D01*
X108391493Y-68853738D01*
X108433792Y-68780471D01*
X108472448Y-68713520D01*
X108523015Y-68665304D01*
X108579835Y-68651520D01*
X110648080Y-68651520D01*
X110715119Y-68671205D01*
X110735761Y-68687839D01*
X111558181Y-69510259D01*
X111591666Y-69571582D01*
X111594500Y-69597940D01*
X111594500Y-103122060D01*
X111574815Y-103189099D01*
X111558181Y-103209741D01*
X110194741Y-104573181D01*
X110133418Y-104606666D01*
X110107060Y-104609500D01*
X105792940Y-104609500D01*
X105725901Y-104589815D01*
X105705259Y-104573181D01*
X104976819Y-103844741D01*
X104943334Y-103783418D01*
X104940500Y-103757060D01*
X104940500Y-102070617D01*
X104960185Y-102003578D01*
X105012989Y-101957823D01*
X105082147Y-101947879D01*
X105145703Y-101976904D01*
X105179326Y-102026902D01*
X105180206Y-102026538D01*
X105272099Y-102248390D01*
X105272106Y-102248405D01*
X105390146Y-102452857D01*
X105533864Y-102640154D01*
X105533870Y-102640161D01*
X105700798Y-102807089D01*
X105700805Y-102807095D01*
X105888102Y-102950813D01*
X106092554Y-103068853D01*
X106092569Y-103068860D01*
X106205361Y-103115579D01*
X106310672Y-103159201D01*
X106538712Y-103220304D01*
X106772778Y-103251120D01*
X106772785Y-103251120D01*
X107008855Y-103251120D01*
X107008862Y-103251120D01*
X107242928Y-103220304D01*
X107470968Y-103159201D01*
X107689082Y-103068855D01*
X107893538Y-102950813D01*
X108080836Y-102807094D01*
X108247774Y-102640156D01*
X108391493Y-102452858D01*
X108509535Y-102248402D01*
X108599881Y-102030288D01*
X108660984Y-101802248D01*
X108691800Y-101568182D01*
X108691800Y-101332098D01*
X108660984Y-101098032D01*
X108599881Y-100869992D01*
X108509535Y-100651878D01*
X108391493Y-100447422D01*
X108247774Y-100260124D01*
X108247769Y-100260118D01*
X108080841Y-100093190D01*
X108080834Y-100093184D01*
X107893537Y-99949466D01*
X107689085Y-99831426D01*
X107689070Y-99831419D01*
X107470966Y-99741078D01*
X107365132Y-99712720D01*
X107242928Y-99679976D01*
X107190913Y-99673128D01*
X107008869Y-99649160D01*
X107008862Y-99649160D01*
X106772778Y-99649160D01*
X106772770Y-99649160D01*
X106564719Y-99676552D01*
X106538712Y-99679976D01*
X106477610Y-99696348D01*
X106310673Y-99741078D01*
X106092569Y-99831419D01*
X106092554Y-99831426D01*
X105888102Y-99949466D01*
X105700805Y-100093184D01*
X105700798Y-100093190D01*
X105533870Y-100260118D01*
X105533864Y-100260125D01*
X105390146Y-100447422D01*
X105272106Y-100651874D01*
X105272099Y-100651889D01*
X105180206Y-100873742D01*
X105179237Y-100873340D01*
X105141721Y-100926682D01*
X105077009Y-100953029D01*
X105008326Y-100940208D01*
X104957478Y-100892290D01*
X104940500Y-100829662D01*
X104940500Y-97869457D01*
X104960185Y-97802418D01*
X105012989Y-97756663D01*
X105082147Y-97746719D01*
X105145703Y-97775744D01*
X105179326Y-97825742D01*
X105180206Y-97825378D01*
X105181758Y-97829126D01*
X105181759Y-97829128D01*
X105182902Y-97831888D01*
X105272099Y-98047230D01*
X105272106Y-98047245D01*
X105390146Y-98251697D01*
X105533864Y-98438994D01*
X105533870Y-98439001D01*
X105700798Y-98605929D01*
X105700805Y-98605935D01*
X105888102Y-98749653D01*
X106092554Y-98867693D01*
X106092569Y-98867700D01*
X106205361Y-98914419D01*
X106310672Y-98958041D01*
X106538712Y-99019144D01*
X106772778Y-99049960D01*
X106772785Y-99049960D01*
X107008855Y-99049960D01*
X107008862Y-99049960D01*
X107242928Y-99019144D01*
X107470968Y-98958041D01*
X107689082Y-98867695D01*
X107893538Y-98749653D01*
X108080836Y-98605934D01*
X108247774Y-98438996D01*
X108391493Y-98251698D01*
X108509535Y-98047242D01*
X108599881Y-97829128D01*
X108660984Y-97601088D01*
X108691800Y-97367022D01*
X108691800Y-97130938D01*
X108660984Y-96896872D01*
X108599881Y-96668832D01*
X108509535Y-96450718D01*
X108498095Y-96430904D01*
X108391493Y-96246262D01*
X108247775Y-96058965D01*
X108247769Y-96058958D01*
X108080841Y-95892030D01*
X108080834Y-95892024D01*
X107893537Y-95748306D01*
X107689085Y-95630266D01*
X107689070Y-95630259D01*
X107470966Y-95539918D01*
X107365132Y-95511560D01*
X107242928Y-95478816D01*
X107190913Y-95471968D01*
X107008869Y-95448000D01*
X107008862Y-95448000D01*
X106772778Y-95448000D01*
X106772770Y-95448000D01*
X106564719Y-95475392D01*
X106538712Y-95478816D01*
X106477610Y-95495188D01*
X106310673Y-95539918D01*
X106092569Y-95630259D01*
X106092554Y-95630266D01*
X105888102Y-95748306D01*
X105700805Y-95892024D01*
X105700798Y-95892030D01*
X105533870Y-96058958D01*
X105533864Y-96058965D01*
X105390146Y-96246262D01*
X105272106Y-96450714D01*
X105272099Y-96450729D01*
X105221594Y-96572661D01*
X105188134Y-96653443D01*
X105180206Y-96672582D01*
X105179237Y-96672180D01*
X105141721Y-96725522D01*
X105077009Y-96751869D01*
X105008326Y-96739048D01*
X104957478Y-96691130D01*
X104940500Y-96628502D01*
X104940500Y-93669281D01*
X104960185Y-93602242D01*
X105012989Y-93556487D01*
X105082147Y-93546543D01*
X105145703Y-93575568D01*
X105180159Y-93626811D01*
X105180679Y-93626596D01*
X105181744Y-93629168D01*
X105181923Y-93629434D01*
X105182233Y-93630348D01*
X105272552Y-93848397D01*
X105272554Y-93848401D01*
X105390564Y-94052798D01*
X105390570Y-94052808D01*
X105453198Y-94134426D01*
X105453199Y-94134426D01*
X106174896Y-93412728D01*
X106181781Y-93429349D01*
X106269342Y-93560394D01*
X106380786Y-93671838D01*
X106511831Y-93759399D01*
X106528449Y-93766282D01*
X105806752Y-94487979D01*
X105888380Y-94550614D01*
X105888381Y-94550615D01*
X106092778Y-94668625D01*
X106092782Y-94668627D01*
X106310823Y-94758943D01*
X106310833Y-94758946D01*
X106538807Y-94820031D01*
X106538818Y-94820033D01*
X106772802Y-94850839D01*
X106772817Y-94850840D01*
X107008823Y-94850840D01*
X107008837Y-94850839D01*
X107242821Y-94820033D01*
X107242832Y-94820031D01*
X107470806Y-94758946D01*
X107470816Y-94758943D01*
X107688857Y-94668627D01*
X107688861Y-94668625D01*
X107893258Y-94550615D01*
X107893269Y-94550608D01*
X107974886Y-94487980D01*
X107974886Y-94487978D01*
X107253190Y-93766282D01*
X107269809Y-93759399D01*
X107400854Y-93671838D01*
X107512298Y-93560394D01*
X107599859Y-93429349D01*
X107606742Y-93412730D01*
X108328438Y-94134426D01*
X108328440Y-94134426D01*
X108391068Y-94052809D01*
X108391075Y-94052798D01*
X108509085Y-93848401D01*
X108509087Y-93848397D01*
X108599403Y-93630356D01*
X108599406Y-93630346D01*
X108660491Y-93402372D01*
X108660493Y-93402361D01*
X108691299Y-93168377D01*
X108691300Y-93168363D01*
X108691300Y-92932356D01*
X108691299Y-92932342D01*
X108660493Y-92698358D01*
X108660491Y-92698347D01*
X108599406Y-92470373D01*
X108599403Y-92470363D01*
X108509087Y-92252322D01*
X108509085Y-92252318D01*
X108391075Y-92047921D01*
X108391074Y-92047920D01*
X108328439Y-91966292D01*
X107606742Y-92687989D01*
X107599859Y-92671371D01*
X107512298Y-92540326D01*
X107400854Y-92428882D01*
X107269809Y-92341321D01*
X107253188Y-92334436D01*
X107974886Y-91612739D01*
X107974886Y-91612738D01*
X107893268Y-91550110D01*
X107893258Y-91550104D01*
X107688861Y-91432094D01*
X107688857Y-91432092D01*
X107470816Y-91341776D01*
X107470806Y-91341773D01*
X107242832Y-91280688D01*
X107242821Y-91280686D01*
X107008837Y-91249880D01*
X106772802Y-91249880D01*
X106538818Y-91280686D01*
X106538807Y-91280688D01*
X106310833Y-91341773D01*
X106310823Y-91341776D01*
X106092782Y-91432092D01*
X106092778Y-91432094D01*
X105888382Y-91550104D01*
X105888374Y-91550109D01*
X105806752Y-91612738D01*
X105806752Y-91612739D01*
X106528450Y-92334437D01*
X106511831Y-92341321D01*
X106380786Y-92428882D01*
X106269342Y-92540326D01*
X106181781Y-92671371D01*
X106174897Y-92687990D01*
X105453199Y-91966292D01*
X105453198Y-91966292D01*
X105390569Y-92047914D01*
X105390564Y-92047922D01*
X105272554Y-92252318D01*
X105272552Y-92252322D01*
X105182235Y-92470365D01*
X105181921Y-92471293D01*
X105181752Y-92471533D01*
X105180679Y-92474124D01*
X105180099Y-92473883D01*
X105141734Y-92528448D01*
X105077025Y-92554804D01*
X105008340Y-92541992D01*
X104957486Y-92494079D01*
X104940500Y-92431438D01*
X104940500Y-89469677D01*
X104960185Y-89402638D01*
X105012989Y-89356883D01*
X105082147Y-89346939D01*
X105145703Y-89375964D01*
X105179326Y-89425962D01*
X105180206Y-89425598D01*
X105272099Y-89647450D01*
X105272106Y-89647465D01*
X105390146Y-89851917D01*
X105533864Y-90039214D01*
X105533870Y-90039221D01*
X105700798Y-90206149D01*
X105700805Y-90206155D01*
X105888102Y-90349873D01*
X106092554Y-90467913D01*
X106092569Y-90467920D01*
X106127810Y-90482517D01*
X106310672Y-90558261D01*
X106538712Y-90619364D01*
X106772778Y-90650180D01*
X106772785Y-90650180D01*
X107008855Y-90650180D01*
X107008862Y-90650180D01*
X107242928Y-90619364D01*
X107470968Y-90558261D01*
X107689082Y-90467915D01*
X107893538Y-90349873D01*
X108080836Y-90206154D01*
X108247774Y-90039216D01*
X108391493Y-89851918D01*
X108509535Y-89647462D01*
X108599881Y-89429348D01*
X108660984Y-89201308D01*
X108691800Y-88967242D01*
X108691800Y-88731158D01*
X108660984Y-88497092D01*
X108599881Y-88269052D01*
X108509535Y-88050938D01*
X108472447Y-87986700D01*
X108391493Y-87846482D01*
X108247775Y-87659185D01*
X108247769Y-87659178D01*
X108080841Y-87492250D01*
X108080834Y-87492244D01*
X107893537Y-87348526D01*
X107689085Y-87230486D01*
X107689070Y-87230479D01*
X107470966Y-87140138D01*
X107365132Y-87111780D01*
X107242928Y-87079036D01*
X107190913Y-87072188D01*
X107008869Y-87048220D01*
X107008862Y-87048220D01*
X106772778Y-87048220D01*
X106772770Y-87048220D01*
X106564719Y-87075612D01*
X106538712Y-87079036D01*
X106477610Y-87095408D01*
X106310673Y-87140138D01*
X106092569Y-87230479D01*
X106092554Y-87230486D01*
X105888102Y-87348526D01*
X105700805Y-87492244D01*
X105700798Y-87492250D01*
X105533870Y-87659178D01*
X105533864Y-87659185D01*
X105390146Y-87846482D01*
X105272106Y-88050934D01*
X105272099Y-88050949D01*
X105180206Y-88272802D01*
X105179237Y-88272400D01*
X105141721Y-88325742D01*
X105077009Y-88352089D01*
X105008326Y-88339268D01*
X104957478Y-88291350D01*
X104940500Y-88228722D01*
X104940500Y-85269501D01*
X104960185Y-85202462D01*
X105012989Y-85156707D01*
X105082147Y-85146763D01*
X105145703Y-85175788D01*
X105180159Y-85227031D01*
X105180679Y-85226816D01*
X105181744Y-85229388D01*
X105181923Y-85229654D01*
X105182233Y-85230568D01*
X105272552Y-85448617D01*
X105272554Y-85448621D01*
X105390564Y-85653018D01*
X105390570Y-85653028D01*
X105453198Y-85734646D01*
X105453199Y-85734646D01*
X106174896Y-85012948D01*
X106181781Y-85029569D01*
X106269342Y-85160614D01*
X106380786Y-85272058D01*
X106511831Y-85359619D01*
X106528449Y-85366502D01*
X105806752Y-86088199D01*
X105888380Y-86150834D01*
X105888381Y-86150835D01*
X106092778Y-86268845D01*
X106092782Y-86268847D01*
X106310823Y-86359163D01*
X106310833Y-86359166D01*
X106538807Y-86420251D01*
X106538818Y-86420253D01*
X106772802Y-86451059D01*
X106772817Y-86451060D01*
X107008823Y-86451060D01*
X107008837Y-86451059D01*
X107242821Y-86420253D01*
X107242832Y-86420251D01*
X107470806Y-86359166D01*
X107470816Y-86359163D01*
X107688857Y-86268847D01*
X107688861Y-86268845D01*
X107893258Y-86150835D01*
X107893269Y-86150828D01*
X107974886Y-86088200D01*
X107974886Y-86088198D01*
X107253190Y-85366502D01*
X107269809Y-85359619D01*
X107400854Y-85272058D01*
X107512298Y-85160614D01*
X107599859Y-85029569D01*
X107606742Y-85012950D01*
X108328438Y-85734646D01*
X108328440Y-85734646D01*
X108391068Y-85653029D01*
X108391075Y-85653018D01*
X108509085Y-85448621D01*
X108509087Y-85448617D01*
X108599403Y-85230576D01*
X108599406Y-85230566D01*
X108660491Y-85002592D01*
X108660493Y-85002581D01*
X108691299Y-84768597D01*
X108691300Y-84768583D01*
X108691300Y-84532576D01*
X108691299Y-84532562D01*
X108660493Y-84298578D01*
X108660491Y-84298567D01*
X108599406Y-84070593D01*
X108599403Y-84070583D01*
X108509087Y-83852542D01*
X108509085Y-83852538D01*
X108391075Y-83648141D01*
X108391074Y-83648140D01*
X108328439Y-83566512D01*
X107606742Y-84288209D01*
X107599859Y-84271591D01*
X107512298Y-84140546D01*
X107400854Y-84029102D01*
X107269809Y-83941541D01*
X107253188Y-83934656D01*
X107974886Y-83212959D01*
X107974886Y-83212958D01*
X107893268Y-83150330D01*
X107893258Y-83150324D01*
X107688861Y-83032314D01*
X107688857Y-83032312D01*
X107470816Y-82941996D01*
X107470806Y-82941993D01*
X107242832Y-82880908D01*
X107242821Y-82880906D01*
X107008837Y-82850100D01*
X106772802Y-82850100D01*
X106538818Y-82880906D01*
X106538807Y-82880908D01*
X106310833Y-82941993D01*
X106310823Y-82941996D01*
X106092782Y-83032312D01*
X106092778Y-83032314D01*
X105888382Y-83150324D01*
X105888374Y-83150329D01*
X105806752Y-83212958D01*
X105806752Y-83212959D01*
X106528450Y-83934657D01*
X106511831Y-83941541D01*
X106380786Y-84029102D01*
X106269342Y-84140546D01*
X106181781Y-84271591D01*
X106174897Y-84288210D01*
X105453199Y-83566512D01*
X105453198Y-83566512D01*
X105390569Y-83648134D01*
X105390564Y-83648142D01*
X105272554Y-83852538D01*
X105272552Y-83852542D01*
X105182235Y-84070585D01*
X105181921Y-84071513D01*
X105181752Y-84071753D01*
X105180679Y-84074344D01*
X105180099Y-84074103D01*
X105141734Y-84128668D01*
X105077025Y-84155024D01*
X105008340Y-84142212D01*
X104957486Y-84094299D01*
X104940500Y-84031658D01*
X104940500Y-81201158D01*
X104932077Y-81158813D01*
X104909738Y-81046503D01*
X104849394Y-80900821D01*
X104849392Y-80900818D01*
X104849390Y-80900814D01*
X104761789Y-80769711D01*
X104761786Y-80769707D01*
X104323481Y-80331402D01*
X105090340Y-80331402D01*
X105090340Y-80567437D01*
X105121146Y-80801421D01*
X105121148Y-80801432D01*
X105182233Y-81029406D01*
X105182236Y-81029416D01*
X105272552Y-81247457D01*
X105272554Y-81247461D01*
X105390564Y-81451858D01*
X105390570Y-81451868D01*
X105453198Y-81533486D01*
X105453199Y-81533486D01*
X106174896Y-80811788D01*
X106181781Y-80828409D01*
X106269342Y-80959454D01*
X106380786Y-81070898D01*
X106511831Y-81158459D01*
X106528449Y-81165342D01*
X105806752Y-81887039D01*
X105888380Y-81949674D01*
X105888381Y-81949675D01*
X106092778Y-82067685D01*
X106092782Y-82067687D01*
X106310823Y-82158003D01*
X106310833Y-82158006D01*
X106538807Y-82219091D01*
X106538818Y-82219093D01*
X106772802Y-82249899D01*
X106772817Y-82249900D01*
X107008823Y-82249900D01*
X107008837Y-82249899D01*
X107242821Y-82219093D01*
X107242832Y-82219091D01*
X107470806Y-82158006D01*
X107470816Y-82158003D01*
X107688857Y-82067687D01*
X107688861Y-82067685D01*
X107893258Y-81949675D01*
X107893269Y-81949668D01*
X107974886Y-81887040D01*
X107974886Y-81887038D01*
X107253190Y-81165342D01*
X107269809Y-81158459D01*
X107400854Y-81070898D01*
X107512298Y-80959454D01*
X107599859Y-80828409D01*
X107606742Y-80811790D01*
X108328438Y-81533486D01*
X108328440Y-81533486D01*
X108391068Y-81451869D01*
X108391075Y-81451858D01*
X108509085Y-81247461D01*
X108509087Y-81247457D01*
X108599403Y-81029416D01*
X108599406Y-81029406D01*
X108660491Y-80801432D01*
X108660493Y-80801421D01*
X108691299Y-80567437D01*
X108691300Y-80567423D01*
X108691300Y-80331416D01*
X108691299Y-80331402D01*
X108660493Y-80097418D01*
X108660491Y-80097407D01*
X108599406Y-79869433D01*
X108599403Y-79869423D01*
X108509087Y-79651382D01*
X108509085Y-79651378D01*
X108391075Y-79446981D01*
X108391074Y-79446980D01*
X108328439Y-79365352D01*
X107606742Y-80087049D01*
X107599859Y-80070431D01*
X107512298Y-79939386D01*
X107400854Y-79827942D01*
X107269809Y-79740381D01*
X107253188Y-79733496D01*
X107974886Y-79011799D01*
X107974886Y-79011798D01*
X107893268Y-78949170D01*
X107893258Y-78949164D01*
X107688861Y-78831154D01*
X107688857Y-78831152D01*
X107470816Y-78740836D01*
X107470806Y-78740833D01*
X107242832Y-78679748D01*
X107242821Y-78679746D01*
X107008837Y-78648940D01*
X106772802Y-78648940D01*
X106538818Y-78679746D01*
X106538807Y-78679748D01*
X106310833Y-78740833D01*
X106310823Y-78740836D01*
X106092782Y-78831152D01*
X106092778Y-78831154D01*
X105888382Y-78949164D01*
X105888374Y-78949169D01*
X105806752Y-79011798D01*
X105806752Y-79011799D01*
X106528450Y-79733497D01*
X106511831Y-79740381D01*
X106380786Y-79827942D01*
X106269342Y-79939386D01*
X106181781Y-80070431D01*
X106174897Y-80087050D01*
X105453199Y-79365352D01*
X105453198Y-79365352D01*
X105390569Y-79446974D01*
X105390564Y-79446982D01*
X105272554Y-79651378D01*
X105272552Y-79651382D01*
X105182236Y-79869423D01*
X105182233Y-79869433D01*
X105121148Y-80097407D01*
X105121146Y-80097418D01*
X105090340Y-80331402D01*
X104323481Y-80331402D01*
X103819712Y-79827633D01*
X103819708Y-79827630D01*
X103688605Y-79740029D01*
X103688592Y-79740022D01*
X103542921Y-79679684D01*
X103542909Y-79679681D01*
X103388265Y-79648920D01*
X103388262Y-79648920D01*
X103078195Y-79648920D01*
X103011156Y-79629235D01*
X102970808Y-79586920D01*
X102889853Y-79446702D01*
X102746135Y-79259405D01*
X102746129Y-79259398D01*
X102579201Y-79092470D01*
X102579194Y-79092464D01*
X102391897Y-78948746D01*
X102187445Y-78830706D01*
X102187430Y-78830699D01*
X101969326Y-78740358D01*
X101863492Y-78712000D01*
X101741288Y-78679256D01*
X101689273Y-78672408D01*
X101507229Y-78648440D01*
X101507222Y-78648440D01*
X101271138Y-78648440D01*
X101271130Y-78648440D01*
X101063079Y-78675832D01*
X101037072Y-78679256D01*
X100975970Y-78695628D01*
X100809033Y-78740358D01*
X100590929Y-78830699D01*
X100590914Y-78830706D01*
X100386462Y-78948746D01*
X100199165Y-79092464D01*
X100199158Y-79092470D01*
X100032230Y-79259398D01*
X100032224Y-79259405D01*
X99888506Y-79446702D01*
X99770466Y-79651154D01*
X99770459Y-79651169D01*
X99680118Y-79869273D01*
X99661332Y-79939386D01*
X99619016Y-80097312D01*
X99619002Y-80097418D01*
X99588200Y-80331370D01*
X99588200Y-80567469D01*
X99603385Y-80682800D01*
X99619016Y-80801528D01*
X99645622Y-80900824D01*
X99680118Y-81029566D01*
X99770459Y-81247670D01*
X99770466Y-81247685D01*
X99888506Y-81452137D01*
X100032224Y-81639434D01*
X100032230Y-81639441D01*
X100199158Y-81806369D01*
X100199165Y-81806375D01*
X100386462Y-81950093D01*
X100590914Y-82068133D01*
X100590929Y-82068140D01*
X100703721Y-82114859D01*
X100809032Y-82158481D01*
X101037072Y-82219584D01*
X101260613Y-82249014D01*
X101267332Y-82249899D01*
X101271138Y-82250400D01*
X101271145Y-82250400D01*
X101507215Y-82250400D01*
X101507222Y-82250400D01*
X101741288Y-82219584D01*
X101969328Y-82158481D01*
X102187442Y-82068135D01*
X102391898Y-81950093D01*
X102579196Y-81806374D01*
X102746134Y-81639436D01*
X102889853Y-81452138D01*
X102915275Y-81408104D01*
X102965841Y-81359888D01*
X103034448Y-81346664D01*
X103099313Y-81372631D01*
X103110344Y-81382422D01*
X103303181Y-81575259D01*
X103336666Y-81636582D01*
X103339500Y-81662940D01*
X103339500Y-84031658D01*
X103319815Y-84098697D01*
X103267011Y-84144452D01*
X103197853Y-84154396D01*
X103134297Y-84125371D01*
X103099838Y-84074129D01*
X103099321Y-84074344D01*
X103098259Y-84071781D01*
X103098079Y-84071513D01*
X103097764Y-84070585D01*
X103007447Y-83852542D01*
X103007445Y-83852538D01*
X102889435Y-83648141D01*
X102889434Y-83648140D01*
X102826799Y-83566512D01*
X102105102Y-84288209D01*
X102098219Y-84271591D01*
X102010658Y-84140546D01*
X101899214Y-84029102D01*
X101768169Y-83941541D01*
X101751548Y-83934656D01*
X102473246Y-83212959D01*
X102473246Y-83212958D01*
X102391628Y-83150330D01*
X102391618Y-83150324D01*
X102187221Y-83032314D01*
X102187217Y-83032312D01*
X101969176Y-82941996D01*
X101969166Y-82941993D01*
X101741192Y-82880908D01*
X101741181Y-82880906D01*
X101507197Y-82850100D01*
X101271162Y-82850100D01*
X101037178Y-82880906D01*
X101037167Y-82880908D01*
X100809193Y-82941993D01*
X100809183Y-82941996D01*
X100591142Y-83032312D01*
X100591138Y-83032314D01*
X100386742Y-83150324D01*
X100386734Y-83150329D01*
X100305112Y-83212958D01*
X100305112Y-83212959D01*
X101026810Y-83934657D01*
X101010191Y-83941541D01*
X100879146Y-84029102D01*
X100767702Y-84140546D01*
X100680141Y-84271591D01*
X100673257Y-84288210D01*
X99951559Y-83566512D01*
X99951558Y-83566512D01*
X99888929Y-83648134D01*
X99888924Y-83648142D01*
X99770914Y-83852538D01*
X99770912Y-83852542D01*
X99680596Y-84070583D01*
X99680593Y-84070593D01*
X99619508Y-84298567D01*
X99619506Y-84298578D01*
X99588700Y-84532562D01*
X99588700Y-84768597D01*
X99619506Y-85002581D01*
X99619508Y-85002592D01*
X99680593Y-85230566D01*
X99680596Y-85230576D01*
X99770912Y-85448617D01*
X99770914Y-85448621D01*
X99888924Y-85653018D01*
X99888930Y-85653028D01*
X99951558Y-85734646D01*
X99951559Y-85734646D01*
X100673256Y-85012948D01*
X100680141Y-85029569D01*
X100767702Y-85160614D01*
X100879146Y-85272058D01*
X101010191Y-85359619D01*
X101026809Y-85366502D01*
X100305112Y-86088199D01*
X100386740Y-86150834D01*
X100386741Y-86150835D01*
X100591138Y-86268845D01*
X100591142Y-86268847D01*
X100809183Y-86359163D01*
X100809193Y-86359166D01*
X101037167Y-86420251D01*
X101037178Y-86420253D01*
X101271162Y-86451059D01*
X101271177Y-86451060D01*
X101507183Y-86451060D01*
X101507197Y-86451059D01*
X101741181Y-86420253D01*
X101741192Y-86420251D01*
X101969166Y-86359166D01*
X101969176Y-86359163D01*
X102187217Y-86268847D01*
X102187221Y-86268845D01*
X102391618Y-86150835D01*
X102391629Y-86150828D01*
X102473246Y-86088200D01*
X102473246Y-86088198D01*
X101751550Y-85366502D01*
X101768169Y-85359619D01*
X101899214Y-85272058D01*
X102010658Y-85160614D01*
X102098219Y-85029569D01*
X102105102Y-85012950D01*
X102826798Y-85734646D01*
X102826800Y-85734646D01*
X102889428Y-85653029D01*
X102889435Y-85653018D01*
X103007445Y-85448621D01*
X103007447Y-85448617D01*
X103097766Y-85230568D01*
X103098077Y-85229654D01*
X103098243Y-85229416D01*
X103099321Y-85226816D01*
X103099902Y-85227056D01*
X103138260Y-85172496D01*
X103202967Y-85146136D01*
X103271653Y-85158944D01*
X103322510Y-85206853D01*
X103339500Y-85269501D01*
X103339500Y-87924700D01*
X103336949Y-87933385D01*
X103338238Y-87942347D01*
X103327259Y-87966387D01*
X103319815Y-87991739D01*
X103312974Y-87997666D01*
X103309213Y-88005903D01*
X103286978Y-88020192D01*
X103267011Y-88037494D01*
X103256496Y-88039781D01*
X103250435Y-88043677D01*
X103215500Y-88048700D01*
X103078195Y-88048700D01*
X103011156Y-88029015D01*
X102970808Y-87986700D01*
X102889853Y-87846482D01*
X102746135Y-87659185D01*
X102746129Y-87659178D01*
X102579201Y-87492250D01*
X102579194Y-87492244D01*
X102391897Y-87348526D01*
X102187445Y-87230486D01*
X102187430Y-87230479D01*
X101969326Y-87140138D01*
X101863492Y-87111780D01*
X101741288Y-87079036D01*
X101689273Y-87072188D01*
X101507229Y-87048220D01*
X101507222Y-87048220D01*
X101271138Y-87048220D01*
X101271130Y-87048220D01*
X101063079Y-87075612D01*
X101037072Y-87079036D01*
X100975970Y-87095408D01*
X100809033Y-87140138D01*
X100590929Y-87230479D01*
X100590914Y-87230486D01*
X100386462Y-87348526D01*
X100199165Y-87492244D01*
X100199158Y-87492250D01*
X100032230Y-87659178D01*
X100032224Y-87659185D01*
X99888506Y-87846482D01*
X99770466Y-88050934D01*
X99770459Y-88050949D01*
X99680118Y-88269053D01*
X99619016Y-88497093D01*
X99588200Y-88731150D01*
X99588200Y-88967249D01*
X99591072Y-88989059D01*
X99619016Y-89201308D01*
X99651760Y-89323512D01*
X99680118Y-89429346D01*
X99770459Y-89647450D01*
X99770466Y-89647465D01*
X99888506Y-89851917D01*
X100032224Y-90039214D01*
X100032230Y-90039221D01*
X100199158Y-90206149D01*
X100199165Y-90206155D01*
X100386462Y-90349873D01*
X100590914Y-90467913D01*
X100590929Y-90467920D01*
X100626170Y-90482517D01*
X100809032Y-90558261D01*
X101037072Y-90619364D01*
X101271138Y-90650180D01*
X101271145Y-90650180D01*
X101507215Y-90650180D01*
X101507222Y-90650180D01*
X101741288Y-90619364D01*
X101969328Y-90558261D01*
X102187442Y-90467915D01*
X102391898Y-90349873D01*
X102579196Y-90206154D01*
X102746134Y-90039216D01*
X102889853Y-89851918D01*
X102964752Y-89722189D01*
X102970808Y-89711700D01*
X102979495Y-89703416D01*
X102984482Y-89692497D01*
X103004313Y-89679752D01*
X103021375Y-89663484D01*
X103034631Y-89660268D01*
X103043260Y-89654723D01*
X103078195Y-89649700D01*
X103215500Y-89649700D01*
X103282539Y-89669385D01*
X103328294Y-89722189D01*
X103339500Y-89773700D01*
X103339500Y-92431438D01*
X103319815Y-92498477D01*
X103267011Y-92544232D01*
X103197853Y-92554176D01*
X103134297Y-92525151D01*
X103099838Y-92473909D01*
X103099321Y-92474124D01*
X103098259Y-92471561D01*
X103098079Y-92471293D01*
X103097764Y-92470365D01*
X103007447Y-92252322D01*
X103007445Y-92252318D01*
X102889435Y-92047921D01*
X102889434Y-92047920D01*
X102826799Y-91966292D01*
X102105102Y-92687989D01*
X102098219Y-92671371D01*
X102010658Y-92540326D01*
X101899214Y-92428882D01*
X101768169Y-92341321D01*
X101751548Y-92334436D01*
X102473246Y-91612739D01*
X102473246Y-91612738D01*
X102391628Y-91550110D01*
X102391618Y-91550104D01*
X102187221Y-91432094D01*
X102187217Y-91432092D01*
X101969176Y-91341776D01*
X101969166Y-91341773D01*
X101741192Y-91280688D01*
X101741181Y-91280686D01*
X101507197Y-91249880D01*
X101271162Y-91249880D01*
X101037178Y-91280686D01*
X101037167Y-91280688D01*
X100809193Y-91341773D01*
X100809183Y-91341776D01*
X100591142Y-91432092D01*
X100591138Y-91432094D01*
X100386742Y-91550104D01*
X100386734Y-91550109D01*
X100305112Y-91612738D01*
X100305112Y-91612739D01*
X101026810Y-92334437D01*
X101010191Y-92341321D01*
X100879146Y-92428882D01*
X100767702Y-92540326D01*
X100680141Y-92671371D01*
X100673257Y-92687990D01*
X99951559Y-91966292D01*
X99951558Y-91966292D01*
X99888929Y-92047914D01*
X99888924Y-92047922D01*
X99770914Y-92252318D01*
X99770912Y-92252322D01*
X99680596Y-92470363D01*
X99680593Y-92470373D01*
X99619508Y-92698347D01*
X99619506Y-92698358D01*
X99588700Y-92932342D01*
X99588700Y-93168377D01*
X99619506Y-93402361D01*
X99619508Y-93402372D01*
X99680593Y-93630346D01*
X99680596Y-93630356D01*
X99770912Y-93848397D01*
X99770914Y-93848401D01*
X99888924Y-94052798D01*
X99888930Y-94052808D01*
X99951558Y-94134426D01*
X99951559Y-94134426D01*
X100673256Y-93412728D01*
X100680141Y-93429349D01*
X100767702Y-93560394D01*
X100879146Y-93671838D01*
X101010191Y-93759399D01*
X101026809Y-93766282D01*
X100305112Y-94487979D01*
X100386740Y-94550614D01*
X100386741Y-94550615D01*
X100591138Y-94668625D01*
X100591142Y-94668627D01*
X100809183Y-94758943D01*
X100809193Y-94758946D01*
X101037167Y-94820031D01*
X101037178Y-94820033D01*
X101271162Y-94850839D01*
X101271177Y-94850840D01*
X101507183Y-94850840D01*
X101507197Y-94850839D01*
X101741181Y-94820033D01*
X101741192Y-94820031D01*
X101969166Y-94758946D01*
X101969176Y-94758943D01*
X102187217Y-94668627D01*
X102187221Y-94668625D01*
X102391618Y-94550615D01*
X102391629Y-94550608D01*
X102473246Y-94487980D01*
X102473246Y-94487978D01*
X101751550Y-93766282D01*
X101768169Y-93759399D01*
X101899214Y-93671838D01*
X102010658Y-93560394D01*
X102098219Y-93429349D01*
X102105102Y-93412730D01*
X102826798Y-94134426D01*
X102826800Y-94134426D01*
X102889428Y-94052809D01*
X102889435Y-94052798D01*
X103007445Y-93848401D01*
X103007447Y-93848397D01*
X103097766Y-93630348D01*
X103098077Y-93629434D01*
X103098243Y-93629196D01*
X103099321Y-93626596D01*
X103099902Y-93626836D01*
X103138260Y-93572276D01*
X103202967Y-93545916D01*
X103271653Y-93558724D01*
X103322510Y-93606633D01*
X103339500Y-93669281D01*
X103339500Y-96628502D01*
X103319815Y-96695541D01*
X103267011Y-96741296D01*
X103197853Y-96751240D01*
X103134297Y-96722215D01*
X103100671Y-96672218D01*
X103099794Y-96672582D01*
X103091866Y-96653443D01*
X103007895Y-96450718D01*
X102996455Y-96430904D01*
X102889853Y-96246262D01*
X102746135Y-96058965D01*
X102746129Y-96058958D01*
X102579201Y-95892030D01*
X102579194Y-95892024D01*
X102391897Y-95748306D01*
X102187445Y-95630266D01*
X102187430Y-95630259D01*
X101969326Y-95539918D01*
X101863492Y-95511560D01*
X101741288Y-95478816D01*
X101689273Y-95471968D01*
X101507229Y-95448000D01*
X101507222Y-95448000D01*
X101271138Y-95448000D01*
X101271130Y-95448000D01*
X101063079Y-95475392D01*
X101037072Y-95478816D01*
X100975970Y-95495188D01*
X100809033Y-95539918D01*
X100590929Y-95630259D01*
X100590914Y-95630266D01*
X100386462Y-95748306D01*
X100199165Y-95892024D01*
X100199158Y-95892030D01*
X100032230Y-96058958D01*
X100032224Y-96058965D01*
X99888506Y-96246262D01*
X99770466Y-96450714D01*
X99770459Y-96450729D01*
X99680118Y-96668833D01*
X99619016Y-96896873D01*
X99588200Y-97130930D01*
X99588200Y-97367029D01*
X99612168Y-97549073D01*
X99619016Y-97601088D01*
X99627261Y-97631859D01*
X99680118Y-97829126D01*
X99770459Y-98047230D01*
X99770466Y-98047245D01*
X99888506Y-98251697D01*
X100032224Y-98438994D01*
X100032230Y-98439001D01*
X100199158Y-98605929D01*
X100199165Y-98605935D01*
X100386462Y-98749653D01*
X100590914Y-98867693D01*
X100590929Y-98867700D01*
X100703721Y-98914419D01*
X100809032Y-98958041D01*
X101037072Y-99019144D01*
X101271138Y-99049960D01*
X101271145Y-99049960D01*
X101507215Y-99049960D01*
X101507222Y-99049960D01*
X101741288Y-99019144D01*
X101969328Y-98958041D01*
X102187442Y-98867695D01*
X102391898Y-98749653D01*
X102579196Y-98605934D01*
X102746134Y-98438996D01*
X102889853Y-98251698D01*
X103007895Y-98047242D01*
X103098241Y-97829128D01*
X103098241Y-97829125D01*
X103099794Y-97825378D01*
X103100765Y-97825780D01*
X103138270Y-97772444D01*
X103202979Y-97746091D01*
X103271664Y-97758906D01*
X103322517Y-97806820D01*
X103339500Y-97869457D01*
X103339500Y-100829662D01*
X103319815Y-100896701D01*
X103267011Y-100942456D01*
X103197853Y-100952400D01*
X103134297Y-100923375D01*
X103100671Y-100873378D01*
X103099794Y-100873742D01*
X103007900Y-100651889D01*
X103007893Y-100651874D01*
X102889853Y-100447422D01*
X102746135Y-100260125D01*
X102746129Y-100260118D01*
X102579201Y-100093190D01*
X102579194Y-100093184D01*
X102391897Y-99949466D01*
X102187445Y-99831426D01*
X102187430Y-99831419D01*
X101969326Y-99741078D01*
X101863492Y-99712720D01*
X101741288Y-99679976D01*
X101689273Y-99673128D01*
X101507229Y-99649160D01*
X101507222Y-99649160D01*
X101271138Y-99649160D01*
X101271130Y-99649160D01*
X101063079Y-99676552D01*
X101037072Y-99679976D01*
X100975970Y-99696348D01*
X100809033Y-99741078D01*
X100590929Y-99831419D01*
X100590914Y-99831426D01*
X100386462Y-99949466D01*
X100199165Y-100093184D01*
X100199158Y-100093190D01*
X100032230Y-100260118D01*
X100032224Y-100260125D01*
X99888506Y-100447422D01*
X99770466Y-100651874D01*
X99770459Y-100651889D01*
X99680118Y-100869993D01*
X99619016Y-101098033D01*
X99588200Y-101332090D01*
X99588200Y-101568189D01*
X99612168Y-101750233D01*
X99619016Y-101802248D01*
X99651760Y-101924452D01*
X99680118Y-102030286D01*
X99770459Y-102248390D01*
X99770466Y-102248405D01*
X99888506Y-102452857D01*
X100032224Y-102640154D01*
X100032230Y-102640161D01*
X100199158Y-102807089D01*
X100199165Y-102807095D01*
X100386462Y-102950813D01*
X100590914Y-103068853D01*
X100590929Y-103068860D01*
X100703721Y-103115579D01*
X100809032Y-103159201D01*
X101037072Y-103220304D01*
X101271138Y-103251120D01*
X101271145Y-103251120D01*
X101507215Y-103251120D01*
X101507222Y-103251120D01*
X101741288Y-103220304D01*
X101969328Y-103159201D01*
X102187442Y-103068855D01*
X102391898Y-102950813D01*
X102579196Y-102807094D01*
X102746134Y-102640156D01*
X102889853Y-102452858D01*
X103007895Y-102248402D01*
X103098241Y-102030288D01*
X103098241Y-102030285D01*
X103099794Y-102026538D01*
X103100765Y-102026940D01*
X103138270Y-101973604D01*
X103202979Y-101947251D01*
X103271664Y-101960066D01*
X103322517Y-102007980D01*
X103339500Y-102070617D01*
X103339500Y-104218846D01*
X103370261Y-104373489D01*
X103370264Y-104373501D01*
X103430602Y-104519172D01*
X103430609Y-104519185D01*
X103518210Y-104650288D01*
X103518213Y-104650292D01*
X104788211Y-105920289D01*
X104899708Y-106031786D01*
X104899712Y-106031790D01*
X105030814Y-106119390D01*
X105030827Y-106119397D01*
X105176498Y-106179735D01*
X105176503Y-106179737D01*
X105176507Y-106179737D01*
X105176508Y-106179738D01*
X105331154Y-106210500D01*
X105331157Y-106210500D01*
X110568844Y-106210500D01*
X110568845Y-106210499D01*
X110723497Y-106179737D01*
X110869179Y-106119394D01*
X111000289Y-106031789D01*
X113016789Y-104015289D01*
X113104394Y-103884179D01*
X113164737Y-103738497D01*
X113195500Y-103583842D01*
X113195500Y-103426157D01*
X113195500Y-69136158D01*
X113195500Y-69136155D01*
X113195499Y-69136153D01*
X113176579Y-69041036D01*
X113164737Y-68981503D01*
X113139891Y-68921519D01*
X113104397Y-68835827D01*
X113104390Y-68835814D01*
X113016790Y-68704712D01*
X112961348Y-68649270D01*
X112905289Y-68593211D01*
X112281140Y-67969062D01*
X111541312Y-67229233D01*
X111541308Y-67229230D01*
X111410205Y-67141629D01*
X111410192Y-67141622D01*
X111264521Y-67081284D01*
X111264509Y-67081281D01*
X111109865Y-67050520D01*
X111109862Y-67050520D01*
X108579835Y-67050520D01*
X108512796Y-67030835D01*
X108472448Y-66988520D01*
X108391493Y-66848302D01*
X108247775Y-66661005D01*
X108247769Y-66660998D01*
X108080841Y-66494070D01*
X108080834Y-66494064D01*
X107900895Y-66355992D01*
X107900893Y-66355991D01*
X107893538Y-66350347D01*
X107752992Y-66269203D01*
X107752564Y-66268952D01*
X107728927Y-66243810D01*
X107705104Y-66218825D01*
X107704987Y-66218345D01*
X107704706Y-66218046D01*
X107704028Y-66214389D01*
X107691320Y-66162005D01*
X107691320Y-65338874D01*
X107711005Y-65271835D01*
X107753321Y-65231486D01*
X107893538Y-65150533D01*
X108080836Y-65006814D01*
X108247774Y-64839876D01*
X108391493Y-64652578D01*
X108509535Y-64448122D01*
X108599881Y-64230008D01*
X108660984Y-64001968D01*
X108691800Y-63767902D01*
X108691800Y-63531818D01*
X108660984Y-63297752D01*
X108599881Y-63069712D01*
X108509535Y-62851598D01*
X108391493Y-62647142D01*
X108247774Y-62459844D01*
X108247769Y-62459838D01*
X108080841Y-62292910D01*
X108080834Y-62292904D01*
X107893537Y-62149186D01*
X107753320Y-62068232D01*
X107705104Y-62017665D01*
X107691320Y-61960845D01*
X107691320Y-61146014D01*
X107711005Y-61078975D01*
X107753318Y-61038628D01*
X107885918Y-60962073D01*
X108073216Y-60818354D01*
X108240154Y-60651416D01*
X108383873Y-60464118D01*
X108501915Y-60259662D01*
X108592261Y-60041548D01*
X108653364Y-59813508D01*
X108684180Y-59579442D01*
X108684180Y-59343358D01*
X108653364Y-59109292D01*
X108611458Y-58952898D01*
X108613121Y-58883049D01*
X108643550Y-58833126D01*
X109645108Y-57831568D01*
X109663886Y-57816156D01*
X109730289Y-57771789D01*
X109841789Y-57660289D01*
X109929394Y-57529179D01*
X109989737Y-57383497D01*
X110020500Y-57228842D01*
X110020500Y-46102940D01*
X110029144Y-46073499D01*
X110035668Y-46043513D01*
X110039422Y-46038497D01*
X110040185Y-46035901D01*
X110056819Y-46015259D01*
X112055259Y-44016819D01*
X112116582Y-43983334D01*
X112142940Y-43980500D01*
X120267060Y-43980500D01*
X120334099Y-44000185D01*
X120354741Y-44016819D01*
X120946332Y-44608410D01*
X120979817Y-44669733D01*
X120974833Y-44739425D01*
X120946332Y-44783772D01*
X120889894Y-44840209D01*
X120889890Y-44840213D01*
X120764949Y-45012182D01*
X120760484Y-45020946D01*
X120712509Y-45071742D01*
X120644688Y-45088536D01*
X120578553Y-45065998D01*
X120539516Y-45020946D01*
X120535050Y-45012182D01*
X120410109Y-44840213D01*
X120259786Y-44689890D01*
X120087820Y-44564951D01*
X119898414Y-44468444D01*
X119898413Y-44468443D01*
X119898412Y-44468443D01*
X119696243Y-44402754D01*
X119696241Y-44402753D01*
X119696240Y-44402753D01*
X119534957Y-44377208D01*
X119486287Y-44369500D01*
X119273713Y-44369500D01*
X119225042Y-44377208D01*
X119063760Y-44402753D01*
X118861585Y-44468444D01*
X118672179Y-44564951D01*
X118500213Y-44689890D01*
X118349890Y-44840213D01*
X118224949Y-45012182D01*
X118220202Y-45021499D01*
X118172227Y-45072293D01*
X118104405Y-45089087D01*
X118038271Y-45066548D01*
X117999234Y-45021495D01*
X117994622Y-45012444D01*
X117869727Y-44840540D01*
X117869723Y-44840535D01*
X117719464Y-44690276D01*
X117719459Y-44690272D01*
X117547557Y-44565379D01*
X117358215Y-44468903D01*
X117156124Y-44403241D01*
X117090000Y-44392768D01*
X117090000Y-45286988D01*
X117032993Y-45254075D01*
X116905826Y-45220000D01*
X116774174Y-45220000D01*
X116647007Y-45254075D01*
X116590000Y-45286988D01*
X116590000Y-44392768D01*
X116589999Y-44392768D01*
X116523875Y-44403241D01*
X116321784Y-44468903D01*
X116132442Y-44565379D01*
X115960540Y-44690272D01*
X115960535Y-44690276D01*
X115810276Y-44840535D01*
X115810272Y-44840540D01*
X115685379Y-45012442D01*
X115588904Y-45201782D01*
X115523242Y-45403870D01*
X115523242Y-45403873D01*
X115512769Y-45470000D01*
X116406988Y-45470000D01*
X116374075Y-45527007D01*
X116340000Y-45654174D01*
X116340000Y-45785826D01*
X116374075Y-45912993D01*
X116406988Y-45970000D01*
X115512769Y-45970000D01*
X115523242Y-46036126D01*
X115523242Y-46036129D01*
X115588904Y-46238217D01*
X115685379Y-46427557D01*
X115810272Y-46599459D01*
X115810276Y-46599464D01*
X115960535Y-46749723D01*
X115960540Y-46749727D01*
X116132442Y-46874620D01*
X116321782Y-46971095D01*
X116523871Y-47036757D01*
X116590000Y-47047231D01*
X116590000Y-46153012D01*
X116647007Y-46185925D01*
X116774174Y-46220000D01*
X116905826Y-46220000D01*
X117032993Y-46185925D01*
X117090000Y-46153012D01*
X117090000Y-47047230D01*
X117156126Y-47036757D01*
X117156129Y-47036757D01*
X117358217Y-46971095D01*
X117547557Y-46874620D01*
X117719459Y-46749727D01*
X117719464Y-46749723D01*
X117869723Y-46599464D01*
X117869727Y-46599459D01*
X117994620Y-46427558D01*
X117999232Y-46418507D01*
X118047205Y-46367709D01*
X118115025Y-46350912D01*
X118181161Y-46373447D01*
X118220204Y-46418504D01*
X118224949Y-46427817D01*
X118349890Y-46599786D01*
X118349896Y-46599792D01*
X118500208Y-46750104D01*
X118500209Y-46750105D01*
X118500208Y-46750105D01*
X118523117Y-46766748D01*
X118539393Y-46778573D01*
X118582059Y-46833902D01*
X118588040Y-46903515D01*
X118555435Y-46965310D01*
X118554190Y-46966573D01*
X117741286Y-47779478D01*
X117629481Y-47891282D01*
X117629480Y-47891284D01*
X117579361Y-47978094D01*
X117579359Y-47978096D01*
X117550425Y-48028209D01*
X117550424Y-48028210D01*
X117550423Y-48028215D01*
X117509499Y-48180943D01*
X117509499Y-48180945D01*
X117509499Y-48349046D01*
X117509500Y-48349059D01*
X117509500Y-49426863D01*
X117489815Y-49493902D01*
X117437011Y-49539657D01*
X117367853Y-49549601D01*
X117347182Y-49544794D01*
X117156240Y-49482753D01*
X116994957Y-49457208D01*
X116946287Y-49449500D01*
X116733713Y-49449500D01*
X116685042Y-49457208D01*
X116523760Y-49482753D01*
X116448628Y-49507165D01*
X116326679Y-49546789D01*
X116321585Y-49548444D01*
X116132179Y-49644951D01*
X115960213Y-49769890D01*
X115809890Y-49920213D01*
X115684951Y-50092179D01*
X115588444Y-50281585D01*
X115522753Y-50483760D01*
X115489500Y-50693713D01*
X115489500Y-50906286D01*
X115522753Y-51116239D01*
X115588444Y-51318414D01*
X115684951Y-51507820D01*
X115809890Y-51679786D01*
X115960213Y-51830109D01*
X116132179Y-51955048D01*
X116132181Y-51955049D01*
X116132184Y-51955051D01*
X116321588Y-52051557D01*
X116523757Y-52117246D01*
X116733713Y-52150500D01*
X116733714Y-52150500D01*
X116946286Y-52150500D01*
X116946287Y-52150500D01*
X117156243Y-52117246D01*
X117347185Y-52055204D01*
X117417023Y-52053210D01*
X117476856Y-52089290D01*
X117507684Y-52151991D01*
X117509500Y-52173136D01*
X117509500Y-54546964D01*
X117489815Y-54614003D01*
X117437011Y-54659758D01*
X117367853Y-54669702D01*
X117347182Y-54664895D01*
X117184419Y-54612010D01*
X116982317Y-54580000D01*
X116777683Y-54580000D01*
X116575582Y-54612009D01*
X116380968Y-54675244D01*
X116198644Y-54768143D01*
X116154077Y-54800523D01*
X116154077Y-54800524D01*
X116833553Y-55480000D01*
X116827339Y-55480000D01*
X116725606Y-55507259D01*
X116634394Y-55559920D01*
X116559920Y-55634394D01*
X116507259Y-55725606D01*
X116480000Y-55827339D01*
X116480000Y-55833553D01*
X115800524Y-55154077D01*
X115800523Y-55154077D01*
X115768143Y-55198644D01*
X115675244Y-55380968D01*
X115612009Y-55575582D01*
X115580000Y-55777682D01*
X115580000Y-55982317D01*
X115612009Y-56184417D01*
X115675244Y-56379031D01*
X115768141Y-56561350D01*
X115768147Y-56561359D01*
X115800523Y-56605921D01*
X115800524Y-56605922D01*
X116480000Y-55926446D01*
X116480000Y-55932661D01*
X116507259Y-56034394D01*
X116559920Y-56125606D01*
X116634394Y-56200080D01*
X116725606Y-56252741D01*
X116827339Y-56280000D01*
X116833552Y-56280000D01*
X116154076Y-56959474D01*
X116198650Y-56991859D01*
X116380968Y-57084755D01*
X116575582Y-57147990D01*
X116777683Y-57180000D01*
X116982317Y-57180000D01*
X117184417Y-57147990D01*
X117347181Y-57095103D01*
X117417022Y-57093107D01*
X117476855Y-57129187D01*
X117507684Y-57191888D01*
X117509500Y-57213034D01*
X117509500Y-63413330D01*
X117509499Y-63413348D01*
X117509499Y-63579054D01*
X117509498Y-63579054D01*
X117550423Y-63731785D01*
X117579358Y-63781900D01*
X117579359Y-63781904D01*
X117579360Y-63781904D01*
X117629479Y-63868714D01*
X117629481Y-63868717D01*
X117748349Y-63987585D01*
X117748355Y-63987590D01*
X118554190Y-64793425D01*
X118587675Y-64854748D01*
X118582691Y-64924440D01*
X118540819Y-64980373D01*
X118539397Y-64981422D01*
X118500211Y-65009893D01*
X118500205Y-65009898D01*
X118349890Y-65160213D01*
X118224949Y-65332182D01*
X118220202Y-65341499D01*
X118172227Y-65392293D01*
X118104405Y-65409087D01*
X118038271Y-65386548D01*
X117999234Y-65341495D01*
X117994622Y-65332444D01*
X117869727Y-65160540D01*
X117869723Y-65160535D01*
X117719464Y-65010276D01*
X117719459Y-65010272D01*
X117547557Y-64885379D01*
X117358215Y-64788903D01*
X117156124Y-64723241D01*
X117090000Y-64712768D01*
X117090000Y-65606988D01*
X117032993Y-65574075D01*
X116905826Y-65540000D01*
X116774174Y-65540000D01*
X116647007Y-65574075D01*
X116590000Y-65606988D01*
X116590000Y-64712768D01*
X116589999Y-64712768D01*
X116523875Y-64723241D01*
X116321784Y-64788903D01*
X116132442Y-64885379D01*
X115960540Y-65010272D01*
X115960535Y-65010276D01*
X115810276Y-65160535D01*
X115810272Y-65160540D01*
X115685379Y-65332442D01*
X115588904Y-65521782D01*
X115523242Y-65723870D01*
X115523242Y-65723873D01*
X115512769Y-65790000D01*
X116406988Y-65790000D01*
X116374075Y-65847007D01*
X116340000Y-65974174D01*
X116340000Y-66105826D01*
X116374075Y-66232993D01*
X116406988Y-66290000D01*
X115512769Y-66290000D01*
X115523242Y-66356126D01*
X115523242Y-66356129D01*
X115588904Y-66558217D01*
X115685379Y-66747557D01*
X115810272Y-66919459D01*
X115810276Y-66919464D01*
X115960535Y-67069723D01*
X115960540Y-67069727D01*
X116132442Y-67194620D01*
X116321782Y-67291095D01*
X116523871Y-67356757D01*
X116590000Y-67367231D01*
X116590000Y-66473012D01*
X116647007Y-66505925D01*
X116774174Y-66540000D01*
X116905826Y-66540000D01*
X117032993Y-66505925D01*
X117090000Y-66473012D01*
X117090000Y-67367230D01*
X117156126Y-67356757D01*
X117156129Y-67356757D01*
X117358217Y-67291095D01*
X117547557Y-67194620D01*
X117719459Y-67069727D01*
X117719464Y-67069723D01*
X117869723Y-66919464D01*
X117869727Y-66919459D01*
X117994620Y-66747558D01*
X117999232Y-66738507D01*
X118047205Y-66687709D01*
X118115025Y-66670912D01*
X118181161Y-66693447D01*
X118220204Y-66738504D01*
X118224949Y-66747817D01*
X118349890Y-66919786D01*
X118349896Y-66919792D01*
X118500208Y-67070104D01*
X118500209Y-67070105D01*
X118500208Y-67070105D01*
X118515596Y-67081284D01*
X118539393Y-67098573D01*
X118582059Y-67153902D01*
X118588040Y-67223515D01*
X118555435Y-67285310D01*
X118554190Y-67286573D01*
X117741286Y-68099478D01*
X117629481Y-68211282D01*
X117629479Y-68211285D01*
X117579361Y-68298094D01*
X117579359Y-68298096D01*
X117550425Y-68348209D01*
X117550424Y-68348210D01*
X117543384Y-68374484D01*
X117509499Y-68500943D01*
X117509499Y-68500945D01*
X117509499Y-68669046D01*
X117509500Y-68669059D01*
X117509500Y-69746863D01*
X117489815Y-69813902D01*
X117437011Y-69859657D01*
X117367853Y-69869601D01*
X117347182Y-69864794D01*
X117156240Y-69802753D01*
X116994957Y-69777208D01*
X116946287Y-69769500D01*
X116733713Y-69769500D01*
X116685042Y-69777208D01*
X116523760Y-69802753D01*
X116448628Y-69827165D01*
X116326679Y-69866789D01*
X116321585Y-69868444D01*
X116132179Y-69964951D01*
X115960213Y-70089890D01*
X115809890Y-70240213D01*
X115684951Y-70412179D01*
X115588444Y-70601585D01*
X115522753Y-70803760D01*
X115513906Y-70859618D01*
X115489500Y-71013713D01*
X115489500Y-71226287D01*
X115522754Y-71436243D01*
X115533557Y-71469492D01*
X115588444Y-71638414D01*
X115684951Y-71827820D01*
X115809890Y-71999786D01*
X115960213Y-72150109D01*
X116132179Y-72275048D01*
X116132181Y-72275049D01*
X116132184Y-72275051D01*
X116321588Y-72371557D01*
X116523757Y-72437246D01*
X116733713Y-72470500D01*
X116733714Y-72470500D01*
X116946286Y-72470500D01*
X116946287Y-72470500D01*
X117156243Y-72437246D01*
X117347185Y-72375204D01*
X117417023Y-72373210D01*
X117476856Y-72409290D01*
X117507684Y-72471991D01*
X117509500Y-72493136D01*
X117509500Y-74866964D01*
X117489815Y-74934003D01*
X117437011Y-74979758D01*
X117367853Y-74989702D01*
X117347182Y-74984895D01*
X117184419Y-74932010D01*
X116982317Y-74900000D01*
X116777683Y-74900000D01*
X116575582Y-74932009D01*
X116380968Y-74995244D01*
X116198644Y-75088143D01*
X116154077Y-75120523D01*
X116154077Y-75120524D01*
X116833553Y-75800000D01*
X116827339Y-75800000D01*
X116725606Y-75827259D01*
X116634394Y-75879920D01*
X116559920Y-75954394D01*
X116507259Y-76045606D01*
X116480000Y-76147339D01*
X116480000Y-76153553D01*
X115800524Y-75474077D01*
X115800523Y-75474077D01*
X115768143Y-75518644D01*
X115675244Y-75700968D01*
X115612009Y-75895582D01*
X115580000Y-76097682D01*
X115580000Y-76302317D01*
X115612009Y-76504417D01*
X115675244Y-76699031D01*
X115768141Y-76881350D01*
X115768147Y-76881359D01*
X115800523Y-76925921D01*
X115800524Y-76925922D01*
X116480000Y-76246446D01*
X116480000Y-76252661D01*
X116507259Y-76354394D01*
X116559920Y-76445606D01*
X116634394Y-76520080D01*
X116725606Y-76572741D01*
X116827339Y-76600000D01*
X116833552Y-76600000D01*
X116154076Y-77279474D01*
X116198650Y-77311859D01*
X116380968Y-77404755D01*
X116575582Y-77467990D01*
X116777683Y-77500000D01*
X116982317Y-77500000D01*
X117184417Y-77467990D01*
X117347181Y-77415103D01*
X117417022Y-77413107D01*
X117476855Y-77449187D01*
X117507684Y-77511888D01*
X117509500Y-77533034D01*
X117509500Y-83733330D01*
X117509499Y-83733348D01*
X117509499Y-83899054D01*
X117509498Y-83899054D01*
X117509499Y-83899057D01*
X117550423Y-84051785D01*
X117577508Y-84098697D01*
X117579358Y-84101900D01*
X117579359Y-84101904D01*
X117579360Y-84101904D01*
X117629479Y-84188714D01*
X117629481Y-84188717D01*
X117748349Y-84307585D01*
X117748355Y-84307590D01*
X118554190Y-85113425D01*
X118587675Y-85174748D01*
X118582691Y-85244440D01*
X118540819Y-85300373D01*
X118539397Y-85301422D01*
X118500211Y-85329893D01*
X118500205Y-85329898D01*
X118349890Y-85480213D01*
X118224949Y-85652182D01*
X118220202Y-85661499D01*
X118172227Y-85712293D01*
X118104405Y-85729087D01*
X118038271Y-85706548D01*
X117999234Y-85661495D01*
X117994622Y-85652444D01*
X117869727Y-85480540D01*
X117869723Y-85480535D01*
X117719464Y-85330276D01*
X117719459Y-85330272D01*
X117547557Y-85205379D01*
X117358215Y-85108903D01*
X117156124Y-85043241D01*
X117090000Y-85032768D01*
X117090000Y-85926988D01*
X117032993Y-85894075D01*
X116905826Y-85860000D01*
X116774174Y-85860000D01*
X116647007Y-85894075D01*
X116590000Y-85926988D01*
X116590000Y-85032768D01*
X116589999Y-85032768D01*
X116523875Y-85043241D01*
X116321784Y-85108903D01*
X116132442Y-85205379D01*
X115960540Y-85330272D01*
X115960535Y-85330276D01*
X115810276Y-85480535D01*
X115810272Y-85480540D01*
X115685379Y-85652442D01*
X115588904Y-85841782D01*
X115523242Y-86043870D01*
X115523242Y-86043873D01*
X115512769Y-86110000D01*
X116406988Y-86110000D01*
X116374075Y-86167007D01*
X116340000Y-86294174D01*
X116340000Y-86425826D01*
X116374075Y-86552993D01*
X116406988Y-86610000D01*
X115512769Y-86610000D01*
X115523242Y-86676126D01*
X115523242Y-86676129D01*
X115588904Y-86878217D01*
X115685379Y-87067557D01*
X115810272Y-87239459D01*
X115810276Y-87239464D01*
X115960535Y-87389723D01*
X115960540Y-87389727D01*
X116132442Y-87514620D01*
X116321782Y-87611095D01*
X116523871Y-87676757D01*
X116590000Y-87687231D01*
X116590000Y-86793012D01*
X116647007Y-86825925D01*
X116774174Y-86860000D01*
X116905826Y-86860000D01*
X117032993Y-86825925D01*
X117090000Y-86793012D01*
X117090000Y-87687230D01*
X117156126Y-87676757D01*
X117156129Y-87676757D01*
X117358217Y-87611095D01*
X117547557Y-87514620D01*
X117719459Y-87389727D01*
X117719464Y-87389723D01*
X117869723Y-87239464D01*
X117869727Y-87239459D01*
X117994620Y-87067558D01*
X117999232Y-87058507D01*
X118047205Y-87007709D01*
X118115025Y-86990912D01*
X118181161Y-87013447D01*
X118220204Y-87058504D01*
X118224949Y-87067817D01*
X118349890Y-87239786D01*
X118349896Y-87239792D01*
X118500208Y-87390104D01*
X118500209Y-87390105D01*
X118500208Y-87390105D01*
X118523117Y-87406748D01*
X118539393Y-87418573D01*
X118582059Y-87473902D01*
X118588040Y-87543515D01*
X118555435Y-87605310D01*
X118554190Y-87606573D01*
X117741286Y-88419478D01*
X117629481Y-88531282D01*
X117629480Y-88531284D01*
X117580741Y-88615703D01*
X117550423Y-88668215D01*
X117509499Y-88820943D01*
X117509499Y-88820945D01*
X117509499Y-88989046D01*
X117509500Y-88989059D01*
X117509500Y-90066863D01*
X117489815Y-90133902D01*
X117437011Y-90179657D01*
X117367853Y-90189601D01*
X117347182Y-90184794D01*
X117156240Y-90122753D01*
X116994957Y-90097208D01*
X116946287Y-90089500D01*
X116733713Y-90089500D01*
X116685042Y-90097208D01*
X116523760Y-90122753D01*
X116448628Y-90147165D01*
X116326679Y-90186789D01*
X116321585Y-90188444D01*
X116132179Y-90284951D01*
X115960213Y-90409890D01*
X115809890Y-90560213D01*
X115684951Y-90732179D01*
X115588444Y-90921585D01*
X115522753Y-91123760D01*
X115489500Y-91333713D01*
X115489500Y-91546286D01*
X115522753Y-91756239D01*
X115588444Y-91958414D01*
X115684951Y-92147820D01*
X115809890Y-92319786D01*
X115960213Y-92470109D01*
X116132179Y-92595048D01*
X116132181Y-92595049D01*
X116132184Y-92595051D01*
X116321588Y-92691557D01*
X116523757Y-92757246D01*
X116733713Y-92790500D01*
X116733714Y-92790500D01*
X116946286Y-92790500D01*
X116946287Y-92790500D01*
X117156243Y-92757246D01*
X117347185Y-92695204D01*
X117417023Y-92693210D01*
X117476856Y-92729290D01*
X117507684Y-92791991D01*
X117509500Y-92813136D01*
X117509500Y-93893330D01*
X117509499Y-93893348D01*
X117509499Y-94059054D01*
X117509498Y-94059054D01*
X117550423Y-94211785D01*
X117579358Y-94261900D01*
X117579359Y-94261904D01*
X117579360Y-94261904D01*
X117629479Y-94348714D01*
X117629481Y-94348717D01*
X117748349Y-94467585D01*
X117748355Y-94467590D01*
X118289084Y-95008319D01*
X118322569Y-95069642D01*
X118317585Y-95139334D01*
X118275713Y-95195267D01*
X118210249Y-95219684D01*
X118201403Y-95220000D01*
X118047683Y-95220000D01*
X117845582Y-95252009D01*
X117650968Y-95315244D01*
X117468644Y-95408143D01*
X117424077Y-95440523D01*
X117424077Y-95440524D01*
X118103553Y-96120000D01*
X118097339Y-96120000D01*
X117995606Y-96147259D01*
X117904394Y-96199920D01*
X117829920Y-96274394D01*
X117777259Y-96365606D01*
X117750000Y-96467339D01*
X117750000Y-96473553D01*
X117070524Y-95794077D01*
X117070523Y-95794077D01*
X117038143Y-95838644D01*
X116945244Y-96020968D01*
X116882009Y-96215582D01*
X116850000Y-96417682D01*
X116850000Y-96622317D01*
X116882009Y-96824417D01*
X116945244Y-97019031D01*
X117038141Y-97201350D01*
X117038147Y-97201359D01*
X117070523Y-97245921D01*
X117070524Y-97245922D01*
X117750000Y-96566446D01*
X117750000Y-96572661D01*
X117777259Y-96674394D01*
X117829920Y-96765606D01*
X117904394Y-96840080D01*
X117995606Y-96892741D01*
X118097339Y-96920000D01*
X118103552Y-96920000D01*
X117424076Y-97599474D01*
X117468650Y-97631859D01*
X117650968Y-97724755D01*
X117845582Y-97787990D01*
X118047683Y-97820000D01*
X118252317Y-97820000D01*
X118454417Y-97787990D01*
X118617181Y-97735103D01*
X118687022Y-97733107D01*
X118746855Y-97769187D01*
X118777684Y-97831888D01*
X118779500Y-97853034D01*
X118779500Y-130686000D01*
X118759815Y-130753039D01*
X118707011Y-130798794D01*
X118655500Y-130810000D01*
X115059000Y-130810000D01*
X114991961Y-130790315D01*
X114946206Y-130737511D01*
X114935000Y-130686000D01*
X114935000Y-111760000D01*
X101251742Y-111760000D01*
X101184703Y-111740315D01*
X101138948Y-111687511D01*
X101129004Y-111618353D01*
X101158029Y-111554797D01*
X101176256Y-111537624D01*
X101207230Y-111513856D01*
X101247928Y-111482628D01*
X101442628Y-111287928D01*
X101610249Y-111069479D01*
X101747923Y-110831021D01*
X101853295Y-110576632D01*
X101924560Y-110310666D01*
X101960500Y-110037674D01*
X101960500Y-109762326D01*
X101924560Y-109489334D01*
X101853295Y-109223368D01*
X101747923Y-108968979D01*
X101747921Y-108968976D01*
X101747919Y-108968971D01*
X101686232Y-108862127D01*
X101610249Y-108730521D01*
X101442628Y-108512072D01*
X101442623Y-108512066D01*
X101247933Y-108317376D01*
X101247926Y-108317370D01*
X101029483Y-108149754D01*
X101029482Y-108149753D01*
X101029479Y-108149751D01*
X100934407Y-108094861D01*
X100791028Y-108012080D01*
X100791017Y-108012075D01*
X100536630Y-107906704D01*
X100403649Y-107871072D01*
X100270666Y-107835440D01*
X100270660Y-107835439D01*
X100270655Y-107835438D01*
X99997684Y-107799501D01*
X99997679Y-107799500D01*
X99997674Y-107799500D01*
X99722326Y-107799500D01*
X99722320Y-107799500D01*
X99722315Y-107799501D01*
X99449344Y-107835438D01*
X99449337Y-107835439D01*
X99449334Y-107835440D01*
X99393125Y-107850500D01*
X99183369Y-107906704D01*
X98928982Y-108012075D01*
X98928971Y-108012080D01*
X98690516Y-108149754D01*
X98472073Y-108317370D01*
X98472066Y-108317376D01*
X98277376Y-108512066D01*
X98277370Y-108512073D01*
X98109756Y-108730513D01*
X98021387Y-108883572D01*
X97970819Y-108931787D01*
X97902212Y-108945009D01*
X97837348Y-108919041D01*
X97796820Y-108862127D01*
X97790000Y-108821571D01*
X97790000Y-76132782D01*
X99588700Y-76132782D01*
X99588700Y-76368817D01*
X99619506Y-76602801D01*
X99619508Y-76602812D01*
X99680593Y-76830786D01*
X99680596Y-76830796D01*
X99770912Y-77048837D01*
X99770914Y-77048841D01*
X99888924Y-77253238D01*
X99888930Y-77253248D01*
X99951558Y-77334866D01*
X99951559Y-77334866D01*
X100673256Y-76613168D01*
X100680141Y-76629789D01*
X100767702Y-76760834D01*
X100879146Y-76872278D01*
X101010191Y-76959839D01*
X101026809Y-76966722D01*
X100305112Y-77688419D01*
X100386740Y-77751054D01*
X100386741Y-77751055D01*
X100591138Y-77869065D01*
X100591142Y-77869067D01*
X100809183Y-77959383D01*
X100809193Y-77959386D01*
X101037167Y-78020471D01*
X101037178Y-78020473D01*
X101271162Y-78051279D01*
X101271177Y-78051280D01*
X101507183Y-78051280D01*
X101507197Y-78051279D01*
X101741181Y-78020473D01*
X101741192Y-78020471D01*
X101969166Y-77959386D01*
X101969176Y-77959383D01*
X102187217Y-77869067D01*
X102187221Y-77869065D01*
X102391618Y-77751055D01*
X102391629Y-77751048D01*
X102473246Y-77688420D01*
X102473246Y-77688418D01*
X101751550Y-76966722D01*
X101768169Y-76959839D01*
X101899214Y-76872278D01*
X102010658Y-76760834D01*
X102098219Y-76629789D01*
X102105102Y-76613170D01*
X102826798Y-77334866D01*
X102826800Y-77334866D01*
X102889428Y-77253249D01*
X102889435Y-77253238D01*
X103007445Y-77048841D01*
X103007447Y-77048837D01*
X103097763Y-76830796D01*
X103097766Y-76830786D01*
X103158851Y-76602812D01*
X103158853Y-76602801D01*
X103189659Y-76368817D01*
X103189660Y-76368803D01*
X103189660Y-76132796D01*
X103189659Y-76132782D01*
X105090340Y-76132782D01*
X105090340Y-76368817D01*
X105121146Y-76602801D01*
X105121148Y-76602812D01*
X105182233Y-76830786D01*
X105182236Y-76830796D01*
X105272552Y-77048837D01*
X105272554Y-77048841D01*
X105390564Y-77253238D01*
X105390570Y-77253248D01*
X105453198Y-77334866D01*
X105453199Y-77334866D01*
X106174896Y-76613168D01*
X106181781Y-76629789D01*
X106269342Y-76760834D01*
X106380786Y-76872278D01*
X106511831Y-76959839D01*
X106528449Y-76966722D01*
X105806752Y-77688419D01*
X105888380Y-77751054D01*
X105888381Y-77751055D01*
X106092778Y-77869065D01*
X106092782Y-77869067D01*
X106310823Y-77959383D01*
X106310833Y-77959386D01*
X106538807Y-78020471D01*
X106538818Y-78020473D01*
X106772802Y-78051279D01*
X106772817Y-78051280D01*
X107008823Y-78051280D01*
X107008837Y-78051279D01*
X107242821Y-78020473D01*
X107242832Y-78020471D01*
X107470806Y-77959386D01*
X107470816Y-77959383D01*
X107688857Y-77869067D01*
X107688861Y-77869065D01*
X107893258Y-77751055D01*
X107893269Y-77751048D01*
X107974886Y-77688420D01*
X107974886Y-77688418D01*
X107253190Y-76966722D01*
X107269809Y-76959839D01*
X107400854Y-76872278D01*
X107512298Y-76760834D01*
X107599859Y-76629789D01*
X107606742Y-76613170D01*
X108328438Y-77334866D01*
X108328440Y-77334866D01*
X108391068Y-77253249D01*
X108391075Y-77253238D01*
X108509085Y-77048841D01*
X108509087Y-77048837D01*
X108599403Y-76830796D01*
X108599406Y-76830786D01*
X108660491Y-76602812D01*
X108660493Y-76602801D01*
X108691299Y-76368817D01*
X108691300Y-76368803D01*
X108691300Y-76132796D01*
X108691299Y-76132782D01*
X108660493Y-75898798D01*
X108660491Y-75898787D01*
X108599406Y-75670813D01*
X108599403Y-75670803D01*
X108509087Y-75452762D01*
X108509085Y-75452758D01*
X108391075Y-75248361D01*
X108391074Y-75248360D01*
X108328439Y-75166732D01*
X107606742Y-75888429D01*
X107599859Y-75871811D01*
X107512298Y-75740766D01*
X107400854Y-75629322D01*
X107269809Y-75541761D01*
X107253188Y-75534876D01*
X107974886Y-74813179D01*
X107974886Y-74813178D01*
X107893268Y-74750550D01*
X107893258Y-74750544D01*
X107688861Y-74632534D01*
X107688857Y-74632532D01*
X107470816Y-74542216D01*
X107470806Y-74542213D01*
X107242832Y-74481128D01*
X107242821Y-74481126D01*
X107008837Y-74450320D01*
X106772802Y-74450320D01*
X106538818Y-74481126D01*
X106538807Y-74481128D01*
X106310833Y-74542213D01*
X106310823Y-74542216D01*
X106092782Y-74632532D01*
X106092778Y-74632534D01*
X105888382Y-74750544D01*
X105888374Y-74750549D01*
X105806752Y-74813178D01*
X105806752Y-74813179D01*
X106528450Y-75534877D01*
X106511831Y-75541761D01*
X106380786Y-75629322D01*
X106269342Y-75740766D01*
X106181781Y-75871811D01*
X106174897Y-75888430D01*
X105453199Y-75166732D01*
X105453198Y-75166732D01*
X105390569Y-75248354D01*
X105390564Y-75248362D01*
X105272554Y-75452758D01*
X105272552Y-75452762D01*
X105182236Y-75670803D01*
X105182233Y-75670813D01*
X105121148Y-75898787D01*
X105121146Y-75898798D01*
X105090340Y-76132782D01*
X103189659Y-76132782D01*
X103158853Y-75898798D01*
X103158851Y-75898787D01*
X103097766Y-75670813D01*
X103097763Y-75670803D01*
X103007447Y-75452762D01*
X103007445Y-75452758D01*
X102889435Y-75248361D01*
X102889434Y-75248360D01*
X102826799Y-75166732D01*
X102105102Y-75888429D01*
X102098219Y-75871811D01*
X102010658Y-75740766D01*
X101899214Y-75629322D01*
X101768169Y-75541761D01*
X101751548Y-75534876D01*
X102473246Y-74813179D01*
X102473246Y-74813178D01*
X102391628Y-74750550D01*
X102391618Y-74750544D01*
X102187221Y-74632534D01*
X102187217Y-74632532D01*
X101969176Y-74542216D01*
X101969166Y-74542213D01*
X101741192Y-74481128D01*
X101741181Y-74481126D01*
X101507197Y-74450320D01*
X101271162Y-74450320D01*
X101037178Y-74481126D01*
X101037167Y-74481128D01*
X100809193Y-74542213D01*
X100809183Y-74542216D01*
X100591142Y-74632532D01*
X100591138Y-74632534D01*
X100386742Y-74750544D01*
X100386734Y-74750549D01*
X100305112Y-74813178D01*
X100305112Y-74813179D01*
X101026810Y-75534877D01*
X101010191Y-75541761D01*
X100879146Y-75629322D01*
X100767702Y-75740766D01*
X100680141Y-75871811D01*
X100673257Y-75888430D01*
X99951559Y-75166732D01*
X99951558Y-75166732D01*
X99888929Y-75248354D01*
X99888924Y-75248362D01*
X99770914Y-75452758D01*
X99770912Y-75452762D01*
X99680596Y-75670803D01*
X99680593Y-75670813D01*
X99619508Y-75898787D01*
X99619506Y-75898798D01*
X99588700Y-76132782D01*
X97790000Y-76132782D01*
X97790000Y-71931590D01*
X99588200Y-71931590D01*
X99588200Y-72167689D01*
X99607061Y-72310943D01*
X99619016Y-72401748D01*
X99649113Y-72514070D01*
X99680118Y-72629786D01*
X99770459Y-72847890D01*
X99770466Y-72847905D01*
X99888506Y-73052357D01*
X100032224Y-73239654D01*
X100032230Y-73239661D01*
X100199158Y-73406589D01*
X100199165Y-73406595D01*
X100386462Y-73550313D01*
X100590914Y-73668353D01*
X100590929Y-73668360D01*
X100703721Y-73715079D01*
X100809032Y-73758701D01*
X101037072Y-73819804D01*
X101271138Y-73850620D01*
X101271145Y-73850620D01*
X101507215Y-73850620D01*
X101507222Y-73850620D01*
X101741288Y-73819804D01*
X101969328Y-73758701D01*
X102187442Y-73668355D01*
X102391898Y-73550313D01*
X102579196Y-73406594D01*
X102746134Y-73239656D01*
X102889853Y-73052358D01*
X103007895Y-72847902D01*
X103098241Y-72629788D01*
X103159344Y-72401748D01*
X103190160Y-72167682D01*
X103190160Y-71931598D01*
X103159344Y-71697532D01*
X103098241Y-71469492D01*
X103007895Y-71251378D01*
X102889853Y-71046922D01*
X102746134Y-70859624D01*
X102746129Y-70859618D01*
X102579201Y-70692690D01*
X102579194Y-70692684D01*
X102391897Y-70548966D01*
X102187445Y-70430926D01*
X102187430Y-70430919D01*
X101969326Y-70340578D01*
X101863492Y-70312220D01*
X101741288Y-70279476D01*
X101689273Y-70272628D01*
X101507229Y-70248660D01*
X101507222Y-70248660D01*
X101271138Y-70248660D01*
X101271130Y-70248660D01*
X101063079Y-70276052D01*
X101037072Y-70279476D01*
X100975970Y-70295848D01*
X100809033Y-70340578D01*
X100590929Y-70430919D01*
X100590914Y-70430926D01*
X100386462Y-70548966D01*
X100199165Y-70692684D01*
X100199158Y-70692690D01*
X100032230Y-70859618D01*
X100032224Y-70859625D01*
X99888506Y-71046922D01*
X99770466Y-71251374D01*
X99770459Y-71251389D01*
X99680118Y-71469493D01*
X99619016Y-71697533D01*
X99588200Y-71931590D01*
X97790000Y-71931590D01*
X97790000Y-37978428D01*
X97809685Y-37911389D01*
X97862489Y-37865634D01*
X97931647Y-37855690D01*
X97995203Y-37884715D01*
G37*
%TD.AperFunction*%
%TA.AperFunction,Conductor*%
G36*
X168981444Y-92093999D02*
G01*
X169020486Y-92139056D01*
X169024951Y-92147820D01*
X169149890Y-92319786D01*
X169300213Y-92470109D01*
X169472179Y-92595048D01*
X169472181Y-92595049D01*
X169472184Y-92595051D01*
X169661588Y-92691557D01*
X169863757Y-92757246D01*
X170073713Y-92790500D01*
X170073714Y-92790500D01*
X170286286Y-92790500D01*
X170286287Y-92790500D01*
X170496243Y-92757246D01*
X170587185Y-92727696D01*
X170657022Y-92725702D01*
X170716855Y-92761782D01*
X170747684Y-92824482D01*
X170749500Y-92845628D01*
X170749500Y-93911006D01*
X170749500Y-94048994D01*
X170749500Y-94048996D01*
X170749499Y-94048996D01*
X170776418Y-94184322D01*
X170776421Y-94184332D01*
X170829222Y-94311807D01*
X170905887Y-94426545D01*
X170905888Y-94426546D01*
X171983181Y-95503838D01*
X172016666Y-95565161D01*
X172019500Y-95591519D01*
X172019500Y-130686000D01*
X171999815Y-130753039D01*
X171947011Y-130798794D01*
X171895500Y-130810000D01*
X168364500Y-130810000D01*
X168297461Y-130790315D01*
X168251706Y-130737511D01*
X168240500Y-130686000D01*
X168240500Y-95170945D01*
X168240500Y-95170943D01*
X168199577Y-95018216D01*
X168199577Y-95018215D01*
X168199577Y-95018214D01*
X168170639Y-94968095D01*
X168170637Y-94968092D01*
X168165459Y-94959123D01*
X168120520Y-94881284D01*
X168008716Y-94769480D01*
X168008715Y-94769479D01*
X168004385Y-94765149D01*
X168004374Y-94765139D01*
X167006819Y-93767584D01*
X166973334Y-93706261D01*
X166970500Y-93679903D01*
X166970500Y-92813136D01*
X166990185Y-92746097D01*
X167042989Y-92700342D01*
X167112147Y-92690398D01*
X167132806Y-92695202D01*
X167323757Y-92757246D01*
X167533713Y-92790500D01*
X167533714Y-92790500D01*
X167746286Y-92790500D01*
X167746287Y-92790500D01*
X167956243Y-92757246D01*
X168158412Y-92691557D01*
X168347816Y-92595051D01*
X168434138Y-92532335D01*
X168519786Y-92470109D01*
X168519788Y-92470106D01*
X168519792Y-92470104D01*
X168670104Y-92319792D01*
X168670106Y-92319788D01*
X168670109Y-92319786D01*
X168795048Y-92147820D01*
X168795047Y-92147820D01*
X168795051Y-92147816D01*
X168799514Y-92139054D01*
X168847488Y-92088259D01*
X168915308Y-92071463D01*
X168981444Y-92093999D01*
G37*
%TD.AperFunction*%
%TA.AperFunction,Conductor*%
G36*
X194685169Y-34944685D02*
G01*
X194730924Y-34997489D01*
X194740868Y-35066647D01*
X194711843Y-35130203D01*
X194693616Y-35147376D01*
X194472073Y-35317370D01*
X194472066Y-35317376D01*
X194277376Y-35512066D01*
X194277370Y-35512073D01*
X194109754Y-35730516D01*
X193972080Y-35968971D01*
X193972075Y-35968982D01*
X193866704Y-36223369D01*
X193795441Y-36489331D01*
X193795438Y-36489344D01*
X193759501Y-36762315D01*
X193759500Y-36762332D01*
X193759500Y-37037667D01*
X193759501Y-37037684D01*
X193795438Y-37310655D01*
X193795439Y-37310660D01*
X193795440Y-37310666D01*
X193821831Y-37409158D01*
X193866704Y-37576630D01*
X193972075Y-37831017D01*
X193972080Y-37831028D01*
X194051809Y-37969121D01*
X194109751Y-38069479D01*
X194109753Y-38069482D01*
X194109754Y-38069483D01*
X194277370Y-38287926D01*
X194277376Y-38287933D01*
X194472066Y-38482623D01*
X194472072Y-38482628D01*
X194690521Y-38650249D01*
X194843778Y-38738732D01*
X194928971Y-38787919D01*
X194928976Y-38787921D01*
X194928979Y-38787923D01*
X195183368Y-38893295D01*
X195449334Y-38964560D01*
X195722326Y-39000500D01*
X195722333Y-39000500D01*
X195997667Y-39000500D01*
X195997674Y-39000500D01*
X196270666Y-38964560D01*
X196536632Y-38893295D01*
X196791021Y-38787923D01*
X197029479Y-38650249D01*
X197247928Y-38482628D01*
X197442628Y-38287928D01*
X197610249Y-38069479D01*
X197747923Y-37831021D01*
X197853295Y-37576632D01*
X197876225Y-37491052D01*
X197912590Y-37431393D01*
X197975437Y-37400864D01*
X198044812Y-37409158D01*
X198098690Y-37453644D01*
X198119965Y-37520196D01*
X198120000Y-37523147D01*
X198120000Y-109276852D01*
X198100315Y-109343891D01*
X198047511Y-109389646D01*
X197978353Y-109399590D01*
X197914797Y-109370565D01*
X197877023Y-109311787D01*
X197876225Y-109308945D01*
X197853295Y-109223369D01*
X197747924Y-108968982D01*
X197747919Y-108968971D01*
X197686232Y-108862127D01*
X197610249Y-108730521D01*
X197442628Y-108512072D01*
X197442623Y-108512066D01*
X197247933Y-108317376D01*
X197247926Y-108317370D01*
X197029483Y-108149754D01*
X197029482Y-108149753D01*
X197029479Y-108149751D01*
X196934407Y-108094861D01*
X196791028Y-108012080D01*
X196791017Y-108012075D01*
X196536630Y-107906704D01*
X196403649Y-107871072D01*
X196270666Y-107835440D01*
X196270660Y-107835439D01*
X196270655Y-107835438D01*
X195997684Y-107799501D01*
X195997679Y-107799500D01*
X195997674Y-107799500D01*
X195722326Y-107799500D01*
X195722320Y-107799500D01*
X195722315Y-107799501D01*
X195449344Y-107835438D01*
X195449337Y-107835439D01*
X195449334Y-107835440D01*
X195393125Y-107850500D01*
X195183369Y-107906704D01*
X194928982Y-108012075D01*
X194928971Y-108012080D01*
X194690516Y-108149754D01*
X194472073Y-108317370D01*
X194472066Y-108317376D01*
X194277376Y-108512066D01*
X194277370Y-108512073D01*
X194109754Y-108730516D01*
X193972080Y-108968971D01*
X193972075Y-108968982D01*
X193866704Y-109223369D01*
X193795441Y-109489331D01*
X193795438Y-109489344D01*
X193759501Y-109762315D01*
X193759500Y-109762332D01*
X193759500Y-110037667D01*
X193759501Y-110037684D01*
X193795438Y-110310655D01*
X193795439Y-110310660D01*
X193795440Y-110310666D01*
X193821831Y-110409158D01*
X193866704Y-110576630D01*
X193972075Y-110831017D01*
X193972080Y-110831028D01*
X194051809Y-110969121D01*
X194109751Y-111069479D01*
X194109753Y-111069482D01*
X194109754Y-111069483D01*
X194277370Y-111287926D01*
X194277376Y-111287933D01*
X194472066Y-111482623D01*
X194472073Y-111482629D01*
X194566125Y-111554797D01*
X194690521Y-111650249D01*
X194883002Y-111761378D01*
X194931216Y-111811943D01*
X194945000Y-111868763D01*
X194945000Y-130686000D01*
X194925315Y-130753039D01*
X194872511Y-130798794D01*
X194821000Y-130810000D01*
X191224500Y-130810000D01*
X191157461Y-130790315D01*
X191111706Y-130737511D01*
X191100500Y-130686000D01*
X191100500Y-97839723D01*
X191120185Y-97772684D01*
X191172989Y-97726929D01*
X191242147Y-97716985D01*
X191266228Y-97723593D01*
X191266340Y-97723251D01*
X191465582Y-97787990D01*
X191667683Y-97820000D01*
X191872317Y-97820000D01*
X192074417Y-97787990D01*
X192269031Y-97724755D01*
X192451349Y-97631859D01*
X192495921Y-97599474D01*
X191816447Y-96920000D01*
X191822661Y-96920000D01*
X191924394Y-96892741D01*
X192015606Y-96840080D01*
X192090080Y-96765606D01*
X192142741Y-96674394D01*
X192170000Y-96572661D01*
X192170000Y-96566447D01*
X192849474Y-97245921D01*
X192881859Y-97201349D01*
X192974755Y-97019031D01*
X193037990Y-96824417D01*
X193070000Y-96622317D01*
X193070000Y-96417682D01*
X193037990Y-96215582D01*
X192974755Y-96020968D01*
X192881859Y-95838650D01*
X192849474Y-95794077D01*
X192849474Y-95794076D01*
X192170000Y-96473551D01*
X192170000Y-96467339D01*
X192142741Y-96365606D01*
X192090080Y-96274394D01*
X192015606Y-96199920D01*
X191924394Y-96147259D01*
X191822661Y-96120000D01*
X191816446Y-96120000D01*
X192495922Y-95440524D01*
X192495921Y-95440523D01*
X192451359Y-95408147D01*
X192451350Y-95408141D01*
X192269031Y-95315244D01*
X192074417Y-95252009D01*
X191872317Y-95220000D01*
X191667683Y-95220000D01*
X191465582Y-95252009D01*
X191266340Y-95316749D01*
X191265930Y-95315487D01*
X191202470Y-95322303D01*
X191139994Y-95291022D01*
X191104348Y-95230929D01*
X191100500Y-95200276D01*
X191100500Y-95170945D01*
X191100500Y-95170943D01*
X191059577Y-95018216D01*
X191059577Y-95018215D01*
X191059577Y-95018214D01*
X191030639Y-94968095D01*
X191030637Y-94968092D01*
X191025459Y-94959123D01*
X190980520Y-94881284D01*
X190868716Y-94769480D01*
X190868715Y-94769479D01*
X190864385Y-94765149D01*
X190864374Y-94765139D01*
X189866819Y-93767584D01*
X189833334Y-93706261D01*
X189830500Y-93679903D01*
X189830500Y-92813136D01*
X189850185Y-92746097D01*
X189902989Y-92700342D01*
X189972147Y-92690398D01*
X189992806Y-92695202D01*
X190183757Y-92757246D01*
X190393713Y-92790500D01*
X190393714Y-92790500D01*
X190606286Y-92790500D01*
X190606287Y-92790500D01*
X190816243Y-92757246D01*
X191018412Y-92691557D01*
X191207816Y-92595051D01*
X191377825Y-92471533D01*
X191379784Y-92470110D01*
X191379784Y-92470109D01*
X191379792Y-92470104D01*
X191493329Y-92356566D01*
X191554648Y-92323084D01*
X191624340Y-92328068D01*
X191680274Y-92369939D01*
X191697189Y-92400917D01*
X191746202Y-92532328D01*
X191746206Y-92532335D01*
X191832452Y-92647544D01*
X191832455Y-92647547D01*
X191947664Y-92733793D01*
X191947671Y-92733797D01*
X192082517Y-92784091D01*
X192082516Y-92784091D01*
X192089444Y-92784835D01*
X192142127Y-92790500D01*
X193937872Y-92790499D01*
X193997483Y-92784091D01*
X194132331Y-92733796D01*
X194247546Y-92647546D01*
X194333796Y-92532331D01*
X194384091Y-92397483D01*
X194390500Y-92337873D01*
X194390499Y-90542128D01*
X194384091Y-90482517D01*
X194382810Y-90479083D01*
X194333797Y-90347671D01*
X194333793Y-90347664D01*
X194247547Y-90232455D01*
X194247544Y-90232452D01*
X194132335Y-90146206D01*
X194132328Y-90146202D01*
X193997482Y-90095908D01*
X193997483Y-90095908D01*
X193937883Y-90089501D01*
X193937881Y-90089500D01*
X193937873Y-90089500D01*
X193937864Y-90089500D01*
X192142129Y-90089500D01*
X192142123Y-90089501D01*
X192082516Y-90095908D01*
X191947671Y-90146202D01*
X191947664Y-90146206D01*
X191832455Y-90232452D01*
X191832452Y-90232455D01*
X191746206Y-90347664D01*
X191746203Y-90347669D01*
X191697189Y-90479083D01*
X191655317Y-90535016D01*
X191589853Y-90559433D01*
X191521580Y-90544581D01*
X191493326Y-90523430D01*
X191379786Y-90409890D01*
X191207820Y-90284951D01*
X191018414Y-90188444D01*
X191018413Y-90188443D01*
X191018412Y-90188443D01*
X190816243Y-90122754D01*
X190816241Y-90122753D01*
X190816240Y-90122753D01*
X190654957Y-90097208D01*
X190606287Y-90089500D01*
X190393713Y-90089500D01*
X190354202Y-90095757D01*
X190183759Y-90122753D01*
X189992818Y-90184794D01*
X189922977Y-90186789D01*
X189863144Y-90150709D01*
X189832316Y-90088008D01*
X189830500Y-90066863D01*
X189830500Y-89200096D01*
X189850185Y-89133057D01*
X189866814Y-89112419D01*
X190868713Y-88110521D01*
X190868716Y-88110520D01*
X190980520Y-87998716D01*
X191030639Y-87911904D01*
X191059577Y-87861785D01*
X191100500Y-87709058D01*
X191100500Y-87645718D01*
X191120185Y-87578679D01*
X191168207Y-87535233D01*
X191207815Y-87515052D01*
X191207815Y-87515051D01*
X191207816Y-87515051D01*
X191379792Y-87390104D01*
X191493717Y-87276178D01*
X191555036Y-87242696D01*
X191624728Y-87247680D01*
X191680662Y-87289551D01*
X191697577Y-87320528D01*
X191746646Y-87452088D01*
X191746649Y-87452093D01*
X191832809Y-87567187D01*
X191832812Y-87567190D01*
X191947906Y-87653350D01*
X191947913Y-87653354D01*
X192082620Y-87703596D01*
X192082627Y-87703598D01*
X192142155Y-87709999D01*
X192142172Y-87710000D01*
X192790000Y-87710000D01*
X192790000Y-86793012D01*
X192847007Y-86825925D01*
X192974174Y-86860000D01*
X193105826Y-86860000D01*
X193232993Y-86825925D01*
X193290000Y-86793012D01*
X193290000Y-87710000D01*
X193937828Y-87710000D01*
X193937844Y-87709999D01*
X193997372Y-87703598D01*
X193997379Y-87703596D01*
X194132086Y-87653354D01*
X194132093Y-87653350D01*
X194247187Y-87567190D01*
X194247190Y-87567187D01*
X194333350Y-87452093D01*
X194333354Y-87452086D01*
X194383596Y-87317379D01*
X194383598Y-87317372D01*
X194389999Y-87257844D01*
X194390000Y-87257827D01*
X194390000Y-86610000D01*
X193473012Y-86610000D01*
X193505925Y-86552993D01*
X193540000Y-86425826D01*
X193540000Y-86294174D01*
X193505925Y-86167007D01*
X193473012Y-86110000D01*
X194390000Y-86110000D01*
X194390000Y-85462172D01*
X194389999Y-85462155D01*
X194383598Y-85402627D01*
X194383596Y-85402620D01*
X194333354Y-85267913D01*
X194333350Y-85267906D01*
X194247190Y-85152812D01*
X194247187Y-85152809D01*
X194132093Y-85066649D01*
X194132086Y-85066645D01*
X193997379Y-85016403D01*
X193997372Y-85016401D01*
X193937844Y-85010000D01*
X193290000Y-85010000D01*
X193290000Y-85926988D01*
X193232993Y-85894075D01*
X193105826Y-85860000D01*
X192974174Y-85860000D01*
X192847007Y-85894075D01*
X192790000Y-85926988D01*
X192790000Y-85010000D01*
X192142155Y-85010000D01*
X192082627Y-85016401D01*
X192082620Y-85016403D01*
X191947913Y-85066645D01*
X191947906Y-85066649D01*
X191832812Y-85152809D01*
X191832809Y-85152812D01*
X191746649Y-85267906D01*
X191746646Y-85267912D01*
X191697577Y-85399471D01*
X191655705Y-85455404D01*
X191590241Y-85479821D01*
X191521968Y-85464969D01*
X191493714Y-85443818D01*
X191379786Y-85329890D01*
X191207815Y-85204948D01*
X191207814Y-85204947D01*
X191168205Y-85184765D01*
X191117409Y-85136791D01*
X191100500Y-85074281D01*
X191100500Y-85010941D01*
X191100121Y-85009525D01*
X191100121Y-85009526D01*
X191066475Y-84883960D01*
X191059577Y-84858215D01*
X191030639Y-84808095D01*
X190980520Y-84721284D01*
X190868716Y-84609480D01*
X190868715Y-84609479D01*
X190864385Y-84605149D01*
X190864374Y-84605139D01*
X189866819Y-83607584D01*
X189833334Y-83546261D01*
X189830500Y-83519903D01*
X189830500Y-77533034D01*
X189850185Y-77465995D01*
X189902989Y-77420240D01*
X189972147Y-77410296D01*
X189992819Y-77415103D01*
X190155582Y-77467990D01*
X190357683Y-77500000D01*
X190562317Y-77500000D01*
X190764417Y-77467990D01*
X190959031Y-77404755D01*
X191141349Y-77311859D01*
X191185921Y-77279474D01*
X190506447Y-76600000D01*
X190512661Y-76600000D01*
X190614394Y-76572741D01*
X190705606Y-76520080D01*
X190780080Y-76445606D01*
X190832741Y-76354394D01*
X190860000Y-76252661D01*
X190860000Y-76246448D01*
X191539474Y-76925922D01*
X191539474Y-76925921D01*
X191571859Y-76881349D01*
X191664755Y-76699031D01*
X191727990Y-76504417D01*
X191760000Y-76302317D01*
X191760000Y-76097682D01*
X191727990Y-75895582D01*
X191664755Y-75700968D01*
X191571859Y-75518650D01*
X191539474Y-75474077D01*
X191539474Y-75474076D01*
X190860000Y-76153551D01*
X190860000Y-76147339D01*
X190832741Y-76045606D01*
X190780080Y-75954394D01*
X190705606Y-75879920D01*
X190614394Y-75827259D01*
X190512661Y-75800000D01*
X190506446Y-75800000D01*
X191185922Y-75120524D01*
X191185921Y-75120523D01*
X191141359Y-75088147D01*
X191141350Y-75088141D01*
X190959031Y-74995244D01*
X190764417Y-74932009D01*
X190562317Y-74900000D01*
X190357683Y-74900000D01*
X190155581Y-74932010D01*
X190155578Y-74932010D01*
X189992818Y-74984895D01*
X189922977Y-74986890D01*
X189863144Y-74950810D01*
X189832316Y-74888109D01*
X189830500Y-74866964D01*
X189830500Y-72493136D01*
X189850185Y-72426097D01*
X189902989Y-72380342D01*
X189972147Y-72370398D01*
X189992806Y-72375202D01*
X190183757Y-72437246D01*
X190393713Y-72470500D01*
X190393714Y-72470500D01*
X190606286Y-72470500D01*
X190606287Y-72470500D01*
X190816243Y-72437246D01*
X191018412Y-72371557D01*
X191207816Y-72275051D01*
X191355598Y-72167682D01*
X191379784Y-72150110D01*
X191379784Y-72150109D01*
X191379792Y-72150104D01*
X191493329Y-72036566D01*
X191554648Y-72003084D01*
X191624340Y-72008068D01*
X191680274Y-72049939D01*
X191697189Y-72080917D01*
X191746202Y-72212328D01*
X191746206Y-72212335D01*
X191832452Y-72327544D01*
X191832455Y-72327547D01*
X191947664Y-72413793D01*
X191947671Y-72413797D01*
X192082517Y-72464091D01*
X192082516Y-72464091D01*
X192085335Y-72464394D01*
X192142127Y-72470500D01*
X193937872Y-72470499D01*
X193997483Y-72464091D01*
X194132331Y-72413796D01*
X194247546Y-72327546D01*
X194333796Y-72212331D01*
X194384091Y-72077483D01*
X194390500Y-72017873D01*
X194390499Y-70222128D01*
X194384091Y-70162517D01*
X194382810Y-70159083D01*
X194333797Y-70027671D01*
X194333793Y-70027664D01*
X194247547Y-69912455D01*
X194247544Y-69912452D01*
X194132335Y-69826206D01*
X194132328Y-69826202D01*
X193997482Y-69775908D01*
X193997483Y-69775908D01*
X193937883Y-69769501D01*
X193937881Y-69769500D01*
X193937873Y-69769500D01*
X193937864Y-69769500D01*
X192142129Y-69769500D01*
X192142123Y-69769501D01*
X192082516Y-69775908D01*
X191947671Y-69826202D01*
X191947664Y-69826206D01*
X191832455Y-69912452D01*
X191832452Y-69912455D01*
X191746206Y-70027664D01*
X191746203Y-70027669D01*
X191697189Y-70159083D01*
X191655317Y-70215016D01*
X191589853Y-70239433D01*
X191521580Y-70224581D01*
X191493326Y-70203430D01*
X191379786Y-70089890D01*
X191207820Y-69964951D01*
X191018414Y-69868444D01*
X191018413Y-69868443D01*
X191018412Y-69868443D01*
X190816243Y-69802754D01*
X190816241Y-69802753D01*
X190816240Y-69802753D01*
X190654957Y-69777208D01*
X190606287Y-69769500D01*
X190393713Y-69769500D01*
X190354202Y-69775757D01*
X190183759Y-69802753D01*
X189992818Y-69864794D01*
X189922977Y-69866789D01*
X189863144Y-69830709D01*
X189832316Y-69768008D01*
X189830500Y-69746863D01*
X189830500Y-68880096D01*
X189850185Y-68813057D01*
X189866814Y-68792419D01*
X190868713Y-67790521D01*
X190868716Y-67790520D01*
X190980520Y-67678716D01*
X191030639Y-67591904D01*
X191059577Y-67541785D01*
X191100500Y-67389058D01*
X191100500Y-67325718D01*
X191120185Y-67258679D01*
X191168207Y-67215233D01*
X191207815Y-67195052D01*
X191207815Y-67195051D01*
X191207816Y-67195051D01*
X191379792Y-67070104D01*
X191493717Y-66956178D01*
X191555036Y-66922696D01*
X191624728Y-66927680D01*
X191680662Y-66969551D01*
X191697577Y-67000528D01*
X191746646Y-67132088D01*
X191746649Y-67132093D01*
X191832809Y-67247187D01*
X191832812Y-67247190D01*
X191947906Y-67333350D01*
X191947913Y-67333354D01*
X192082620Y-67383596D01*
X192082627Y-67383598D01*
X192142155Y-67389999D01*
X192142172Y-67390000D01*
X192790000Y-67390000D01*
X192790000Y-66473012D01*
X192847007Y-66505925D01*
X192974174Y-66540000D01*
X193105826Y-66540000D01*
X193232993Y-66505925D01*
X193290000Y-66473012D01*
X193290000Y-67390000D01*
X193937828Y-67390000D01*
X193937844Y-67389999D01*
X193997372Y-67383598D01*
X193997379Y-67383596D01*
X194132086Y-67333354D01*
X194132093Y-67333350D01*
X194247187Y-67247190D01*
X194247190Y-67247187D01*
X194333350Y-67132093D01*
X194333354Y-67132086D01*
X194383596Y-66997379D01*
X194383598Y-66997372D01*
X194389999Y-66937844D01*
X194390000Y-66937827D01*
X194390000Y-66290000D01*
X193473012Y-66290000D01*
X193505925Y-66232993D01*
X193540000Y-66105826D01*
X193540000Y-65974174D01*
X193505925Y-65847007D01*
X193473012Y-65790000D01*
X194390000Y-65790000D01*
X194390000Y-65142172D01*
X194389999Y-65142155D01*
X194383598Y-65082627D01*
X194383596Y-65082620D01*
X194333354Y-64947913D01*
X194333350Y-64947906D01*
X194247190Y-64832812D01*
X194247187Y-64832809D01*
X194132093Y-64746649D01*
X194132086Y-64746645D01*
X193997379Y-64696403D01*
X193997372Y-64696401D01*
X193937844Y-64690000D01*
X193290000Y-64690000D01*
X193290000Y-65606988D01*
X193232993Y-65574075D01*
X193105826Y-65540000D01*
X192974174Y-65540000D01*
X192847007Y-65574075D01*
X192790000Y-65606988D01*
X192790000Y-64690000D01*
X192142155Y-64690000D01*
X192082627Y-64696401D01*
X192082620Y-64696403D01*
X191947913Y-64746645D01*
X191947906Y-64746649D01*
X191832812Y-64832809D01*
X191832809Y-64832812D01*
X191746649Y-64947906D01*
X191746646Y-64947912D01*
X191697577Y-65079471D01*
X191655705Y-65135404D01*
X191590241Y-65159821D01*
X191521968Y-65144969D01*
X191493714Y-65123818D01*
X191379786Y-65009890D01*
X191207815Y-64884948D01*
X191207814Y-64884947D01*
X191168205Y-64864765D01*
X191117409Y-64816791D01*
X191100500Y-64754281D01*
X191100500Y-64690941D01*
X191100121Y-64689525D01*
X191100121Y-64689526D01*
X191090220Y-64652577D01*
X191059577Y-64538215D01*
X191030639Y-64488095D01*
X190980520Y-64401284D01*
X190868716Y-64289480D01*
X190868715Y-64289479D01*
X190864385Y-64285149D01*
X190864374Y-64285139D01*
X189866819Y-63287584D01*
X189833334Y-63226261D01*
X189830500Y-63199903D01*
X189830500Y-57199723D01*
X189850185Y-57132684D01*
X189902989Y-57086929D01*
X189972147Y-57076985D01*
X189996228Y-57083593D01*
X189996340Y-57083251D01*
X190195582Y-57147990D01*
X190397683Y-57180000D01*
X190602317Y-57180000D01*
X190804417Y-57147990D01*
X190999031Y-57084755D01*
X191181349Y-56991859D01*
X191225921Y-56959474D01*
X190546447Y-56280000D01*
X190552661Y-56280000D01*
X190654394Y-56252741D01*
X190745606Y-56200080D01*
X190820080Y-56125606D01*
X190872741Y-56034394D01*
X190900000Y-55932661D01*
X190900000Y-55926447D01*
X191579474Y-56605921D01*
X191611859Y-56561349D01*
X191704755Y-56379031D01*
X191767990Y-56184417D01*
X191800000Y-55982317D01*
X191800000Y-55777682D01*
X191767990Y-55575582D01*
X191704755Y-55380968D01*
X191611859Y-55198650D01*
X191579474Y-55154077D01*
X191579474Y-55154076D01*
X190900000Y-55833551D01*
X190900000Y-55827339D01*
X190872741Y-55725606D01*
X190820080Y-55634394D01*
X190745606Y-55559920D01*
X190654394Y-55507259D01*
X190552661Y-55480000D01*
X190546446Y-55480000D01*
X191225922Y-54800524D01*
X191225921Y-54800523D01*
X191181359Y-54768147D01*
X191181350Y-54768141D01*
X190999031Y-54675244D01*
X190804417Y-54612009D01*
X190602317Y-54580000D01*
X190397683Y-54580000D01*
X190195582Y-54612009D01*
X189996340Y-54676749D01*
X189995930Y-54675487D01*
X189932470Y-54682303D01*
X189869994Y-54651022D01*
X189834348Y-54590929D01*
X189830500Y-54560276D01*
X189830500Y-52173136D01*
X189850185Y-52106097D01*
X189902989Y-52060342D01*
X189972147Y-52050398D01*
X189992806Y-52055202D01*
X190183757Y-52117246D01*
X190393713Y-52150500D01*
X190393714Y-52150500D01*
X190606286Y-52150500D01*
X190606287Y-52150500D01*
X190816243Y-52117246D01*
X191018412Y-52051557D01*
X191207816Y-51955051D01*
X191379792Y-51830104D01*
X191493329Y-51716566D01*
X191554648Y-51683084D01*
X191624340Y-51688068D01*
X191680274Y-51729939D01*
X191697189Y-51760917D01*
X191746202Y-51892328D01*
X191746206Y-51892335D01*
X191832452Y-52007544D01*
X191832455Y-52007547D01*
X191947664Y-52093793D01*
X191947671Y-52093797D01*
X192082517Y-52144091D01*
X192082516Y-52144091D01*
X192089444Y-52144835D01*
X192142127Y-52150500D01*
X193937872Y-52150499D01*
X193997483Y-52144091D01*
X194132331Y-52093796D01*
X194247546Y-52007546D01*
X194333796Y-51892331D01*
X194384091Y-51757483D01*
X194390500Y-51697873D01*
X194390499Y-49902128D01*
X194384091Y-49842517D01*
X194382810Y-49839083D01*
X194333797Y-49707671D01*
X194333793Y-49707664D01*
X194247547Y-49592455D01*
X194247544Y-49592452D01*
X194132335Y-49506206D01*
X194132328Y-49506202D01*
X193997482Y-49455908D01*
X193997483Y-49455908D01*
X193937883Y-49449501D01*
X193937881Y-49449500D01*
X193937873Y-49449500D01*
X193937864Y-49449500D01*
X192142129Y-49449500D01*
X192142123Y-49449501D01*
X192082516Y-49455908D01*
X191947671Y-49506202D01*
X191947664Y-49506206D01*
X191832455Y-49592452D01*
X191832452Y-49592455D01*
X191746206Y-49707664D01*
X191746203Y-49707669D01*
X191697189Y-49839083D01*
X191655317Y-49895016D01*
X191589853Y-49919433D01*
X191521580Y-49904581D01*
X191493326Y-49883430D01*
X191379786Y-49769890D01*
X191207820Y-49644951D01*
X191018414Y-49548444D01*
X191018413Y-49548443D01*
X191018412Y-49548443D01*
X190816243Y-49482754D01*
X190816241Y-49482753D01*
X190816240Y-49482753D01*
X190654957Y-49457208D01*
X190606287Y-49449500D01*
X190393713Y-49449500D01*
X190354202Y-49455757D01*
X190183759Y-49482753D01*
X189992818Y-49544794D01*
X189922977Y-49546789D01*
X189863144Y-49510709D01*
X189832316Y-49448008D01*
X189830500Y-49426863D01*
X189830500Y-48560096D01*
X189850185Y-48493057D01*
X189866814Y-48472419D01*
X190868713Y-47470521D01*
X190868716Y-47470520D01*
X190980520Y-47358716D01*
X191030639Y-47271904D01*
X191059577Y-47221785D01*
X191100500Y-47069058D01*
X191100500Y-47005718D01*
X191120185Y-46938679D01*
X191168207Y-46895233D01*
X191207815Y-46875052D01*
X191207815Y-46875051D01*
X191207816Y-46875051D01*
X191379792Y-46750104D01*
X191493717Y-46636178D01*
X191555036Y-46602696D01*
X191624728Y-46607680D01*
X191680662Y-46649551D01*
X191697577Y-46680528D01*
X191746646Y-46812088D01*
X191746649Y-46812093D01*
X191832809Y-46927187D01*
X191832812Y-46927190D01*
X191947906Y-47013350D01*
X191947913Y-47013354D01*
X192082620Y-47063596D01*
X192082627Y-47063598D01*
X192142155Y-47069999D01*
X192142172Y-47070000D01*
X192790000Y-47070000D01*
X192790000Y-46153012D01*
X192847007Y-46185925D01*
X192974174Y-46220000D01*
X193105826Y-46220000D01*
X193232993Y-46185925D01*
X193290000Y-46153012D01*
X193290000Y-47070000D01*
X193937828Y-47070000D01*
X193937844Y-47069999D01*
X193997372Y-47063598D01*
X193997379Y-47063596D01*
X194132086Y-47013354D01*
X194132093Y-47013350D01*
X194247187Y-46927190D01*
X194247190Y-46927187D01*
X194333350Y-46812093D01*
X194333354Y-46812086D01*
X194383596Y-46677379D01*
X194383598Y-46677372D01*
X194389999Y-46617844D01*
X194390000Y-46617827D01*
X194390000Y-45970000D01*
X193473012Y-45970000D01*
X193505925Y-45912993D01*
X193540000Y-45785826D01*
X193540000Y-45654174D01*
X193505925Y-45527007D01*
X193473012Y-45470000D01*
X194390000Y-45470000D01*
X194390000Y-44822172D01*
X194389999Y-44822155D01*
X194383598Y-44762627D01*
X194383596Y-44762620D01*
X194333354Y-44627913D01*
X194333350Y-44627906D01*
X194247190Y-44512812D01*
X194247187Y-44512809D01*
X194132093Y-44426649D01*
X194132086Y-44426645D01*
X193997379Y-44376403D01*
X193997372Y-44376401D01*
X193937844Y-44370000D01*
X193290000Y-44370000D01*
X193290000Y-45286988D01*
X193232993Y-45254075D01*
X193105826Y-45220000D01*
X192974174Y-45220000D01*
X192847007Y-45254075D01*
X192790000Y-45286988D01*
X192790000Y-44370000D01*
X192142155Y-44370000D01*
X192082627Y-44376401D01*
X192082620Y-44376403D01*
X191947913Y-44426645D01*
X191947906Y-44426649D01*
X191832812Y-44512809D01*
X191832809Y-44512812D01*
X191746649Y-44627906D01*
X191746646Y-44627912D01*
X191697577Y-44759471D01*
X191655705Y-44815404D01*
X191590241Y-44839821D01*
X191521968Y-44824969D01*
X191493714Y-44803818D01*
X191379786Y-44689890D01*
X191207820Y-44564951D01*
X191018414Y-44468444D01*
X191018413Y-44468443D01*
X191018412Y-44468443D01*
X190816243Y-44402754D01*
X190816241Y-44402753D01*
X190816240Y-44402753D01*
X190654957Y-44377208D01*
X190606287Y-44369500D01*
X190393713Y-44369500D01*
X190345042Y-44377208D01*
X190183760Y-44402753D01*
X189981585Y-44468444D01*
X189792179Y-44564951D01*
X189620213Y-44689890D01*
X189469890Y-44840213D01*
X189344949Y-45012182D01*
X189340484Y-45020946D01*
X189292509Y-45071742D01*
X189224688Y-45088536D01*
X189158553Y-45065998D01*
X189119516Y-45020946D01*
X189115050Y-45012182D01*
X188990109Y-44840213D01*
X188839786Y-44689890D01*
X188667820Y-44564951D01*
X188478414Y-44468444D01*
X188478413Y-44468443D01*
X188478412Y-44468443D01*
X188276243Y-44402754D01*
X188276241Y-44402753D01*
X188276240Y-44402753D01*
X188114957Y-44377208D01*
X188066287Y-44369500D01*
X187853713Y-44369500D01*
X187805042Y-44377208D01*
X187643760Y-44402753D01*
X187441585Y-44468444D01*
X187252179Y-44564951D01*
X187080213Y-44689890D01*
X186929890Y-44840213D01*
X186804949Y-45012182D01*
X186800484Y-45020946D01*
X186752509Y-45071742D01*
X186684688Y-45088536D01*
X186618553Y-45065998D01*
X186579516Y-45020946D01*
X186575050Y-45012182D01*
X186450109Y-44840213D01*
X186299786Y-44689890D01*
X186127820Y-44564951D01*
X185938414Y-44468444D01*
X185938413Y-44468443D01*
X185938412Y-44468443D01*
X185736243Y-44402754D01*
X185736241Y-44402753D01*
X185736240Y-44402753D01*
X185574957Y-44377208D01*
X185526287Y-44369500D01*
X185313713Y-44369500D01*
X185265042Y-44377208D01*
X185103760Y-44402753D01*
X184901585Y-44468444D01*
X184712179Y-44564951D01*
X184540213Y-44689890D01*
X184389890Y-44840213D01*
X184264949Y-45012182D01*
X184260484Y-45020946D01*
X184212509Y-45071742D01*
X184144688Y-45088536D01*
X184078553Y-45065998D01*
X184039516Y-45020946D01*
X184035050Y-45012182D01*
X183910109Y-44840213D01*
X183759794Y-44689898D01*
X183759792Y-44689896D01*
X183731613Y-44669422D01*
X183688949Y-44614094D01*
X183680500Y-44569106D01*
X183680500Y-41831155D01*
X183680499Y-41831153D01*
X183649738Y-41676510D01*
X183649737Y-41676503D01*
X183639663Y-41652181D01*
X183589397Y-41530827D01*
X183589390Y-41530814D01*
X183501790Y-41399712D01*
X183501789Y-41399711D01*
X183390289Y-41288211D01*
X182120292Y-40018213D01*
X182120288Y-40018210D01*
X181989185Y-39930609D01*
X181989172Y-39930602D01*
X181843501Y-39870264D01*
X181843489Y-39870261D01*
X181688845Y-39839500D01*
X181688842Y-39839500D01*
X173577561Y-39839500D01*
X173510522Y-39819815D01*
X173464767Y-39767011D01*
X173454823Y-39697853D01*
X173463000Y-39668048D01*
X173489735Y-39603501D01*
X173489737Y-39603497D01*
X173520500Y-39448842D01*
X173520500Y-39291158D01*
X173520500Y-39291155D01*
X173520499Y-39291153D01*
X173489738Y-39136510D01*
X173489737Y-39136503D01*
X173489735Y-39136498D01*
X173429397Y-38990827D01*
X173429390Y-38990814D01*
X173341789Y-38859711D01*
X173341786Y-38859707D01*
X173230292Y-38748213D01*
X173230288Y-38748210D01*
X173099185Y-38660609D01*
X173099172Y-38660602D01*
X172953501Y-38600264D01*
X172953489Y-38600261D01*
X172798845Y-38569500D01*
X172798842Y-38569500D01*
X101678842Y-38569500D01*
X101521157Y-38569500D01*
X101472560Y-38579166D01*
X101402968Y-38572937D01*
X101347792Y-38530074D01*
X101324548Y-38464184D01*
X101340617Y-38396187D01*
X101360685Y-38369870D01*
X101442628Y-38287928D01*
X101610249Y-38069479D01*
X101747923Y-37831021D01*
X101853295Y-37576632D01*
X101924560Y-37310666D01*
X101960500Y-37037674D01*
X101960500Y-36762326D01*
X101924560Y-36489334D01*
X101853295Y-36223368D01*
X101747923Y-35968979D01*
X101747921Y-35968976D01*
X101747919Y-35968971D01*
X101686232Y-35862127D01*
X101610249Y-35730521D01*
X101442628Y-35512072D01*
X101442623Y-35512066D01*
X101247933Y-35317376D01*
X101247926Y-35317370D01*
X101026384Y-35147376D01*
X100985181Y-35090948D01*
X100981026Y-35021202D01*
X101015238Y-34960282D01*
X101076955Y-34927529D01*
X101101870Y-34925000D01*
X194618130Y-34925000D01*
X194685169Y-34944685D01*
G37*
%TD.AperFunction*%
%TA.AperFunction,Conductor*%
G36*
X170430000Y-87687230D02*
G01*
X170496126Y-87676757D01*
X170496129Y-87676757D01*
X170698217Y-87611095D01*
X170887557Y-87514620D01*
X171059459Y-87389727D01*
X171059464Y-87389723D01*
X171209723Y-87239464D01*
X171209727Y-87239459D01*
X171334620Y-87067558D01*
X171339232Y-87058507D01*
X171387205Y-87007709D01*
X171455025Y-86990912D01*
X171521161Y-87013447D01*
X171560204Y-87058504D01*
X171564949Y-87067817D01*
X171689890Y-87239786D01*
X171817042Y-87366938D01*
X171850527Y-87428261D01*
X171845543Y-87497953D01*
X171817042Y-87542300D01*
X170905888Y-88453453D01*
X170905887Y-88453454D01*
X170883330Y-88487213D01*
X170860875Y-88520821D01*
X170844995Y-88544586D01*
X170829223Y-88568191D01*
X170776421Y-88695667D01*
X170776418Y-88695677D01*
X170749500Y-88831004D01*
X170749500Y-90034371D01*
X170729815Y-90101410D01*
X170677011Y-90147165D01*
X170607853Y-90157109D01*
X170587182Y-90152302D01*
X170496240Y-90122753D01*
X170334957Y-90097208D01*
X170286287Y-90089500D01*
X170073713Y-90089500D01*
X170025042Y-90097208D01*
X169863760Y-90122753D01*
X169788628Y-90147165D01*
X169666679Y-90186789D01*
X169661585Y-90188444D01*
X169472179Y-90284951D01*
X169300213Y-90409890D01*
X169149890Y-90560213D01*
X169024949Y-90732182D01*
X169020484Y-90740946D01*
X168972509Y-90791742D01*
X168904688Y-90808536D01*
X168838553Y-90785998D01*
X168799516Y-90740946D01*
X168795050Y-90732182D01*
X168670109Y-90560213D01*
X168519786Y-90409890D01*
X168347820Y-90284951D01*
X168158414Y-90188444D01*
X168158413Y-90188443D01*
X168158412Y-90188443D01*
X167956243Y-90122754D01*
X167956241Y-90122753D01*
X167956240Y-90122753D01*
X167794957Y-90097208D01*
X167746287Y-90089500D01*
X167533713Y-90089500D01*
X167494202Y-90095757D01*
X167323759Y-90122753D01*
X167132818Y-90184794D01*
X167062977Y-90186789D01*
X167003144Y-90150709D01*
X166972316Y-90088008D01*
X166970500Y-90066863D01*
X166970500Y-89200096D01*
X166990185Y-89133057D01*
X167006814Y-89112419D01*
X168008713Y-88110521D01*
X168008716Y-88110520D01*
X168120520Y-87998716D01*
X168170639Y-87911904D01*
X168199577Y-87861785D01*
X168240500Y-87709058D01*
X168240500Y-87645718D01*
X168260185Y-87578679D01*
X168308207Y-87535233D01*
X168347815Y-87515052D01*
X168347815Y-87515051D01*
X168347816Y-87515051D01*
X168480609Y-87418572D01*
X168519786Y-87390109D01*
X168519788Y-87390106D01*
X168519792Y-87390104D01*
X168670104Y-87239792D01*
X168670106Y-87239788D01*
X168670109Y-87239786D01*
X168795048Y-87067820D01*
X168795051Y-87067816D01*
X168799793Y-87058508D01*
X168847763Y-87007711D01*
X168915583Y-86990911D01*
X168981719Y-87013445D01*
X169020763Y-87058500D01*
X169025377Y-87067555D01*
X169150272Y-87239459D01*
X169150276Y-87239464D01*
X169300535Y-87389723D01*
X169300540Y-87389727D01*
X169472442Y-87514620D01*
X169661782Y-87611095D01*
X169863871Y-87676757D01*
X169930000Y-87687231D01*
X169930000Y-86793012D01*
X169987007Y-86825925D01*
X170114174Y-86860000D01*
X170245826Y-86860000D01*
X170372993Y-86825925D01*
X170430000Y-86793012D01*
X170430000Y-87687230D01*
G37*
%TD.AperFunction*%
%TA.AperFunction,Conductor*%
G36*
X168981444Y-71773999D02*
G01*
X169020486Y-71819056D01*
X169024951Y-71827820D01*
X169149890Y-71999786D01*
X169300213Y-72150109D01*
X169472179Y-72275048D01*
X169472181Y-72275049D01*
X169472184Y-72275051D01*
X169661588Y-72371557D01*
X169863757Y-72437246D01*
X170073713Y-72470500D01*
X170073714Y-72470500D01*
X170286286Y-72470500D01*
X170286287Y-72470500D01*
X170496243Y-72437246D01*
X170597354Y-72404392D01*
X170667189Y-72402397D01*
X170727022Y-72438477D01*
X170757284Y-72498132D01*
X170776418Y-72594322D01*
X170776421Y-72594332D01*
X170829222Y-72721807D01*
X170905887Y-72836545D01*
X170905888Y-72836546D01*
X171983181Y-73913838D01*
X172016666Y-73975161D01*
X172019500Y-74001519D01*
X172019500Y-85136452D01*
X171999815Y-85203491D01*
X171968385Y-85236770D01*
X171840213Y-85329890D01*
X171689890Y-85480213D01*
X171564949Y-85652182D01*
X171560202Y-85661499D01*
X171512227Y-85712293D01*
X171444405Y-85729087D01*
X171378271Y-85706548D01*
X171339234Y-85661495D01*
X171334622Y-85652444D01*
X171209727Y-85480540D01*
X171209723Y-85480535D01*
X171059464Y-85330276D01*
X171059459Y-85330272D01*
X170887557Y-85205379D01*
X170698215Y-85108903D01*
X170496124Y-85043241D01*
X170430000Y-85032768D01*
X170430000Y-85926988D01*
X170372993Y-85894075D01*
X170245826Y-85860000D01*
X170114174Y-85860000D01*
X169987007Y-85894075D01*
X169930000Y-85926988D01*
X169930000Y-85032768D01*
X169929999Y-85032768D01*
X169863875Y-85043241D01*
X169661784Y-85108903D01*
X169472442Y-85205379D01*
X169300540Y-85330272D01*
X169300535Y-85330276D01*
X169150276Y-85480535D01*
X169150272Y-85480540D01*
X169025378Y-85652443D01*
X169020762Y-85661502D01*
X168972784Y-85712295D01*
X168904963Y-85729087D01*
X168838829Y-85706546D01*
X168799794Y-85661493D01*
X168795051Y-85652184D01*
X168795049Y-85652181D01*
X168795048Y-85652179D01*
X168670109Y-85480213D01*
X168519786Y-85329890D01*
X168347815Y-85204948D01*
X168347814Y-85204947D01*
X168308205Y-85184765D01*
X168257409Y-85136791D01*
X168240500Y-85074281D01*
X168240500Y-73580945D01*
X168240500Y-73580943D01*
X168199577Y-73428216D01*
X168199577Y-73428215D01*
X168154558Y-73350240D01*
X168120520Y-73291284D01*
X168008716Y-73179480D01*
X168008715Y-73179479D01*
X168004385Y-73175149D01*
X168004374Y-73175139D01*
X167511416Y-72682181D01*
X167477931Y-72620858D01*
X167482915Y-72551166D01*
X167524787Y-72495233D01*
X167590251Y-72470816D01*
X167599097Y-72470500D01*
X167746286Y-72470500D01*
X167746287Y-72470500D01*
X167956243Y-72437246D01*
X168158412Y-72371557D01*
X168347816Y-72275051D01*
X168434138Y-72212335D01*
X168519786Y-72150109D01*
X168519788Y-72150106D01*
X168519792Y-72150104D01*
X168670104Y-71999792D01*
X168670106Y-71999788D01*
X168670109Y-71999786D01*
X168795048Y-71827820D01*
X168795047Y-71827820D01*
X168795051Y-71827816D01*
X168799514Y-71819054D01*
X168847488Y-71768259D01*
X168915308Y-71751463D01*
X168981444Y-71773999D01*
G37*
%TD.AperFunction*%
%TA.AperFunction,Conductor*%
G36*
X170430000Y-67367230D02*
G01*
X170496126Y-67356757D01*
X170496129Y-67356757D01*
X170698217Y-67291095D01*
X170887557Y-67194620D01*
X171059459Y-67069727D01*
X171059464Y-67069723D01*
X171209723Y-66919464D01*
X171209727Y-66919459D01*
X171334620Y-66747558D01*
X171339232Y-66738507D01*
X171387205Y-66687709D01*
X171455025Y-66670912D01*
X171521161Y-66693447D01*
X171560204Y-66738504D01*
X171564949Y-66747817D01*
X171689890Y-66919786D01*
X171817042Y-67046938D01*
X171850527Y-67108261D01*
X171845543Y-67177953D01*
X171817042Y-67222300D01*
X170905888Y-68133453D01*
X170905887Y-68133454D01*
X170829222Y-68248192D01*
X170776421Y-68375667D01*
X170776418Y-68375677D01*
X170749500Y-68511004D01*
X170749500Y-69714371D01*
X170729815Y-69781410D01*
X170677011Y-69827165D01*
X170607853Y-69837109D01*
X170587182Y-69832302D01*
X170496240Y-69802753D01*
X170334957Y-69777208D01*
X170286287Y-69769500D01*
X170073713Y-69769500D01*
X170025042Y-69777208D01*
X169863760Y-69802753D01*
X169788628Y-69827165D01*
X169666679Y-69866789D01*
X169661585Y-69868444D01*
X169472179Y-69964951D01*
X169300213Y-70089890D01*
X169149890Y-70240213D01*
X169024949Y-70412182D01*
X169020484Y-70420946D01*
X168972509Y-70471742D01*
X168904688Y-70488536D01*
X168838553Y-70465998D01*
X168799516Y-70420946D01*
X168795050Y-70412182D01*
X168670109Y-70240213D01*
X168519786Y-70089890D01*
X168347820Y-69964951D01*
X168158414Y-69868444D01*
X168158413Y-69868443D01*
X168158412Y-69868443D01*
X167956243Y-69802754D01*
X167956241Y-69802753D01*
X167956240Y-69802753D01*
X167794957Y-69777208D01*
X167746287Y-69769500D01*
X167533713Y-69769500D01*
X167494202Y-69775757D01*
X167323759Y-69802753D01*
X167132818Y-69864794D01*
X167062977Y-69866789D01*
X167003144Y-69830709D01*
X166972316Y-69768008D01*
X166970500Y-69746863D01*
X166970500Y-68880096D01*
X166990185Y-68813057D01*
X167006814Y-68792419D01*
X168008713Y-67790521D01*
X168008716Y-67790520D01*
X168120520Y-67678716D01*
X168170639Y-67591904D01*
X168199577Y-67541785D01*
X168240500Y-67389058D01*
X168240500Y-67325718D01*
X168260185Y-67258679D01*
X168308207Y-67215233D01*
X168347815Y-67195052D01*
X168347815Y-67195051D01*
X168347816Y-67195051D01*
X168480609Y-67098572D01*
X168519786Y-67070109D01*
X168519788Y-67070106D01*
X168519792Y-67070104D01*
X168670104Y-66919792D01*
X168670106Y-66919788D01*
X168670109Y-66919786D01*
X168795048Y-66747820D01*
X168795051Y-66747816D01*
X168799793Y-66738508D01*
X168847763Y-66687711D01*
X168915583Y-66670911D01*
X168981719Y-66693445D01*
X169020763Y-66738500D01*
X169025377Y-66747555D01*
X169150272Y-66919459D01*
X169150276Y-66919464D01*
X169300535Y-67069723D01*
X169300540Y-67069727D01*
X169472442Y-67194620D01*
X169661782Y-67291095D01*
X169863871Y-67356757D01*
X169930000Y-67367231D01*
X169930000Y-66473012D01*
X169987007Y-66505925D01*
X170114174Y-66540000D01*
X170245826Y-66540000D01*
X170372993Y-66505925D01*
X170430000Y-66473012D01*
X170430000Y-67367230D01*
G37*
%TD.AperFunction*%
%TA.AperFunction,Conductor*%
G36*
X168981444Y-51453999D02*
G01*
X169020486Y-51499056D01*
X169024951Y-51507820D01*
X169149890Y-51679786D01*
X169300213Y-51830109D01*
X169472179Y-51955048D01*
X169472181Y-51955049D01*
X169472184Y-51955051D01*
X169661588Y-52051557D01*
X169863757Y-52117246D01*
X170073713Y-52150500D01*
X170073714Y-52150500D01*
X170286286Y-52150500D01*
X170286287Y-52150500D01*
X170496243Y-52117246D01*
X170597354Y-52084392D01*
X170667189Y-52082397D01*
X170727022Y-52118477D01*
X170757284Y-52178132D01*
X170776418Y-52274322D01*
X170776421Y-52274332D01*
X170829222Y-52401807D01*
X170905887Y-52516545D01*
X170905888Y-52516546D01*
X171983181Y-53593838D01*
X172016666Y-53655161D01*
X172019500Y-53681519D01*
X172019500Y-64816452D01*
X171999815Y-64883491D01*
X171968385Y-64916770D01*
X171840213Y-65009890D01*
X171689890Y-65160213D01*
X171564949Y-65332182D01*
X171560202Y-65341499D01*
X171512227Y-65392293D01*
X171444405Y-65409087D01*
X171378271Y-65386548D01*
X171339234Y-65341495D01*
X171334622Y-65332444D01*
X171209727Y-65160540D01*
X171209723Y-65160535D01*
X171059464Y-65010276D01*
X171059459Y-65010272D01*
X170887557Y-64885379D01*
X170698215Y-64788903D01*
X170496124Y-64723241D01*
X170430000Y-64712768D01*
X170430000Y-65606988D01*
X170372993Y-65574075D01*
X170245826Y-65540000D01*
X170114174Y-65540000D01*
X169987007Y-65574075D01*
X169930000Y-65606988D01*
X169930000Y-64712768D01*
X169929999Y-64712768D01*
X169863875Y-64723241D01*
X169661784Y-64788903D01*
X169472442Y-64885379D01*
X169300540Y-65010272D01*
X169300535Y-65010276D01*
X169150276Y-65160535D01*
X169150272Y-65160540D01*
X169025378Y-65332443D01*
X169020762Y-65341502D01*
X168972784Y-65392295D01*
X168904963Y-65409087D01*
X168838829Y-65386546D01*
X168799794Y-65341493D01*
X168795051Y-65332184D01*
X168795049Y-65332181D01*
X168795048Y-65332179D01*
X168670109Y-65160213D01*
X168519786Y-65009890D01*
X168347815Y-64884948D01*
X168347814Y-64884947D01*
X168308205Y-64864765D01*
X168257409Y-64816791D01*
X168240500Y-64754281D01*
X168240500Y-53260945D01*
X168240500Y-53260943D01*
X168199577Y-53108216D01*
X168199577Y-53108215D01*
X168199577Y-53108214D01*
X168170639Y-53058095D01*
X168170637Y-53058092D01*
X168120520Y-52971284D01*
X168008716Y-52859480D01*
X168008715Y-52859479D01*
X168004385Y-52855149D01*
X168004374Y-52855139D01*
X167511416Y-52362181D01*
X167477931Y-52300858D01*
X167482915Y-52231166D01*
X167524787Y-52175233D01*
X167590251Y-52150816D01*
X167599097Y-52150500D01*
X167746286Y-52150500D01*
X167746287Y-52150500D01*
X167956243Y-52117246D01*
X168158412Y-52051557D01*
X168347816Y-51955051D01*
X168434138Y-51892335D01*
X168519786Y-51830109D01*
X168519788Y-51830106D01*
X168519792Y-51830104D01*
X168670104Y-51679792D01*
X168670106Y-51679788D01*
X168670109Y-51679786D01*
X168795048Y-51507820D01*
X168795047Y-51507820D01*
X168795051Y-51507816D01*
X168799514Y-51499054D01*
X168847488Y-51448259D01*
X168915308Y-51431463D01*
X168981444Y-51453999D01*
G37*
%TD.AperFunction*%
%TA.AperFunction,Conductor*%
G36*
X106174161Y-55649389D02*
G01*
X106261722Y-55780434D01*
X106373166Y-55891878D01*
X106504211Y-55979439D01*
X106520829Y-55986322D01*
X105799132Y-56708019D01*
X105880760Y-56770654D01*
X105880761Y-56770655D01*
X106085158Y-56888665D01*
X106085162Y-56888667D01*
X106303203Y-56978983D01*
X106303213Y-56978986D01*
X106531187Y-57040071D01*
X106531198Y-57040073D01*
X106765182Y-57070879D01*
X106765197Y-57070880D01*
X107001203Y-57070880D01*
X107001217Y-57070879D01*
X107235201Y-57040073D01*
X107235212Y-57040071D01*
X107463186Y-56978986D01*
X107463196Y-56978983D01*
X107681237Y-56888667D01*
X107681241Y-56888665D01*
X107885638Y-56770655D01*
X107885649Y-56770648D01*
X107967266Y-56708020D01*
X107967266Y-56708018D01*
X107245570Y-55986322D01*
X107262189Y-55979439D01*
X107393234Y-55891878D01*
X107504678Y-55780434D01*
X107592239Y-55649389D01*
X107599122Y-55632770D01*
X108333278Y-56366926D01*
X108355571Y-56371914D01*
X108404683Y-56421611D01*
X108419500Y-56480392D01*
X108419500Y-56741659D01*
X108399815Y-56808698D01*
X108383181Y-56829340D01*
X107511474Y-57701047D01*
X107450151Y-57734532D01*
X107391700Y-57733141D01*
X107361079Y-57724936D01*
X107235308Y-57691236D01*
X107206049Y-57687384D01*
X107001249Y-57660420D01*
X107001242Y-57660420D01*
X106765158Y-57660420D01*
X106765150Y-57660420D01*
X106557099Y-57687812D01*
X106531092Y-57691236D01*
X106494477Y-57701047D01*
X106303053Y-57752338D01*
X106084949Y-57842679D01*
X106084934Y-57842686D01*
X105880482Y-57960726D01*
X105693185Y-58104444D01*
X105693178Y-58104450D01*
X105526250Y-58271378D01*
X105526244Y-58271385D01*
X105382526Y-58458682D01*
X105264486Y-58663134D01*
X105264482Y-58663144D01*
X105264480Y-58663149D01*
X105179543Y-58868207D01*
X105179061Y-58869370D01*
X105135220Y-58923773D01*
X105068926Y-58945838D01*
X105001227Y-58928559D01*
X104953616Y-58877422D01*
X104940500Y-58821917D01*
X104940500Y-55908579D01*
X104960185Y-55841540D01*
X105012989Y-55795785D01*
X105082147Y-55785841D01*
X105145703Y-55814866D01*
X105179061Y-55861126D01*
X105264932Y-56068437D01*
X105264934Y-56068441D01*
X105382944Y-56272838D01*
X105382950Y-56272848D01*
X105445578Y-56354466D01*
X105445579Y-56354466D01*
X106167276Y-55632768D01*
X106174161Y-55649389D01*
G37*
%TD.AperFunction*%
%TA.AperFunction,Conductor*%
G36*
X110933915Y-41449742D02*
G01*
X110965712Y-41457858D01*
X110967276Y-41459538D01*
X110969478Y-41460185D01*
X110990958Y-41484974D01*
X111013322Y-41508995D01*
X111013729Y-41511254D01*
X111015233Y-41512989D01*
X111019902Y-41545462D01*
X111025729Y-41577754D01*
X111024971Y-41580720D01*
X111025177Y-41582147D01*
X111017000Y-41611952D01*
X110990264Y-41676498D01*
X110990261Y-41676510D01*
X110959500Y-41831153D01*
X110959500Y-41988846D01*
X110990261Y-42143489D01*
X110990264Y-42143501D01*
X111050602Y-42289172D01*
X111050609Y-42289185D01*
X111138210Y-42420288D01*
X111138213Y-42420292D01*
X111175240Y-42457319D01*
X111208725Y-42518642D01*
X111203741Y-42588334D01*
X111175240Y-42632681D01*
X109868211Y-43939711D01*
X108709711Y-45098211D01*
X108653960Y-45153962D01*
X108598209Y-45209712D01*
X108510609Y-45340814D01*
X108510602Y-45340827D01*
X108450264Y-45486498D01*
X108450261Y-45486510D01*
X108419500Y-45641153D01*
X108419500Y-54060406D01*
X108399815Y-54127445D01*
X108347011Y-54173200D01*
X108331016Y-54176135D01*
X107599122Y-54908029D01*
X107592239Y-54891411D01*
X107504678Y-54760366D01*
X107393234Y-54648922D01*
X107262189Y-54561361D01*
X107245568Y-54554476D01*
X107967266Y-53832779D01*
X107967266Y-53832778D01*
X107885648Y-53770150D01*
X107885638Y-53770144D01*
X107681241Y-53652134D01*
X107681237Y-53652132D01*
X107463196Y-53561816D01*
X107463186Y-53561813D01*
X107235212Y-53500728D01*
X107235201Y-53500726D01*
X107001217Y-53469920D01*
X106765182Y-53469920D01*
X106531198Y-53500726D01*
X106531187Y-53500728D01*
X106303213Y-53561813D01*
X106303203Y-53561816D01*
X106085162Y-53652132D01*
X106085158Y-53652134D01*
X105880762Y-53770144D01*
X105880754Y-53770149D01*
X105799132Y-53832778D01*
X105799132Y-53832779D01*
X106520830Y-54554477D01*
X106504211Y-54561361D01*
X106373166Y-54648922D01*
X106261722Y-54760366D01*
X106174161Y-54891411D01*
X106167277Y-54908030D01*
X105445579Y-54186332D01*
X105445578Y-54186332D01*
X105382949Y-54267954D01*
X105382944Y-54267962D01*
X105264934Y-54472358D01*
X105264932Y-54472362D01*
X105179061Y-54679673D01*
X105135220Y-54734076D01*
X105068926Y-54756141D01*
X105001226Y-54738862D01*
X104953616Y-54687724D01*
X104940500Y-54632220D01*
X104940500Y-43562940D01*
X104960185Y-43495901D01*
X104976819Y-43475259D01*
X106975259Y-41476819D01*
X107036582Y-41443334D01*
X107062940Y-41440500D01*
X110902439Y-41440500D01*
X110933915Y-41449742D01*
G37*
%TD.AperFunction*%
%TA.AperFunction,Conductor*%
G36*
X170430000Y-47047230D02*
G01*
X170496126Y-47036757D01*
X170496129Y-47036757D01*
X170698217Y-46971095D01*
X170887557Y-46874620D01*
X171059459Y-46749727D01*
X171059464Y-46749723D01*
X171209723Y-46599464D01*
X171209727Y-46599459D01*
X171334620Y-46427558D01*
X171339232Y-46418507D01*
X171387205Y-46367709D01*
X171455025Y-46350912D01*
X171521161Y-46373447D01*
X171560204Y-46418504D01*
X171564949Y-46427817D01*
X171689890Y-46599786D01*
X171817042Y-46726938D01*
X171850527Y-46788261D01*
X171845543Y-46857953D01*
X171817042Y-46902300D01*
X170905888Y-47813453D01*
X170905887Y-47813454D01*
X170879827Y-47852456D01*
X170853884Y-47891284D01*
X170829225Y-47928189D01*
X170829222Y-47928194D01*
X170776421Y-48055667D01*
X170776418Y-48055677D01*
X170749500Y-48191004D01*
X170749500Y-49394371D01*
X170729815Y-49461410D01*
X170677011Y-49507165D01*
X170607853Y-49517109D01*
X170587182Y-49512302D01*
X170496240Y-49482753D01*
X170334957Y-49457208D01*
X170286287Y-49449500D01*
X170073713Y-49449500D01*
X170025042Y-49457208D01*
X169863760Y-49482753D01*
X169788628Y-49507165D01*
X169666679Y-49546789D01*
X169661585Y-49548444D01*
X169472179Y-49644951D01*
X169300213Y-49769890D01*
X169149890Y-49920213D01*
X169024949Y-50092182D01*
X169020484Y-50100946D01*
X168972509Y-50151742D01*
X168904688Y-50168536D01*
X168838553Y-50145998D01*
X168799516Y-50100946D01*
X168795050Y-50092182D01*
X168670109Y-49920213D01*
X168519786Y-49769890D01*
X168347820Y-49644951D01*
X168158414Y-49548444D01*
X168158413Y-49548443D01*
X168158412Y-49548443D01*
X167956243Y-49482754D01*
X167956241Y-49482753D01*
X167956240Y-49482753D01*
X167794957Y-49457208D01*
X167746287Y-49449500D01*
X167533713Y-49449500D01*
X167494202Y-49455757D01*
X167323759Y-49482753D01*
X167132818Y-49544794D01*
X167062977Y-49546789D01*
X167003144Y-49510709D01*
X166972316Y-49448008D01*
X166970500Y-49426863D01*
X166970500Y-48560096D01*
X166990185Y-48493057D01*
X167006814Y-48472419D01*
X168008713Y-47470521D01*
X168008716Y-47470520D01*
X168120520Y-47358716D01*
X168170639Y-47271904D01*
X168199577Y-47221785D01*
X168240500Y-47069058D01*
X168240500Y-47005718D01*
X168260185Y-46938679D01*
X168308207Y-46895233D01*
X168347815Y-46875052D01*
X168347815Y-46875051D01*
X168347816Y-46875051D01*
X168480609Y-46778572D01*
X168519786Y-46750109D01*
X168519788Y-46750106D01*
X168519792Y-46750104D01*
X168670104Y-46599792D01*
X168670106Y-46599788D01*
X168670109Y-46599786D01*
X168795048Y-46427820D01*
X168795051Y-46427816D01*
X168799793Y-46418508D01*
X168847763Y-46367711D01*
X168915583Y-46350911D01*
X168981719Y-46373445D01*
X169020763Y-46418500D01*
X169025377Y-46427555D01*
X169150272Y-46599459D01*
X169150276Y-46599464D01*
X169300535Y-46749723D01*
X169300540Y-46749727D01*
X169472442Y-46874620D01*
X169661782Y-46971095D01*
X169863871Y-47036757D01*
X169930000Y-47047231D01*
X169930000Y-46153012D01*
X169987007Y-46185925D01*
X170114174Y-46220000D01*
X170245826Y-46220000D01*
X170372993Y-46185925D01*
X170430000Y-46153012D01*
X170430000Y-47047230D01*
G37*
%TD.AperFunction*%
%TA.AperFunction,Conductor*%
G36*
X176214099Y-42730185D02*
G01*
X176234741Y-42746819D01*
X176963181Y-43475259D01*
X176996666Y-43536582D01*
X176999500Y-43562940D01*
X176999500Y-44569106D01*
X176979815Y-44636145D01*
X176948387Y-44669422D01*
X176920208Y-44689896D01*
X176920206Y-44689898D01*
X176920205Y-44689898D01*
X176769890Y-44840213D01*
X176644949Y-45012182D01*
X176640484Y-45020946D01*
X176592509Y-45071742D01*
X176524688Y-45088536D01*
X176458553Y-45065998D01*
X176419516Y-45020946D01*
X176415050Y-45012182D01*
X176290109Y-44840213D01*
X176139786Y-44689890D01*
X175967820Y-44564951D01*
X175778414Y-44468444D01*
X175778413Y-44468443D01*
X175778412Y-44468443D01*
X175576243Y-44402754D01*
X175576241Y-44402753D01*
X175576240Y-44402753D01*
X175414957Y-44377208D01*
X175366287Y-44369500D01*
X175153713Y-44369500D01*
X175105042Y-44377208D01*
X174943760Y-44402753D01*
X174741585Y-44468444D01*
X174552179Y-44564951D01*
X174380213Y-44689890D01*
X174229890Y-44840213D01*
X174104949Y-45012182D01*
X174100484Y-45020946D01*
X174052509Y-45071742D01*
X173984688Y-45088536D01*
X173918553Y-45065998D01*
X173879516Y-45020946D01*
X173875050Y-45012182D01*
X173750109Y-44840213D01*
X173599786Y-44689890D01*
X173427820Y-44564951D01*
X173238414Y-44468444D01*
X173238413Y-44468443D01*
X173238412Y-44468443D01*
X173036243Y-44402754D01*
X173036241Y-44402753D01*
X173036240Y-44402753D01*
X172874957Y-44377208D01*
X172826287Y-44369500D01*
X172613713Y-44369500D01*
X172565042Y-44377208D01*
X172403760Y-44402753D01*
X172201585Y-44468444D01*
X172012179Y-44564951D01*
X171840213Y-44689890D01*
X171689890Y-44840213D01*
X171564949Y-45012182D01*
X171560202Y-45021499D01*
X171512227Y-45072293D01*
X171444405Y-45089087D01*
X171378271Y-45066548D01*
X171339234Y-45021495D01*
X171334622Y-45012444D01*
X171209727Y-44840540D01*
X171209723Y-44840535D01*
X171059464Y-44690276D01*
X171059459Y-44690272D01*
X170887557Y-44565379D01*
X170698215Y-44468903D01*
X170496124Y-44403241D01*
X170430000Y-44392768D01*
X170430000Y-45286988D01*
X170372993Y-45254075D01*
X170245826Y-45220000D01*
X170114174Y-45220000D01*
X169987007Y-45254075D01*
X169930000Y-45286988D01*
X169930000Y-44392768D01*
X169929999Y-44392768D01*
X169863875Y-44403241D01*
X169661784Y-44468903D01*
X169472442Y-44565379D01*
X169300540Y-44690272D01*
X169300535Y-44690276D01*
X169150276Y-44840535D01*
X169150272Y-44840540D01*
X169025378Y-45012443D01*
X169020762Y-45021502D01*
X168972784Y-45072295D01*
X168904963Y-45089087D01*
X168838829Y-45066546D01*
X168799794Y-45021493D01*
X168795051Y-45012184D01*
X168795049Y-45012181D01*
X168795048Y-45012179D01*
X168670109Y-44840213D01*
X168519786Y-44689890D01*
X168347820Y-44564951D01*
X168158414Y-44468444D01*
X168158413Y-44468443D01*
X168158412Y-44468443D01*
X167956243Y-44402754D01*
X167956241Y-44402753D01*
X167956240Y-44402753D01*
X167794957Y-44377208D01*
X167746287Y-44369500D01*
X167533713Y-44369500D01*
X167485042Y-44377208D01*
X167323760Y-44402753D01*
X167121585Y-44468444D01*
X166932179Y-44564951D01*
X166760213Y-44689890D01*
X166609890Y-44840213D01*
X166484949Y-45012182D01*
X166480484Y-45020946D01*
X166432509Y-45071742D01*
X166364688Y-45088536D01*
X166298553Y-45065998D01*
X166259516Y-45020946D01*
X166255050Y-45012182D01*
X166130109Y-44840213D01*
X165979786Y-44689890D01*
X165807820Y-44564951D01*
X165618414Y-44468444D01*
X165618413Y-44468443D01*
X165618412Y-44468443D01*
X165416243Y-44402754D01*
X165416241Y-44402753D01*
X165416240Y-44402753D01*
X165254957Y-44377208D01*
X165206287Y-44369500D01*
X164993713Y-44369500D01*
X164945042Y-44377208D01*
X164783760Y-44402753D01*
X164581585Y-44468444D01*
X164392179Y-44564951D01*
X164220213Y-44689890D01*
X164069890Y-44840213D01*
X163944949Y-45012182D01*
X163940484Y-45020946D01*
X163892509Y-45071742D01*
X163824688Y-45088536D01*
X163758553Y-45065998D01*
X163719516Y-45020946D01*
X163715050Y-45012182D01*
X163590109Y-44840213D01*
X163439786Y-44689890D01*
X163267820Y-44564951D01*
X163078414Y-44468444D01*
X163078413Y-44468443D01*
X163078412Y-44468443D01*
X162876243Y-44402754D01*
X162876241Y-44402753D01*
X162876240Y-44402753D01*
X162714957Y-44377208D01*
X162666287Y-44369500D01*
X162453713Y-44369500D01*
X162405042Y-44377208D01*
X162243760Y-44402753D01*
X162041585Y-44468444D01*
X161852179Y-44564951D01*
X161680213Y-44689890D01*
X161529890Y-44840213D01*
X161404949Y-45012182D01*
X161400484Y-45020946D01*
X161352509Y-45071742D01*
X161284688Y-45088536D01*
X161218553Y-45065998D01*
X161179516Y-45020946D01*
X161175050Y-45012182D01*
X161050109Y-44840213D01*
X160899786Y-44689890D01*
X160727820Y-44564951D01*
X160538414Y-44468444D01*
X160538413Y-44468443D01*
X160538412Y-44468443D01*
X160336243Y-44402754D01*
X160336241Y-44402753D01*
X160336240Y-44402753D01*
X160174957Y-44377208D01*
X160126287Y-44369500D01*
X159913713Y-44369500D01*
X159865042Y-44377208D01*
X159703760Y-44402753D01*
X159501585Y-44468444D01*
X159312179Y-44564951D01*
X159140213Y-44689890D01*
X158989890Y-44840213D01*
X158864949Y-45012182D01*
X158860484Y-45020946D01*
X158812509Y-45071742D01*
X158744688Y-45088536D01*
X158678553Y-45065998D01*
X158639516Y-45020946D01*
X158635050Y-45012182D01*
X158510109Y-44840213D01*
X158359786Y-44689890D01*
X158187820Y-44564951D01*
X157998414Y-44468444D01*
X157998413Y-44468443D01*
X157998412Y-44468443D01*
X157796243Y-44402754D01*
X157796241Y-44402753D01*
X157796240Y-44402753D01*
X157634957Y-44377208D01*
X157586287Y-44369500D01*
X157373713Y-44369500D01*
X157325042Y-44377208D01*
X157163760Y-44402753D01*
X156961585Y-44468444D01*
X156772179Y-44564951D01*
X156600213Y-44689890D01*
X156449890Y-44840213D01*
X156324949Y-45012182D01*
X156320484Y-45020946D01*
X156272509Y-45071742D01*
X156204688Y-45088536D01*
X156138553Y-45065998D01*
X156099516Y-45020946D01*
X156095050Y-45012182D01*
X155970109Y-44840213D01*
X155819786Y-44689890D01*
X155647820Y-44564951D01*
X155458414Y-44468444D01*
X155458413Y-44468443D01*
X155458412Y-44468443D01*
X155256243Y-44402754D01*
X155256241Y-44402753D01*
X155256240Y-44402753D01*
X155094957Y-44377208D01*
X155046287Y-44369500D01*
X154833713Y-44369500D01*
X154785042Y-44377208D01*
X154623760Y-44402753D01*
X154421585Y-44468444D01*
X154232179Y-44564951D01*
X154060213Y-44689890D01*
X153909890Y-44840213D01*
X153784949Y-45012182D01*
X153780484Y-45020946D01*
X153732509Y-45071742D01*
X153664688Y-45088536D01*
X153598553Y-45065998D01*
X153559516Y-45020946D01*
X153555050Y-45012182D01*
X153430109Y-44840213D01*
X153279786Y-44689890D01*
X153107820Y-44564951D01*
X152918414Y-44468444D01*
X152918413Y-44468443D01*
X152918412Y-44468443D01*
X152716243Y-44402754D01*
X152716241Y-44402753D01*
X152716240Y-44402753D01*
X152554957Y-44377208D01*
X152506287Y-44369500D01*
X152293713Y-44369500D01*
X152245042Y-44377208D01*
X152083760Y-44402753D01*
X151881585Y-44468444D01*
X151692179Y-44564951D01*
X151520213Y-44689890D01*
X151369890Y-44840213D01*
X151244949Y-45012182D01*
X151240484Y-45020946D01*
X151192509Y-45071742D01*
X151124688Y-45088536D01*
X151058553Y-45065998D01*
X151019516Y-45020946D01*
X151015050Y-45012182D01*
X150890109Y-44840213D01*
X150739786Y-44689890D01*
X150567820Y-44564951D01*
X150378414Y-44468444D01*
X150378413Y-44468443D01*
X150378412Y-44468443D01*
X150176243Y-44402754D01*
X150176241Y-44402753D01*
X150176240Y-44402753D01*
X150014957Y-44377208D01*
X149966287Y-44369500D01*
X149753713Y-44369500D01*
X149705042Y-44377208D01*
X149543760Y-44402753D01*
X149341585Y-44468444D01*
X149152179Y-44564951D01*
X148980213Y-44689890D01*
X148829890Y-44840213D01*
X148704949Y-45012182D01*
X148700484Y-45020946D01*
X148652509Y-45071742D01*
X148584688Y-45088536D01*
X148518553Y-45065998D01*
X148479516Y-45020946D01*
X148475050Y-45012182D01*
X148350109Y-44840213D01*
X148199786Y-44689890D01*
X148027820Y-44564951D01*
X147838414Y-44468444D01*
X147838413Y-44468443D01*
X147838412Y-44468443D01*
X147636243Y-44402754D01*
X147636241Y-44402753D01*
X147636240Y-44402753D01*
X147474957Y-44377208D01*
X147426287Y-44369500D01*
X147213713Y-44369500D01*
X147165042Y-44377208D01*
X147003760Y-44402753D01*
X146801585Y-44468444D01*
X146612179Y-44564951D01*
X146440213Y-44689890D01*
X146289890Y-44840213D01*
X146164949Y-45012182D01*
X146160484Y-45020946D01*
X146112509Y-45071742D01*
X146044688Y-45088536D01*
X145978553Y-45065998D01*
X145939516Y-45020946D01*
X145935050Y-45012182D01*
X145810109Y-44840213D01*
X145659786Y-44689890D01*
X145487820Y-44564951D01*
X145298414Y-44468444D01*
X145298413Y-44468443D01*
X145298412Y-44468443D01*
X145096243Y-44402754D01*
X145096241Y-44402753D01*
X145096240Y-44402753D01*
X144934957Y-44377208D01*
X144886287Y-44369500D01*
X144673713Y-44369500D01*
X144625042Y-44377208D01*
X144463760Y-44402753D01*
X144261585Y-44468444D01*
X144072179Y-44564951D01*
X143900213Y-44689890D01*
X143749890Y-44840213D01*
X143624949Y-45012182D01*
X143620484Y-45020946D01*
X143572509Y-45071742D01*
X143504688Y-45088536D01*
X143438553Y-45065998D01*
X143399516Y-45020946D01*
X143395050Y-45012182D01*
X143270109Y-44840213D01*
X143119786Y-44689890D01*
X142947820Y-44564951D01*
X142758414Y-44468444D01*
X142758413Y-44468443D01*
X142758412Y-44468443D01*
X142556243Y-44402754D01*
X142556241Y-44402753D01*
X142556240Y-44402753D01*
X142394957Y-44377208D01*
X142346287Y-44369500D01*
X142133713Y-44369500D01*
X142085042Y-44377208D01*
X141923760Y-44402753D01*
X141721585Y-44468444D01*
X141532179Y-44564951D01*
X141360213Y-44689890D01*
X141209890Y-44840213D01*
X141084949Y-45012182D01*
X141080484Y-45020946D01*
X141032509Y-45071742D01*
X140964688Y-45088536D01*
X140898553Y-45065998D01*
X140859516Y-45020946D01*
X140855050Y-45012182D01*
X140730109Y-44840213D01*
X140579786Y-44689890D01*
X140407820Y-44564951D01*
X140218414Y-44468444D01*
X140218413Y-44468443D01*
X140218412Y-44468443D01*
X140016243Y-44402754D01*
X140016241Y-44402753D01*
X140016240Y-44402753D01*
X139854957Y-44377208D01*
X139806287Y-44369500D01*
X139593713Y-44369500D01*
X139545042Y-44377208D01*
X139383760Y-44402753D01*
X139181585Y-44468444D01*
X138992179Y-44564951D01*
X138820213Y-44689890D01*
X138669890Y-44840213D01*
X138544949Y-45012182D01*
X138540484Y-45020946D01*
X138492509Y-45071742D01*
X138424688Y-45088536D01*
X138358553Y-45065998D01*
X138319516Y-45020946D01*
X138315050Y-45012182D01*
X138190109Y-44840213D01*
X138039786Y-44689890D01*
X137867820Y-44564951D01*
X137678414Y-44468444D01*
X137678413Y-44468443D01*
X137678412Y-44468443D01*
X137476243Y-44402754D01*
X137476241Y-44402753D01*
X137476240Y-44402753D01*
X137314957Y-44377208D01*
X137266287Y-44369500D01*
X137053713Y-44369500D01*
X137005042Y-44377208D01*
X136843760Y-44402753D01*
X136641585Y-44468444D01*
X136452179Y-44564951D01*
X136280213Y-44689890D01*
X136129890Y-44840213D01*
X136004949Y-45012182D01*
X136000484Y-45020946D01*
X135952509Y-45071742D01*
X135884688Y-45088536D01*
X135818553Y-45065998D01*
X135779516Y-45020946D01*
X135775050Y-45012182D01*
X135650109Y-44840213D01*
X135499786Y-44689890D01*
X135327820Y-44564951D01*
X135138414Y-44468444D01*
X135138413Y-44468443D01*
X135138412Y-44468443D01*
X134936243Y-44402754D01*
X134936241Y-44402753D01*
X134936240Y-44402753D01*
X134774957Y-44377208D01*
X134726287Y-44369500D01*
X134513713Y-44369500D01*
X134465042Y-44377208D01*
X134303760Y-44402753D01*
X134101585Y-44468444D01*
X133912179Y-44564951D01*
X133740213Y-44689890D01*
X133589890Y-44840213D01*
X133464949Y-45012182D01*
X133460484Y-45020946D01*
X133412509Y-45071742D01*
X133344688Y-45088536D01*
X133278553Y-45065998D01*
X133239516Y-45020946D01*
X133235050Y-45012182D01*
X133110109Y-44840213D01*
X132959786Y-44689890D01*
X132787820Y-44564951D01*
X132598414Y-44468444D01*
X132598413Y-44468443D01*
X132598412Y-44468443D01*
X132396243Y-44402754D01*
X132396241Y-44402753D01*
X132396240Y-44402753D01*
X132234957Y-44377208D01*
X132186287Y-44369500D01*
X131973713Y-44369500D01*
X131925042Y-44377208D01*
X131763760Y-44402753D01*
X131561585Y-44468444D01*
X131372179Y-44564951D01*
X131200213Y-44689890D01*
X131049890Y-44840213D01*
X130924949Y-45012182D01*
X130920484Y-45020946D01*
X130872509Y-45071742D01*
X130804688Y-45088536D01*
X130738553Y-45065998D01*
X130699516Y-45020946D01*
X130695050Y-45012182D01*
X130570109Y-44840213D01*
X130419786Y-44689890D01*
X130247820Y-44564951D01*
X130058414Y-44468444D01*
X130058413Y-44468443D01*
X130058412Y-44468443D01*
X129856243Y-44402754D01*
X129856241Y-44402753D01*
X129856240Y-44402753D01*
X129694957Y-44377208D01*
X129646287Y-44369500D01*
X129433713Y-44369500D01*
X129385042Y-44377208D01*
X129223760Y-44402753D01*
X129021585Y-44468444D01*
X128832179Y-44564951D01*
X128660213Y-44689890D01*
X128509890Y-44840213D01*
X128384949Y-45012182D01*
X128380484Y-45020946D01*
X128332509Y-45071742D01*
X128264688Y-45088536D01*
X128198553Y-45065998D01*
X128159516Y-45020946D01*
X128155050Y-45012182D01*
X128030109Y-44840213D01*
X127879786Y-44689890D01*
X127707820Y-44564951D01*
X127518414Y-44468444D01*
X127518413Y-44468443D01*
X127518412Y-44468443D01*
X127316243Y-44402754D01*
X127316241Y-44402753D01*
X127316240Y-44402753D01*
X127154957Y-44377208D01*
X127106287Y-44369500D01*
X126893713Y-44369500D01*
X126845042Y-44377208D01*
X126683760Y-44402753D01*
X126481585Y-44468444D01*
X126292179Y-44564951D01*
X126120213Y-44689890D01*
X125969890Y-44840213D01*
X125844949Y-45012182D01*
X125840484Y-45020946D01*
X125792509Y-45071742D01*
X125724688Y-45088536D01*
X125658553Y-45065998D01*
X125619516Y-45020946D01*
X125615050Y-45012182D01*
X125490109Y-44840213D01*
X125339786Y-44689890D01*
X125167820Y-44564951D01*
X124978414Y-44468444D01*
X124978413Y-44468443D01*
X124978412Y-44468443D01*
X124776243Y-44402754D01*
X124776241Y-44402753D01*
X124776240Y-44402753D01*
X124614957Y-44377208D01*
X124566287Y-44369500D01*
X124353713Y-44369500D01*
X124305042Y-44377208D01*
X124143760Y-44402753D01*
X123941585Y-44468444D01*
X123752179Y-44564951D01*
X123580213Y-44689890D01*
X123429890Y-44840213D01*
X123304949Y-45012182D01*
X123300484Y-45020946D01*
X123252509Y-45071742D01*
X123184688Y-45088536D01*
X123118553Y-45065998D01*
X123079516Y-45020946D01*
X123075050Y-45012182D01*
X122950109Y-44840213D01*
X122799794Y-44689898D01*
X122799792Y-44689896D01*
X122771613Y-44669422D01*
X122728949Y-44614094D01*
X122720500Y-44569106D01*
X122720500Y-44371155D01*
X122720499Y-44371153D01*
X122689738Y-44216510D01*
X122689737Y-44216503D01*
X122689735Y-44216498D01*
X122629397Y-44070827D01*
X122629390Y-44070814D01*
X122541790Y-43939712D01*
X122541789Y-43939711D01*
X122430289Y-43828211D01*
X121524259Y-42922181D01*
X121490774Y-42860858D01*
X121495758Y-42791166D01*
X121537630Y-42735233D01*
X121603094Y-42710816D01*
X121611940Y-42710500D01*
X176147060Y-42710500D01*
X176214099Y-42730185D01*
G37*
%TD.AperFunction*%
%TD*%
M02*
