%TF.GenerationSoftware,KiCad,Pcbnew,9.0.3*%
%TF.CreationDate,2025-07-28T21:25:01+02:00*%
%TF.ProjectId,Riser_M19_EXT,52697365-725f-44d3-9139-5f4558542e6b,rev?*%
%TF.SameCoordinates,Original*%
%TF.FileFunction,Soldermask,Bot*%
%TF.FilePolarity,Negative*%
%FSLAX46Y46*%
G04 Gerber Fmt 4.6, Leading zero omitted, Abs format (unit mm)*
G04 Created by KiCad (PCBNEW 9.0.3) date 2025-07-28 21:25:01*
%MOMM*%
%LPD*%
G01*
G04 APERTURE LIST*
G04 Aperture macros list*
%AMRoundRect*
0 Rectangle with rounded corners*
0 $1 Rounding radius*
0 $2 $3 $4 $5 $6 $7 $8 $9 X,Y pos of 4 corners*
0 Add a 4 corners polygon primitive as box body*
4,1,4,$2,$3,$4,$5,$6,$7,$8,$9,$2,$3,0*
0 Add four circle primitives for the rounded corners*
1,1,$1+$1,$2,$3*
1,1,$1+$1,$4,$5*
1,1,$1+$1,$6,$7*
1,1,$1+$1,$8,$9*
0 Add four rect primitives between the rounded corners*
20,1,$1+$1,$2,$3,$4,$5,0*
20,1,$1+$1,$4,$5,$6,$7,0*
20,1,$1+$1,$6,$7,$8,$9,0*
20,1,$1+$1,$8,$9,$2,$3,0*%
G04 Aperture macros list end*
%ADD10C,2.600960*%
%ADD11R,1.700000X1.700000*%
%ADD12O,1.700000X1.700000*%
%ADD13RoundRect,0.250000X-0.550000X-0.550000X0.550000X-0.550000X0.550000X0.550000X-0.550000X0.550000X0*%
%ADD14C,1.600000*%
%ADD15R,1.778000X7.112000*%
%ADD16RoundRect,0.250000X0.550000X0.550000X-0.550000X0.550000X-0.550000X-0.550000X0.550000X-0.550000X0*%
G04 APERTURE END LIST*
D10*
%TO.C,PicoPSU*%
X101389180Y-101450140D03*
X101389180Y-97248980D03*
X101389180Y-93050360D03*
X101389180Y-88849200D03*
X101389180Y-84650580D03*
X101389180Y-80449420D03*
X101389180Y-76250800D03*
X101389180Y-72049640D03*
X101389180Y-67851020D03*
X101389180Y-63649860D03*
X106890820Y-101450140D03*
X106890820Y-97248980D03*
X106890820Y-93050360D03*
X106890820Y-88849200D03*
X106890820Y-84650580D03*
X106890820Y-80449420D03*
X106890820Y-76250800D03*
X106890820Y-72049640D03*
X106890820Y-67851020D03*
X106890820Y-63649860D03*
%TD*%
D11*
%TO.C,REF\u002A\u002A*%
X193040000Y-50800000D03*
D12*
X190500000Y-50800000D03*
X187960000Y-50800000D03*
X185420000Y-50800000D03*
X182880000Y-50800000D03*
X180340000Y-50800000D03*
X177800000Y-50800000D03*
X175260000Y-50800000D03*
X172720000Y-50800000D03*
X170180000Y-50800000D03*
X167640000Y-50800000D03*
X165100000Y-50800000D03*
X162560000Y-50800000D03*
X160020000Y-50800000D03*
X157480000Y-50800000D03*
X154940000Y-50800000D03*
X152400000Y-50800000D03*
X149860000Y-50800000D03*
X147320000Y-50800000D03*
X144780000Y-50800000D03*
X142240000Y-50800000D03*
X139700000Y-50800000D03*
X137160000Y-50800000D03*
X134620000Y-50800000D03*
X132080000Y-50800000D03*
X129540000Y-50800000D03*
X127000000Y-50800000D03*
X124460000Y-50800000D03*
X121920000Y-50800000D03*
X119380000Y-50800000D03*
X116840000Y-50800000D03*
%TD*%
D10*
%TO.C,*%
X101381560Y-55270400D03*
%TD*%
D13*
%TO.C,100\u00B5F*%
X187960000Y-76200000D03*
D14*
X190460000Y-76200000D03*
%TD*%
D11*
%TO.C,REF\u002A\u002A*%
X193040000Y-71120000D03*
D12*
X190500000Y-71120000D03*
X187960000Y-71120000D03*
X185420000Y-71120000D03*
X182880000Y-71120000D03*
X180340000Y-71120000D03*
X177800000Y-71120000D03*
X175260000Y-71120000D03*
X172720000Y-71120000D03*
X170180000Y-71120000D03*
X167640000Y-71120000D03*
X165100000Y-71120000D03*
X162560000Y-71120000D03*
X160020000Y-71120000D03*
X157480000Y-71120000D03*
X154940000Y-71120000D03*
X152400000Y-71120000D03*
X149860000Y-71120000D03*
X147320000Y-71120000D03*
X144780000Y-71120000D03*
X142240000Y-71120000D03*
X139700000Y-71120000D03*
X137160000Y-71120000D03*
X134620000Y-71120000D03*
X132080000Y-71120000D03*
X129540000Y-71120000D03*
X127000000Y-71120000D03*
X124460000Y-71120000D03*
X121920000Y-71120000D03*
X119380000Y-71120000D03*
X116840000Y-71120000D03*
%TD*%
D15*
%TO.C,BUS1*%
X193040000Y-135382000D03*
X193040000Y-135382000D03*
X190500000Y-135382000D03*
X187960000Y-135382000D03*
X185420000Y-135382000D03*
X182880000Y-135382000D03*
X180340000Y-135382000D03*
X177800000Y-135382000D03*
X175260000Y-135382000D03*
X172720000Y-135382000D03*
X170180000Y-135382000D03*
X167640000Y-135382000D03*
X165100000Y-135382000D03*
X162560000Y-135382000D03*
X160020000Y-135382000D03*
X157480000Y-135382000D03*
X154940000Y-135382000D03*
X152400000Y-135382000D03*
X149860000Y-135382000D03*
X147320000Y-135382000D03*
X144780000Y-135382000D03*
X142240000Y-135382000D03*
X139700000Y-135382000D03*
X137160000Y-135382000D03*
X134620000Y-135382000D03*
X132080000Y-135382000D03*
X129540000Y-135382000D03*
X127000000Y-135382000D03*
X124460000Y-135382000D03*
X121920000Y-135382000D03*
X119380000Y-135382000D03*
X116840000Y-135382000D03*
%TD*%
D16*
%TO.C,100\u00B5F*%
X119380000Y-76200000D03*
D14*
X116880000Y-76200000D03*
%TD*%
D11*
%TO.C,REF\u002A\u002A*%
X193040000Y-66040000D03*
D12*
X190500000Y-66040000D03*
X187960000Y-66040000D03*
X185420000Y-66040000D03*
X182880000Y-66040000D03*
X180340000Y-66040000D03*
X177800000Y-66040000D03*
X175260000Y-66040000D03*
X172720000Y-66040000D03*
X170180000Y-66040000D03*
X167640000Y-66040000D03*
X165100000Y-66040000D03*
X162560000Y-66040000D03*
X160020000Y-66040000D03*
X157480000Y-66040000D03*
X154940000Y-66040000D03*
X152400000Y-66040000D03*
X149860000Y-66040000D03*
X147320000Y-66040000D03*
X144780000Y-66040000D03*
X142240000Y-66040000D03*
X139700000Y-66040000D03*
X137160000Y-66040000D03*
X134620000Y-66040000D03*
X132080000Y-66040000D03*
X129540000Y-66040000D03*
X127000000Y-66040000D03*
X124460000Y-66040000D03*
X121920000Y-66040000D03*
X119380000Y-66040000D03*
X116840000Y-66040000D03*
%TD*%
D16*
%TO.C,100\u00B5F*%
X120650000Y-96520000D03*
D14*
X118150000Y-96520000D03*
%TD*%
D13*
%TO.C,100\u00B5F*%
X189270000Y-96520000D03*
D14*
X191770000Y-96520000D03*
%TD*%
D11*
%TO.C,REF\u002A\u002A*%
X193040000Y-45720000D03*
D12*
X190500000Y-45720000D03*
X187960000Y-45720000D03*
X185420000Y-45720000D03*
X182880000Y-45720000D03*
X180340000Y-45720000D03*
X177800000Y-45720000D03*
X175260000Y-45720000D03*
X172720000Y-45720000D03*
X170180000Y-45720000D03*
X167640000Y-45720000D03*
X165100000Y-45720000D03*
X162560000Y-45720000D03*
X160020000Y-45720000D03*
X157480000Y-45720000D03*
X154940000Y-45720000D03*
X152400000Y-45720000D03*
X149860000Y-45720000D03*
X147320000Y-45720000D03*
X144780000Y-45720000D03*
X142240000Y-45720000D03*
X139700000Y-45720000D03*
X137160000Y-45720000D03*
X134620000Y-45720000D03*
X132080000Y-45720000D03*
X129540000Y-45720000D03*
X127000000Y-45720000D03*
X124460000Y-45720000D03*
X121920000Y-45720000D03*
X119380000Y-45720000D03*
X116840000Y-45720000D03*
%TD*%
D13*
%TO.C,100\u00B5F*%
X188000000Y-55880000D03*
D14*
X190500000Y-55880000D03*
%TD*%
D10*
%TO.C,*%
X101381560Y-59461400D03*
%TD*%
%TO.C,*%
X106883200Y-59461400D03*
%TD*%
D11*
%TO.C,REF\u002A\u002A*%
X193040000Y-91440000D03*
D12*
X190500000Y-91440000D03*
X187960000Y-91440000D03*
X185420000Y-91440000D03*
X182880000Y-91440000D03*
X180340000Y-91440000D03*
X177800000Y-91440000D03*
X175260000Y-91440000D03*
X172720000Y-91440000D03*
X170180000Y-91440000D03*
X167640000Y-91440000D03*
X165100000Y-91440000D03*
X162560000Y-91440000D03*
X160020000Y-91440000D03*
X157480000Y-91440000D03*
X154940000Y-91440000D03*
X152400000Y-91440000D03*
X149860000Y-91440000D03*
X147320000Y-91440000D03*
X144780000Y-91440000D03*
X142240000Y-91440000D03*
X139700000Y-91440000D03*
X137160000Y-91440000D03*
X134620000Y-91440000D03*
X132080000Y-91440000D03*
X129540000Y-91440000D03*
X127000000Y-91440000D03*
X124460000Y-91440000D03*
X121920000Y-91440000D03*
X119380000Y-91440000D03*
X116840000Y-91440000D03*
%TD*%
D10*
%TO.C,*%
X106883200Y-55270400D03*
%TD*%
D16*
%TO.C,100\u00B5F*%
X119380000Y-55880000D03*
D14*
X116880000Y-55880000D03*
%TD*%
D11*
%TO.C,REF\u002A\u002A*%
X193040000Y-86360000D03*
D12*
X190500000Y-86360000D03*
X187960000Y-86360000D03*
X185420000Y-86360000D03*
X182880000Y-86360000D03*
X180340000Y-86360000D03*
X177800000Y-86360000D03*
X175260000Y-86360000D03*
X172720000Y-86360000D03*
X170180000Y-86360000D03*
X167640000Y-86360000D03*
X165100000Y-86360000D03*
X162560000Y-86360000D03*
X160020000Y-86360000D03*
X157480000Y-86360000D03*
X154940000Y-86360000D03*
X152400000Y-86360000D03*
X149860000Y-86360000D03*
X147320000Y-86360000D03*
X144780000Y-86360000D03*
X142240000Y-86360000D03*
X139700000Y-86360000D03*
X137160000Y-86360000D03*
X134620000Y-86360000D03*
X132080000Y-86360000D03*
X129540000Y-86360000D03*
X127000000Y-86360000D03*
X124460000Y-86360000D03*
X121920000Y-86360000D03*
X119380000Y-86360000D03*
X116840000Y-86360000D03*
%TD*%
M02*
