%TF.GenerationSoftware,KiCad,Pcbnew,9.0.3*%
%TF.CreationDate,2025-07-28T21:25:01+02:00*%
%TF.ProjectId,Riser_M19_EXT,52697365-725f-44d3-9139-5f4558542e6b,rev?*%
%TF.SameCoordinates,Original*%
%TF.FileFunction,Legend,Bot*%
%TF.FilePolarity,Positive*%
%FSLAX46Y46*%
G04 Gerber Fmt 4.6, Leading zero omitted, Abs format (unit mm)*
G04 Created by KiCad (PCBNEW 9.0.3) date 2025-07-28 21:25:01*
%MOMM*%
%LPD*%
G01*
G04 APERTURE LIST*
%ADD10C,0.300000*%
G04 APERTURE END LIST*
D10*
X191162632Y-38700828D02*
X192305489Y-39129400D01*
X192305489Y-39129400D02*
X191162632Y-39557971D01*
X190448346Y-39129400D02*
X189305489Y-39129400D01*
X187448346Y-39700828D02*
X187448346Y-38200828D01*
X187448346Y-38200828D02*
X186876917Y-38200828D01*
X186876917Y-38200828D02*
X186734060Y-38272257D01*
X186734060Y-38272257D02*
X186662631Y-38343685D01*
X186662631Y-38343685D02*
X186591203Y-38486542D01*
X186591203Y-38486542D02*
X186591203Y-38700828D01*
X186591203Y-38700828D02*
X186662631Y-38843685D01*
X186662631Y-38843685D02*
X186734060Y-38915114D01*
X186734060Y-38915114D02*
X186876917Y-38986542D01*
X186876917Y-38986542D02*
X187448346Y-38986542D01*
X185091203Y-39557971D02*
X185162631Y-39629400D01*
X185162631Y-39629400D02*
X185376917Y-39700828D01*
X185376917Y-39700828D02*
X185519774Y-39700828D01*
X185519774Y-39700828D02*
X185734060Y-39629400D01*
X185734060Y-39629400D02*
X185876917Y-39486542D01*
X185876917Y-39486542D02*
X185948346Y-39343685D01*
X185948346Y-39343685D02*
X186019774Y-39057971D01*
X186019774Y-39057971D02*
X186019774Y-38843685D01*
X186019774Y-38843685D02*
X185948346Y-38557971D01*
X185948346Y-38557971D02*
X185876917Y-38415114D01*
X185876917Y-38415114D02*
X185734060Y-38272257D01*
X185734060Y-38272257D02*
X185519774Y-38200828D01*
X185519774Y-38200828D02*
X185376917Y-38200828D01*
X185376917Y-38200828D02*
X185162631Y-38272257D01*
X185162631Y-38272257D02*
X185091203Y-38343685D01*
X182448346Y-39700828D02*
X182948346Y-38986542D01*
X183305489Y-39700828D02*
X183305489Y-38200828D01*
X183305489Y-38200828D02*
X182734060Y-38200828D01*
X182734060Y-38200828D02*
X182591203Y-38272257D01*
X182591203Y-38272257D02*
X182519774Y-38343685D01*
X182519774Y-38343685D02*
X182448346Y-38486542D01*
X182448346Y-38486542D02*
X182448346Y-38700828D01*
X182448346Y-38700828D02*
X182519774Y-38843685D01*
X182519774Y-38843685D02*
X182591203Y-38915114D01*
X182591203Y-38915114D02*
X182734060Y-38986542D01*
X182734060Y-38986542D02*
X183305489Y-38986542D01*
X181805489Y-38915114D02*
X181305489Y-38915114D01*
X181091203Y-39700828D02*
X181805489Y-39700828D01*
X181805489Y-39700828D02*
X181805489Y-38200828D01*
X181805489Y-38200828D02*
X181091203Y-38200828D01*
X180519774Y-39272257D02*
X179805489Y-39272257D01*
X180662631Y-39700828D02*
X180162631Y-38200828D01*
X180162631Y-38200828D02*
X179662631Y-39700828D01*
X178305489Y-39700828D02*
X178805489Y-38986542D01*
X179162632Y-39700828D02*
X179162632Y-38200828D01*
X179162632Y-38200828D02*
X178591203Y-38200828D01*
X178591203Y-38200828D02*
X178448346Y-38272257D01*
X178448346Y-38272257D02*
X178376917Y-38343685D01*
X178376917Y-38343685D02*
X178305489Y-38486542D01*
X178305489Y-38486542D02*
X178305489Y-38700828D01*
X178305489Y-38700828D02*
X178376917Y-38843685D01*
X178376917Y-38843685D02*
X178448346Y-38915114D01*
X178448346Y-38915114D02*
X178591203Y-38986542D01*
X178591203Y-38986542D02*
X179162632Y-38986542D01*
M02*
